G04 --- HEADER BEGIN --- *
%TF.GenerationSoftware,LibrePCB,LibrePCB,0.1.3*%
%TF.CreationDate,2020-05-24T18:28:55*%
%TF.ProjectId,SprigZero - default,93c98233-4b04-4051-a125-04f829bd9155,v1*%
%TF.Part,Single*%
%FSLAX66Y66*%
%MOMM*%
G01*
G74*
G04 --- HEADER END --- *
G04 --- APERTURE LIST BEGIN --- *
%ADD10C,0.2*%
%ADD11O,2.7X1.5*%
%ADD12O,1.9X1.3*%
%ADD13O,2.39X1.787*%
%ADD14R,2.39X1.787*%
%ADD15R,1.787X2.39*%
%ADD16O,1.787X2.39*%
%ADD17O,1.4X2.7*%
%ADD18O,2.0X3.2*%
G04 --- APERTURE LIST END --- *
G04 --- BOARD BEGIN --- *
D10*
X27893333Y60625000D02*
X28393333Y61340000D01*
X28750000Y60625000D02*
X28750000Y62125000D01*
X28178333Y62125000D01*
X28035000Y62053333D01*
X27965000Y61981667D01*
X27893333Y61840000D01*
X27893333Y61625000D01*
X27965000Y61481667D01*
X28035000Y61410000D01*
X28178333Y61340000D01*
X28750000Y61340000D01*
X27393333Y61410000D02*
X26893333Y61410000D01*
X26678333Y60625000D02*
X27393333Y60625000D01*
X27393333Y62125000D01*
X26678333Y62125000D01*
X25678333Y61410000D02*
X26178333Y61410000D01*
X26178333Y60625000D02*
X26178333Y62125000D01*
X25463333Y62125000D01*
X13578125Y76484375D02*
X15078125Y75984375D01*
X13578125Y75484375D01*
X14293125Y74484375D02*
X14363125Y74269375D01*
X14434792Y74199375D01*
X14578125Y74127708D01*
X14793125Y74127708D01*
X14934792Y74199375D01*
X15006458Y74269375D01*
X15078125Y74412708D01*
X15078125Y74984375D01*
X13578125Y74984375D01*
X13578125Y74484375D01*
X13649792Y74341042D01*
X13721458Y74269375D01*
X13863125Y74199375D01*
X14006458Y74199375D01*
X14149792Y74269375D01*
X14221458Y74341042D01*
X14293125Y74484375D01*
X14293125Y74984375D01*
X14649792Y73484375D02*
X14649792Y72771041D01*
X15078125Y73627708D02*
X13578125Y73127708D01*
X15078125Y72627708D01*
X13578125Y72127708D02*
X13578125Y71271041D01*
X15078125Y71699375D02*
X13578125Y71699375D01*
X28127708Y46678333D02*
X28269375Y46750000D01*
X28484375Y46750000D01*
X28699375Y46678333D01*
X28841042Y46535000D01*
X28912708Y46393333D01*
X28984375Y46106667D01*
X28984375Y45893333D01*
X28912708Y45606667D01*
X28841042Y45465000D01*
X28699375Y45321667D01*
X28484375Y45250000D01*
X28341042Y45250000D01*
X28127708Y45321667D01*
X28056042Y45393333D01*
X28056042Y45893333D01*
X28341042Y45893333D01*
X27556042Y45250000D02*
X27556042Y46750000D01*
X26699375Y45250000D01*
X26699375Y46750000D01*
X26199375Y45250000D02*
X26199375Y46750000D01*
X25842708Y46750000D01*
X25627708Y46678333D01*
X25484375Y46535000D01*
X25414375Y46393333D01*
X25342708Y46106667D01*
X25342708Y45893333D01*
X25414375Y45606667D01*
X25484375Y45465000D01*
X25627708Y45321667D01*
X25842708Y45250000D01*
X26199375Y45250000D01*
X28875000Y44218750D02*
X28375000Y42718750D01*
X27875000Y44218750D01*
X27375000Y42718750D02*
X27375000Y44218750D01*
X26875000Y42718750D02*
X26875000Y44218750D01*
X26018333Y42718750D01*
X26018333Y44218750D01*
X12656250Y75080833D02*
X11941250Y75580833D01*
X12656250Y75937500D02*
X11156250Y75937500D01*
X11156250Y75365833D01*
X11227917Y75222500D01*
X11299583Y75152500D01*
X11441250Y75080833D01*
X11656250Y75080833D01*
X11799583Y75152500D01*
X11871250Y75222500D01*
X11941250Y75365833D01*
X11941250Y75937500D01*
X12584583Y74580833D02*
X12656250Y74365833D01*
X12656250Y74009166D01*
X12584583Y73865833D01*
X12512917Y73795833D01*
X12371250Y73724166D01*
X12227917Y73724166D01*
X12084583Y73795833D01*
X12012917Y73865833D01*
X11941250Y74009166D01*
X11871250Y74295833D01*
X11799583Y74437500D01*
X11727917Y74509166D01*
X11584583Y74580833D01*
X11441250Y74580833D01*
X11299583Y74509166D01*
X11227917Y74437500D01*
X11156250Y74295833D01*
X11156250Y73937500D01*
X11227917Y73724166D01*
X11156250Y73224166D02*
X11156250Y72367499D01*
X12656250Y72795833D02*
X11156250Y72795833D01*
X17658958Y81975208D02*
X17800625Y82046875D01*
X18015625Y82046875D01*
X18230625Y81975208D01*
X18372292Y81831875D01*
X18443958Y81690208D01*
X18515625Y81403542D01*
X18515625Y81190208D01*
X18443958Y80903542D01*
X18372292Y80761875D01*
X18230625Y80618542D01*
X18015625Y80546875D01*
X17872292Y80546875D01*
X17658958Y80618542D01*
X17587292Y80690208D01*
X17587292Y81190208D01*
X17872292Y81190208D01*
X17087292Y80546875D02*
X17087292Y82046875D01*
X16230625Y80546875D01*
X16230625Y82046875D01*
X15730625Y80546875D02*
X15730625Y82046875D01*
X15373958Y82046875D01*
X15158958Y81975208D01*
X15015625Y81831875D01*
X14945625Y81690208D01*
X14873958Y81403542D01*
X14873958Y81190208D01*
X14945625Y80903542D01*
X15015625Y80761875D01*
X15158958Y80618542D01*
X15373958Y80546875D01*
X15730625Y80546875D01*
X27737083Y63203125D02*
X28237083Y63918125D01*
X28593750Y63203125D02*
X28593750Y64703125D01*
X28022083Y64703125D01*
X27878750Y64631458D01*
X27808750Y64559792D01*
X27737083Y64418125D01*
X27737083Y64203125D01*
X27808750Y64059792D01*
X27878750Y63988125D01*
X28022083Y63918125D01*
X28593750Y63918125D01*
X27237083Y64703125D02*
X26237083Y63203125D01*
X26237083Y64703125D02*
X27237083Y63203125D01*
X25737083Y63203125D02*
X25737083Y64703125D01*
X25380416Y64703125D01*
X25165416Y64631458D01*
X25022083Y64488125D01*
X24952083Y64346458D01*
X24880416Y64059792D01*
X24880416Y63846458D01*
X24952083Y63559792D01*
X25022083Y63418125D01*
X25165416Y63274792D01*
X25380416Y63203125D01*
X25737083Y63203125D01*
X26531249Y80546875D02*
X26244583Y80546875D01*
X26102916Y80475208D01*
X25959583Y80331875D01*
X25887916Y80046875D01*
X25887916Y79546875D01*
X25959583Y79261875D01*
X26102916Y79118542D01*
X26244583Y79046875D01*
X26531249Y79046875D01*
X26672916Y79118542D01*
X26816249Y79261875D01*
X26887916Y79546875D01*
X26887916Y80046875D01*
X26816249Y80331875D01*
X26672916Y80475208D01*
X26531249Y80546875D01*
X25387916Y79046875D02*
X25387916Y80546875D01*
X24531249Y79046875D01*
X24531249Y80546875D01*
X28750000Y67125000D02*
X27893333Y67125000D01*
X28321667Y65625000D02*
X28321667Y67125000D01*
X27393333Y67125000D02*
X26393333Y65625000D01*
X26393333Y67125000D02*
X27393333Y65625000D01*
X25893333Y65625000D02*
X25893333Y67125000D01*
X25536666Y67125000D01*
X25321666Y67053333D01*
X25178333Y66910000D01*
X25108333Y66768333D01*
X25036666Y66481667D01*
X25036666Y66268333D01*
X25108333Y65981667D01*
X25178333Y65840000D01*
X25321666Y65696667D01*
X25536666Y65625000D01*
X25893333Y65625000D01*
X11562500Y80468750D02*
X11562500Y81968750D01*
X11205833Y81968750D01*
X10990833Y81897083D01*
X10847500Y81753750D01*
X10777500Y81612083D01*
X10705833Y81325417D01*
X10705833Y81112083D01*
X10777500Y80825417D01*
X10847500Y80683750D01*
X10990833Y80540417D01*
X11205833Y80468750D01*
X11562500Y80468750D01*
X9490833Y81968750D02*
X9777500Y81968750D01*
X9920833Y81897083D01*
X9990833Y81825417D01*
X10134166Y81612083D01*
X10205833Y81325417D01*
X10205833Y80753750D01*
X10134166Y80612083D01*
X10062500Y80540417D01*
X9920833Y80468750D01*
X9634166Y80468750D01*
X9490833Y80540417D01*
X9420833Y80612083D01*
X9349166Y80753750D01*
X9349166Y81112083D01*
X9420833Y81253750D01*
X9490833Y81325417D01*
X9634166Y81397083D01*
X9920833Y81397083D01*
X10062500Y81325417D01*
X10134166Y81253750D01*
X10205833Y81112083D01*
X921875Y76093750D02*
X921875Y75237083D01*
X2421875Y75665417D02*
X921875Y75665417D01*
X921875Y74737083D02*
X2421875Y73737083D01*
X921875Y73737083D02*
X2421875Y74737083D01*
X4850208Y76328125D02*
X4921875Y76113125D01*
X4921875Y75756458D01*
X4850208Y75613125D01*
X4778542Y75543125D01*
X4636875Y75471458D01*
X4493542Y75471458D01*
X4350208Y75543125D01*
X4278542Y75613125D01*
X4206875Y75756458D01*
X4136875Y76043125D01*
X4065208Y76184792D01*
X3993542Y76256458D01*
X3850208Y76328125D01*
X3706875Y76328125D01*
X3565208Y76256458D01*
X3493542Y76184792D01*
X3421875Y76043125D01*
X3421875Y75684792D01*
X3493542Y75471458D01*
X4778542Y74043125D02*
X4850208Y74114791D01*
X4921875Y74328125D01*
X4921875Y74471458D01*
X4850208Y74686458D01*
X4706875Y74828125D01*
X4565208Y74899791D01*
X4278542Y74971458D01*
X4065208Y74971458D01*
X3778542Y74899791D01*
X3636875Y74828125D01*
X3493542Y74686458D01*
X3421875Y74471458D01*
X3421875Y74328125D01*
X3493542Y74114791D01*
X3565208Y74043125D01*
X4921875Y73543125D02*
X3421875Y73543125D01*
X4921875Y72686458D02*
X4065208Y73328125D01*
X3421875Y72686458D02*
X4278542Y73543125D01*
X29296875Y49312500D02*
X28796875Y47812500D01*
X28296875Y49312500D01*
X27296875Y48597500D02*
X27081875Y48527500D01*
X27011875Y48455833D01*
X26940208Y48312500D01*
X26940208Y48097500D01*
X27011875Y47955833D01*
X27081875Y47884167D01*
X27225208Y47812500D01*
X27796875Y47812500D01*
X27796875Y49312500D01*
X27296875Y49312500D01*
X27153542Y49240833D01*
X27081875Y49169167D01*
X27011875Y49027500D01*
X27011875Y48884167D01*
X27081875Y48740833D01*
X27153542Y48669167D01*
X27296875Y48597500D01*
X27796875Y48597500D01*
X26296875Y48240833D02*
X25583541Y48240833D01*
X26440208Y47812500D02*
X25940208Y49312500D01*
X25440208Y47812500D01*
X24940208Y49312500D02*
X24083541Y49312500D01*
X24511875Y47812500D02*
X24511875Y49312500D01*
X28372292Y58475208D02*
X27658958Y58475208D01*
X28515625Y58046875D02*
X28015625Y59546875D01*
X27515625Y58046875D01*
X26158958Y58046875D02*
X27015625Y58046875D01*
X26587292Y58046875D02*
X26587292Y59546875D01*
X26730625Y59331875D01*
X26872292Y59190208D01*
X27015625Y59118542D01*
X28515625Y52962292D02*
X28300625Y52890625D01*
X27943958Y52890625D01*
X27800625Y52962292D01*
X27730625Y53033958D01*
X27658958Y53175625D01*
X27658958Y53318958D01*
X27730625Y53462292D01*
X27800625Y53533958D01*
X27943958Y53605625D01*
X28230625Y53675625D01*
X28372292Y53747292D01*
X28443958Y53818958D01*
X28515625Y53962292D01*
X28515625Y54105625D01*
X28443958Y54247292D01*
X28372292Y54318958D01*
X28230625Y54390625D01*
X27872292Y54390625D01*
X27658958Y54318958D01*
X26230625Y53033958D02*
X26302291Y52962292D01*
X26515625Y52890625D01*
X26658958Y52890625D01*
X26873958Y52962292D01*
X27015625Y53105625D01*
X27087291Y53247292D01*
X27158958Y53533958D01*
X27158958Y53747292D01*
X27087291Y54033958D01*
X27015625Y54175625D01*
X26873958Y54318958D01*
X26658958Y54390625D01*
X26515625Y54390625D01*
X26302291Y54318958D01*
X26230625Y54247292D01*
X25015625Y52890625D02*
X25730625Y52890625D01*
X25730625Y54390625D01*
X26531249Y80546875D02*
X26244583Y80546875D01*
X26102916Y80475208D01*
X25959583Y80331875D01*
X25887916Y80046875D01*
X25887916Y79546875D01*
X25959583Y79261875D01*
X26102916Y79118542D01*
X26244583Y79046875D01*
X26531249Y79046875D01*
X26672916Y79118542D01*
X26816249Y79261875D01*
X26887916Y79546875D01*
X26887916Y80046875D01*
X26816249Y80331875D01*
X26672916Y80475208D01*
X26531249Y80546875D01*
X25387916Y79046875D02*
X25387916Y80546875D01*
X24531249Y79046875D01*
X24531249Y80546875D01*
X26406250Y77644375D02*
X26406250Y78359375D01*
X24906250Y78359375D01*
X24906250Y77144375D02*
X24906250Y76287708D01*
X26406250Y76716042D02*
X24906250Y76716042D01*
X24906250Y75431041D02*
X24906250Y75144375D01*
X24977917Y75002708D01*
X25121250Y74859375D01*
X25406250Y74787708D01*
X25906250Y74787708D01*
X26191250Y74859375D01*
X26334583Y75002708D01*
X26406250Y75144375D01*
X26406250Y75431041D01*
X26334583Y75572708D01*
X26191250Y75716041D01*
X25906250Y75787708D01*
X25406250Y75787708D01*
X25121250Y75716041D01*
X24977917Y75572708D01*
X24906250Y75431041D01*
X17062500Y54290417D02*
X16847500Y54218750D01*
X16490833Y54218750D01*
X16347500Y54290417D01*
X16277500Y54362083D01*
X16205833Y54503750D01*
X16205833Y54647083D01*
X16277500Y54790417D01*
X16347500Y54862083D01*
X16490833Y54933750D01*
X16777500Y55003750D01*
X16919167Y55075417D01*
X16990833Y55147083D01*
X17062500Y55290417D01*
X17062500Y55433750D01*
X16990833Y55575417D01*
X16919167Y55647083D01*
X16777500Y55718750D01*
X16419167Y55718750D01*
X16205833Y55647083D01*
X15705833Y54218750D02*
X15705833Y55718750D01*
X15134166Y55718750D01*
X14990833Y55647083D01*
X14920833Y55575417D01*
X14849166Y55433750D01*
X14849166Y55218750D01*
X14920833Y55075417D01*
X14990833Y55003750D01*
X15134166Y54933750D01*
X15705833Y54933750D01*
X13492499Y54218750D02*
X13992499Y54933750D01*
X14349166Y54218750D02*
X14349166Y55718750D01*
X13777499Y55718750D01*
X13634166Y55647083D01*
X13564166Y55575417D01*
X13492499Y55433750D01*
X13492499Y55218750D01*
X13564166Y55075417D01*
X13634166Y55003750D01*
X13777499Y54933750D01*
X14349166Y54933750D01*
X12992499Y54218750D02*
X12992499Y55718750D01*
X11635832Y55647083D02*
X11777499Y55718750D01*
X11992499Y55718750D01*
X12207499Y55647083D01*
X12349166Y55503750D01*
X12420832Y55362083D01*
X12492499Y55075417D01*
X12492499Y54862083D01*
X12420832Y54575417D01*
X12349166Y54433750D01*
X12207499Y54290417D01*
X11992499Y54218750D01*
X11849166Y54218750D01*
X11635832Y54290417D01*
X11564166Y54362083D01*
X11564166Y54862083D01*
X11849166Y54862083D01*
X9964167Y55718750D02*
X8964167Y55718750D01*
X9964167Y54218750D01*
X8964167Y54218750D01*
X8464167Y55003750D02*
X7964167Y55003750D01*
X7749167Y54218750D02*
X8464167Y54218750D01*
X8464167Y55718750D01*
X7749167Y55718750D01*
X6392500Y54218750D02*
X6892500Y54933750D01*
X7249167Y54218750D02*
X7249167Y55718750D01*
X6677500Y55718750D01*
X6534167Y55647083D01*
X6464167Y55575417D01*
X6392500Y55433750D01*
X6392500Y55218750D01*
X6464167Y55075417D01*
X6534167Y55003750D01*
X6677500Y54933750D01*
X7249167Y54933750D01*
X5535833Y55718750D02*
X5249167Y55718750D01*
X5107500Y55647083D01*
X4964167Y55503750D01*
X4892500Y55218750D01*
X4892500Y54718750D01*
X4964167Y54433750D01*
X5107500Y54290417D01*
X5249167Y54218750D01*
X5535833Y54218750D01*
X5677500Y54290417D01*
X5820833Y54433750D01*
X5892500Y54718750D01*
X5892500Y55218750D01*
X5820833Y55503750D01*
X5677500Y55647083D01*
X5535833Y55718750D01*
X3292501Y55218750D02*
X2935834Y54218750D01*
X2577501Y55218750D01*
X1220834Y54218750D02*
X2077501Y54218750D01*
X1649168Y54218750D02*
X1649168Y55718750D01*
X1792501Y55503750D01*
X1934168Y55362083D01*
X2077501Y55290417D01*
X649167Y54362083D02*
X577501Y54290417D01*
X649167Y54218750D01*
X720834Y54290417D01*
X649167Y54362083D01*
X649167Y54218750D01*
X-779166Y54218750D02*
X77501Y54218750D01*
X-350832Y54218750D02*
X-350832Y55718750D01*
X-207499Y55503750D01*
X-65832Y55362083D01*
X77501Y55290417D01*
X-156250Y75315208D02*
X-871250Y75815208D01*
X-156250Y76171875D02*
X-1656250Y76171875D01*
X-1656250Y75600208D01*
X-1584583Y75456875D01*
X-1512917Y75386875D01*
X-1371250Y75315208D01*
X-1156250Y75315208D01*
X-1012917Y75386875D01*
X-941250Y75456875D01*
X-871250Y75600208D01*
X-871250Y76171875D01*
X-1656250Y74815208D02*
X-156250Y73815208D01*
X-1656250Y73815208D02*
X-156250Y74815208D01*
X28450417Y55897083D02*
X27737083Y55897083D01*
X28593750Y55468750D02*
X28093750Y56968750D01*
X27593750Y55468750D01*
X26737083Y56968750D02*
X26593750Y56968750D01*
X26450417Y56897083D01*
X26378750Y56825417D01*
X26308750Y56683750D01*
X26237083Y56397083D01*
X26237083Y56040417D01*
X26308750Y55753750D01*
X26378750Y55612083D01*
X26450417Y55540417D01*
X26593750Y55468750D01*
X26737083Y55468750D01*
X26878750Y55540417D01*
X26950417Y55612083D01*
X27022083Y55753750D01*
X27093750Y56040417D01*
X27093750Y56397083D01*
X27022083Y56683750D01*
X26950417Y56825417D01*
X26878750Y56897083D01*
X26737083Y56968750D01*
X28671875Y50384167D02*
X28456875Y50312500D01*
X28100208Y50312500D01*
X27956875Y50384167D01*
X27886875Y50455833D01*
X27815208Y50597500D01*
X27815208Y50740833D01*
X27886875Y50884167D01*
X27956875Y50955833D01*
X28100208Y51027500D01*
X28386875Y51097500D01*
X28528542Y51169167D01*
X28600208Y51240833D01*
X28671875Y51384167D01*
X28671875Y51527500D01*
X28600208Y51669167D01*
X28528542Y51740833D01*
X28386875Y51812500D01*
X28028542Y51812500D01*
X27815208Y51740833D01*
X27315208Y50312500D02*
X27315208Y51812500D01*
X26958541Y51812500D01*
X26743541Y51740833D01*
X26600208Y51597500D01*
X26530208Y51455833D01*
X26458541Y51169167D01*
X26458541Y50955833D01*
X26530208Y50669167D01*
X26600208Y50527500D01*
X26743541Y50384167D01*
X26958541Y50312500D01*
X27315208Y50312500D01*
X25815208Y50740833D02*
X25101874Y50740833D01*
X25958541Y50312500D02*
X25458541Y51812500D01*
X24958541Y50312500D01*
X5986250Y79437500D02*
X5986250Y80937500D01*
X5629583Y80937500D01*
X5414583Y80865833D01*
X5271250Y80722500D01*
X5201250Y80580833D01*
X5129583Y80294167D01*
X5129583Y80080833D01*
X5201250Y79794167D01*
X5271250Y79652500D01*
X5414583Y79509167D01*
X5629583Y79437500D01*
X5986250Y79437500D01*
X3844583Y80937500D02*
X4557916Y80937500D01*
X4629583Y80222500D01*
X4557916Y80294167D01*
X4414583Y80365833D01*
X4057916Y80365833D01*
X3914583Y80294167D01*
X3844583Y80222500D01*
X3772916Y80080833D01*
X3772916Y79722500D01*
X3844583Y79580833D01*
X3914583Y79509167D01*
X4057916Y79437500D01*
X4414583Y79437500D01*
X4557916Y79509167D01*
X4629583Y79580833D01*
X2172917Y79509167D02*
X1957917Y79437500D01*
X1601250Y79437500D01*
X1457917Y79509167D01*
X1387917Y79580833D01*
X1316250Y79722500D01*
X1316250Y79865833D01*
X1387917Y80009167D01*
X1457917Y80080833D01*
X1601250Y80152500D01*
X1887917Y80222500D01*
X2029584Y80294167D01*
X2101250Y80365833D01*
X2172917Y80509167D01*
X2172917Y80652500D01*
X2101250Y80794167D01*
X2029584Y80865833D01*
X1887917Y80937500D01*
X1529584Y80937500D01*
X1316250Y80865833D01*
X816250Y80937500D02*
X459583Y79437500D01*
X172917Y80509167D01*
X-112083Y79437500D01*
X-468750Y80937500D01*
X16384167Y75471458D02*
X16312500Y75613125D01*
X16312500Y75828125D01*
X16384167Y76043125D01*
X16527500Y76184792D01*
X16669167Y76256458D01*
X16955833Y76328125D01*
X17169167Y76328125D01*
X17455833Y76256458D01*
X17597500Y76184792D01*
X17740833Y76043125D01*
X17812500Y75828125D01*
X17812500Y75684792D01*
X17740833Y75471458D01*
X17669167Y75399792D01*
X17169167Y75399792D01*
X17169167Y75684792D01*
X17812500Y74899792D02*
X16312500Y74899792D01*
X17812500Y74043125D01*
X16312500Y74043125D01*
X17812500Y73543125D02*
X16312500Y73543125D01*
X16312500Y73186458D01*
X16384167Y72971458D01*
X16527500Y72828125D01*
X16669167Y72758125D01*
X16955833Y72686458D01*
X17169167Y72686458D01*
X17455833Y72758125D01*
X17597500Y72828125D01*
X17740833Y72971458D01*
X17812500Y73186458D01*
X17812500Y73543125D01*
X7500000Y76328125D02*
X6000000Y76328125D01*
X7071667Y75828125D01*
X6000000Y75328125D01*
X7500000Y75328125D01*
X7500000Y74828125D02*
X6000000Y74828125D01*
X7428333Y74328125D02*
X7500000Y74113125D01*
X7500000Y73756458D01*
X7428333Y73613125D01*
X7356667Y73543125D01*
X7215000Y73471458D01*
X7071667Y73471458D01*
X6928333Y73543125D01*
X6856667Y73613125D01*
X6785000Y73756458D01*
X6715000Y74043125D01*
X6643333Y74184792D01*
X6571667Y74256458D01*
X6428333Y74328125D01*
X6285000Y74328125D01*
X6143333Y74256458D01*
X6071667Y74184792D01*
X6000000Y74043125D01*
X6000000Y73684792D01*
X6071667Y73471458D01*
X6000000Y72614791D02*
X6000000Y72328125D01*
X6071667Y72186458D01*
X6215000Y72043125D01*
X6500000Y71971458D01*
X7000000Y71971458D01*
X7285000Y72043125D01*
X7428333Y72186458D01*
X7500000Y72328125D01*
X7500000Y72614791D01*
X7428333Y72756458D01*
X7285000Y72899791D01*
X7000000Y72971458D01*
X6500000Y72971458D01*
X6215000Y72899791D01*
X6071667Y72756458D01*
X6000000Y72614791D01*
X22213958Y80546875D02*
X21927292Y80546875D01*
X21785625Y80475208D01*
X21642292Y80331875D01*
X21570625Y80046875D01*
X21570625Y79546875D01*
X21642292Y79261875D01*
X21785625Y79118542D01*
X21927292Y79046875D01*
X22213958Y79046875D01*
X22355625Y79118542D01*
X22498958Y79261875D01*
X22570625Y79546875D01*
X22570625Y80046875D01*
X22498958Y80331875D01*
X22355625Y80475208D01*
X22213958Y80546875D01*
X20570625Y79831875D02*
X21070625Y79831875D01*
X21070625Y79046875D02*
X21070625Y80546875D01*
X20355625Y80546875D01*
X19355625Y79831875D02*
X19855625Y79831875D01*
X19855625Y79046875D02*
X19855625Y80546875D01*
X19140625Y80546875D01*
X10000000Y76406250D02*
X8500000Y76406250D01*
X9571667Y75906250D01*
X8500000Y75406250D01*
X10000000Y75406250D01*
X8500000Y74549583D02*
X8500000Y74262917D01*
X8571667Y74121250D01*
X8715000Y73977917D01*
X9000000Y73906250D01*
X9500000Y73906250D01*
X9785000Y73977917D01*
X9928333Y74121250D01*
X10000000Y74262917D01*
X10000000Y74549583D01*
X9928333Y74691250D01*
X9785000Y74834583D01*
X9500000Y74906250D01*
X9000000Y74906250D01*
X8715000Y74834583D01*
X8571667Y74691250D01*
X8500000Y74549583D01*
X9928333Y73406250D02*
X10000000Y73191250D01*
X10000000Y72834583D01*
X9928333Y72691250D01*
X9856667Y72621250D01*
X9715000Y72549583D01*
X9571667Y72549583D01*
X9428333Y72621250D01*
X9356667Y72691250D01*
X9285000Y72834583D01*
X9215000Y73121250D01*
X9143333Y73262917D01*
X9071667Y73334583D01*
X8928333Y73406250D01*
X8785000Y73406250D01*
X8643333Y73334583D01*
X8571667Y73262917D01*
X8500000Y73121250D01*
X8500000Y72762917D01*
X8571667Y72549583D01*
X10000000Y72049583D02*
X8500000Y72049583D01*
%LPC*%
D11*
X27937500Y77796875D03*
X27937500Y75796875D03*
D12*
X7506250Y73746875D03*
X7506250Y72346875D03*
D13*
X27968750Y69511250D03*
D14*
X27968750Y72051250D03*
D15*
X15508750Y83046875D03*
D16*
X10428750Y83046875D03*
X12968750Y83046875D03*
X11948750Y78105000D03*
X9408750Y78105000D03*
X4328750Y78105000D03*
X14488750Y78105000D03*
X1788750Y78105000D03*
D15*
X17028750Y78105000D03*
D16*
X6868750Y78105000D03*
X-751250Y78105000D03*
D15*
X-1231250Y41575000D03*
D17*
X4975350Y82656250D03*
D18*
X7070850Y82656250D03*
X-1133350Y82656250D03*
D17*
X2968750Y82656250D03*
X962150Y82656250D03*
D11*
X23423750Y76949375D03*
X23423750Y72949375D03*
X23423750Y70949375D03*
X23423750Y74949375D03*
D17*
X21352775Y82734375D03*
D18*
X19257275Y82734375D03*
X27461475Y82734375D03*
D17*
X23359375Y82734375D03*
X25365975Y82734375D03*
D13*
X22500000Y53730000D03*
X22500000Y63890000D03*
X22500000Y61350000D03*
X22500000Y56270000D03*
X22500000Y58810000D03*
X22500000Y51190000D03*
X22500000Y66430000D03*
X22500000Y46110000D03*
D14*
X22500000Y43570000D03*
D13*
X22500000Y48650000D03*
G04 --- BOARD END --- *
%TF.MD5,e76b496819c4f5e20c7ce4b5ec41eac9*%
M02*
