G04 --- HEADER BEGIN --- *
%TF.GenerationSoftware,LibrePCB,LibrePCB,0.1.3*%
%TF.CreationDate,2020-05-24T18:28:55*%
%TF.ProjectId,SprigZero - default,93c98233-4b04-4051-a125-04f829bd9155,v1*%
%TF.Part,Single*%
%FSLAX66Y66*%
%MOMM*%
G01*
G74*
G04 --- HEADER END --- *
G04 --- APERTURE LIST BEGIN --- *
%ADD10O,2.7X1.5*%
%ADD11O,1.9X1.3*%
%ADD12O,2.39X1.787*%
%ADD13R,2.39X1.787*%
%ADD14R,1.787X2.39*%
%ADD15O,1.787X2.39*%
%ADD16O,1.4X2.7*%
%ADD17O,2.0X3.2*%
G04 --- APERTURE LIST END --- *
G04 --- BOARD BEGIN --- *
D10*
X27937500Y77796875D03*
X27937500Y75796875D03*
D11*
X7506250Y73746875D03*
X7506250Y72346875D03*
D12*
X27968750Y69511250D03*
D13*
X27968750Y72051250D03*
D14*
X15508750Y83046875D03*
D15*
X10428750Y83046875D03*
X12968750Y83046875D03*
X11948750Y78105000D03*
X9408750Y78105000D03*
X4328750Y78105000D03*
X14488750Y78105000D03*
X1788750Y78105000D03*
D14*
X17028750Y78105000D03*
D15*
X6868750Y78105000D03*
X-751250Y78105000D03*
D14*
X-1231250Y41575000D03*
D16*
X4975350Y82656250D03*
D17*
X7070850Y82656250D03*
X-1133350Y82656250D03*
D16*
X2968750Y82656250D03*
X962150Y82656250D03*
D10*
X23423750Y76949375D03*
X23423750Y72949375D03*
X23423750Y70949375D03*
X23423750Y74949375D03*
D16*
X21352775Y82734375D03*
D17*
X19257275Y82734375D03*
X27461475Y82734375D03*
D16*
X23359375Y82734375D03*
X25365975Y82734375D03*
D12*
X22500000Y53730000D03*
X22500000Y63890000D03*
X22500000Y61350000D03*
X22500000Y56270000D03*
X22500000Y58810000D03*
X22500000Y51190000D03*
X22500000Y66430000D03*
X22500000Y46110000D03*
D13*
X22500000Y43570000D03*
D12*
X22500000Y48650000D03*
G04 --- BOARD END --- *
%TF.MD5,dd258283a4cd4b863714c8091e05f2c3*%
M02*
