G04 --- HEADER BEGIN --- *
%TF.GenerationSoftware,LibrePCB,LibrePCB,0.1.3*%
%TF.CreationDate,2020-05-24T18:28:55*%
%TF.ProjectId,SprigZero - default,93c98233-4b04-4051-a125-04f829bd9155,v1*%
%TF.Part,Single*%
%FSLAX66Y66*%
%MOMM*%
G01*
G74*
G04 --- HEADER END --- *
G04 --- APERTURE LIST BEGIN --- *
%ADD10R,1.6X1.2*%
%ADD11R,1.7X1.5*%
%ADD12O,2.7X1.5*%
%ADD13O,1.9X1.3*%
%ADD14O,2.39X1.787*%
%ADD15R,2.39X1.787*%
%ADD16R,2.7X2.7*%
%ADD17R,1.26X0.85*%
%ADD18R,1.787X2.39*%
%ADD19O,1.787X2.39*%
%ADD20R,1.5X1.7*%
%ADD21R,0.9X3.2*%
%ADD22R,1.2X1.6*%
%ADD23R,1.45X0.95*%
%ADD24R,0.4X1.2*%
%ADD25R,1.2X0.4*%
%ADD26O,1.4X2.7*%
%ADD27O,2.0X3.2*%
G04 --- APERTURE LIST END --- *
G04 --- BOARD BEGIN --- *
D10*
X17493750Y53581250D03*
X19693750Y54531250D03*
X17493750Y55481250D03*
D11*
X16796875Y48503125D03*
X16796875Y50403125D03*
D12*
X27937500Y77796875D03*
X27937500Y75796875D03*
D13*
X7506250Y73746875D03*
X7506250Y72346875D03*
D14*
X27968750Y69511250D03*
D15*
X27968750Y72051250D03*
D16*
X18750000Y58353125D03*
X18750000Y65553125D03*
D17*
X12981250Y70012500D03*
X11081250Y70012500D03*
X12981250Y69062500D03*
X11081250Y68112500D03*
X12981250Y68112500D03*
D18*
X15508750Y83046875D03*
D19*
X10428750Y83046875D03*
X12968750Y83046875D03*
D20*
X11184375Y65078125D03*
X9284375Y65078125D03*
D11*
X-687500Y63987500D03*
X-687500Y65887500D03*
D21*
X8421875Y42484375D03*
X6421875Y42484375D03*
X8421875Y60484375D03*
X14421875Y42484375D03*
X6421875Y60484375D03*
X4421875Y42484375D03*
X4421875Y60484375D03*
X14421875Y60484375D03*
X421875Y42484375D03*
X2421875Y42484375D03*
X421875Y60484375D03*
X12421875Y60484375D03*
X2421875Y60484375D03*
X12421875Y42484375D03*
X10421875Y60484375D03*
X10421875Y42484375D03*
D11*
X8828128Y70285937D03*
X8828128Y68385937D03*
D22*
X15846875Y70396875D03*
X16796875Y68196875D03*
X17746875Y70396875D03*
D23*
X20000000Y77696875D03*
X20000000Y79646875D03*
D24*
X3692500Y72927500D03*
X2192500Y72927500D03*
X4692500Y66627500D03*
D25*
X6092500Y69527500D03*
D24*
X1692500Y66627500D03*
D25*
X-207500Y68527500D03*
X-207500Y68027500D03*
X-207500Y69027500D03*
X-207500Y71027500D03*
X6092500Y70527500D03*
X6092500Y69027500D03*
D24*
X1192500Y66627500D03*
D25*
X-207500Y69527500D03*
X-207500Y71527500D03*
X6092500Y70027500D03*
D24*
X2192500Y66627500D03*
X3192500Y66627500D03*
X4692500Y72927500D03*
D25*
X-207500Y70027500D03*
X-207500Y70527500D03*
D24*
X1692500Y72927500D03*
X3192500Y72927500D03*
X4192500Y66627500D03*
D25*
X6092500Y71527500D03*
X6092500Y68527500D03*
D24*
X1192500Y72927500D03*
D25*
X6092500Y71027500D03*
D24*
X2692500Y66627500D03*
X2692500Y72927500D03*
X4192500Y72927500D03*
X3692500Y66627500D03*
D25*
X6092500Y68027500D03*
D19*
X11948750Y78105000D03*
X9408750Y78105000D03*
X4328750Y78105000D03*
X14488750Y78105000D03*
X1788750Y78105000D03*
D18*
X17028750Y78105000D03*
D19*
X6868750Y78105000D03*
X-751250Y78105000D03*
D18*
X-1231250Y41575000D03*
D26*
X4975350Y82656250D03*
D27*
X7070850Y82656250D03*
X-1133350Y82656250D03*
D26*
X2968750Y82656250D03*
X962150Y82656250D03*
D12*
X23423750Y76949375D03*
X23423750Y72949375D03*
X23423750Y70949375D03*
X23423750Y74949375D03*
D26*
X21352775Y82734375D03*
D27*
X19257275Y82734375D03*
X27461475Y82734375D03*
D26*
X23359375Y82734375D03*
X25365975Y82734375D03*
D14*
X22500000Y53730000D03*
X22500000Y63890000D03*
X22500000Y61350000D03*
X22500000Y56270000D03*
X22500000Y58810000D03*
X22500000Y51190000D03*
X22500000Y66430000D03*
X22500000Y46110000D03*
D15*
X22500000Y43570000D03*
D14*
X22500000Y48650000D03*
G04 --- BOARD END --- *
%TF.MD5,dbbecdf5792d9bf8ae1f77dff5a66165*%
M02*
