G04 --- HEADER BEGIN --- *
%TF.GenerationSoftware,LibrePCB,LibrePCB,0.1.3*%
%TF.CreationDate,2020-05-24T18:28:55*%
%TF.ProjectId,SprigZero - default,93c98233-4b04-4051-a125-04f829bd9155,v1*%
%TF.Part,Single*%
%FSLAX66Y66*%
%MOMM*%
G01*
G74*
G04 --- HEADER END --- *
G04 --- APERTURE LIST BEGIN --- *
%ADD10R,1.4X1.0*%
%ADD11R,1.5X1.3*%
%ADD12O,2.5X1.3*%
%ADD13O,1.7X1.1*%
%ADD14O,2.19X1.587*%
%ADD15R,2.19X1.587*%
%ADD16R,2.5X2.5*%
%ADD17R,1.06X0.65*%
%ADD18R,1.587X2.19*%
%ADD19O,1.587X2.19*%
%ADD20R,1.3X1.5*%
%ADD21R,0.7X3.0*%
%ADD22R,1.0X1.4*%
%ADD23R,1.25X0.75*%
%ADD24R,0.2X1.0*%
%ADD25R,1.0X0.2*%
%ADD26O,1.2X2.5*%
%ADD27O,1.8X3.0*%
%ADD28C,0.7*%
%ADD29C,1.0*%
%ADD30C,0.3*%
%ADD31C,0.2*%
%ADD32C,0.4*%
%ADD33C,0.8*%
%ADD34C,1.1*%
%ADD35C,0.6*%
%ADD36C,0.5*%
%ADD37C,0.0*%
G04 --- APERTURE LIST END --- *
G04 --- BOARD BEGIN --- *
D10*
X17493750Y53581250D03*
X19693750Y54531250D03*
X17493750Y55481250D03*
D11*
X16796875Y48503125D03*
X16796875Y50403125D03*
D12*
X27937500Y77796875D03*
X27937500Y75796875D03*
D13*
X7506250Y73746875D03*
X7506250Y72346875D03*
D14*
X27968750Y69511250D03*
D15*
X27968750Y72051250D03*
D16*
X18750000Y58353125D03*
X18750000Y65553125D03*
D17*
X12981250Y70012500D03*
X11081250Y70012500D03*
X12981250Y69062500D03*
X11081250Y68112500D03*
X12981250Y68112500D03*
D18*
X15508750Y83046875D03*
D19*
X10428750Y83046875D03*
X12968750Y83046875D03*
D20*
X11184375Y65078125D03*
X9284375Y65078125D03*
D11*
X-687500Y63987500D03*
X-687500Y65887500D03*
D21*
X8421875Y42484375D03*
X6421875Y42484375D03*
X8421875Y60484375D03*
X14421875Y42484375D03*
X6421875Y60484375D03*
X4421875Y42484375D03*
X4421875Y60484375D03*
X14421875Y60484375D03*
X421875Y42484375D03*
X2421875Y42484375D03*
X421875Y60484375D03*
X12421875Y60484375D03*
X2421875Y60484375D03*
X12421875Y42484375D03*
X10421875Y60484375D03*
X10421875Y42484375D03*
D11*
X8828128Y70285937D03*
X8828128Y68385937D03*
D22*
X15846875Y70396875D03*
X16796875Y68196875D03*
X17746875Y70396875D03*
D23*
X20000000Y77696875D03*
X20000000Y79646875D03*
D24*
X3692500Y72927500D03*
X2192500Y72927500D03*
X4692500Y66627500D03*
D25*
X6092500Y69527500D03*
D24*
X1692500Y66627500D03*
D25*
X-207500Y68527500D03*
X-207500Y68027500D03*
X-207500Y69027500D03*
X-207500Y71027500D03*
X6092500Y70527500D03*
X6092500Y69027500D03*
D24*
X1192500Y66627500D03*
D25*
X-207500Y69527500D03*
X-207500Y71527500D03*
X6092500Y70027500D03*
D24*
X2192500Y66627500D03*
X3192500Y66627500D03*
X4692500Y72927500D03*
D25*
X-207500Y70027500D03*
X-207500Y70527500D03*
D24*
X1692500Y72927500D03*
X3192500Y72927500D03*
X4192500Y66627500D03*
D25*
X6092500Y71527500D03*
X6092500Y68527500D03*
D24*
X1192500Y72927500D03*
D25*
X6092500Y71027500D03*
D24*
X2692500Y66627500D03*
X2692500Y72927500D03*
X4192500Y72927500D03*
X3692500Y66627500D03*
D25*
X6092500Y68027500D03*
D19*
X11948750Y78105000D03*
X9408750Y78105000D03*
X4328750Y78105000D03*
X14488750Y78105000D03*
X1788750Y78105000D03*
D18*
X17028750Y78105000D03*
D19*
X6868750Y78105000D03*
X-751250Y78105000D03*
D18*
X-1231250Y41575000D03*
D26*
X4975350Y82656250D03*
D27*
X7070850Y82656250D03*
X-1133350Y82656250D03*
D26*
X2968750Y82656250D03*
X962150Y82656250D03*
D12*
X23423750Y76949375D03*
X23423750Y72949375D03*
X23423750Y70949375D03*
X23423750Y74949375D03*
D26*
X21352775Y82734375D03*
D27*
X19257275Y82734375D03*
X27461475Y82734375D03*
D26*
X23359375Y82734375D03*
X25365975Y82734375D03*
D14*
X22500000Y53730000D03*
X22500000Y63890000D03*
X22500000Y61350000D03*
X22500000Y56270000D03*
X22500000Y58810000D03*
X22500000Y51190000D03*
X22500000Y66430000D03*
X22500000Y46110000D03*
D15*
X22500000Y43570000D03*
D14*
X22500000Y48650000D03*
D28*
X16250000Y66328125D03*
X3359375Y69375000D03*
X5312500Y65625000D03*
X9687500Y71484375D03*
X14921875Y71875000D03*
X16328125Y46718750D03*
X16171875Y61406250D03*
X8398437Y44726561D03*
X2890625Y74453125D03*
X14140625Y72734374D03*
X-640625Y62578125D03*
X3554688Y64531251D03*
X-1640625Y46718750D03*
X8906250Y45937500D03*
X-1562500Y70937500D03*
X21640625Y68437500D03*
X15625000Y67656250D03*
X12812500Y66406250D03*
X1406250Y65390625D03*
X16796875Y57109375D03*
X16406250Y71875000D03*
X12812500Y74296875D03*
X19453125Y69687500D03*
X-781250Y67156250D03*
X2265625Y64453125D03*
X3984375Y73984375D03*
X9921875Y68281250D03*
X7656250Y66445312D03*
X7187500Y67812500D03*
X7265625Y70468750D03*
X18359375Y62265625D03*
X12890625Y71093750D03*
X8593750Y67070314D03*
X16562500Y65390625D03*
X2656250Y68750000D03*
X3671875Y65468750D03*
X1906250Y68218750D03*
X5468750Y73906250D03*
X-937500Y73828125D03*
X8203125Y62578125D03*
X-507811Y72304685D03*
X19062500Y60468750D03*
X-1171875Y59843750D03*
X18906250Y51875000D03*
X11953125Y69062500D03*
X6328125Y65937500D03*
D29*
X27968750Y72051250D02*
X27890625Y72207500D01*
D30*
X27968750Y72051250D02*
X27656250Y73828125D01*
D29*
X27890625Y72207500D02*
X27890625Y74218750D01*
X27890625Y74218750D02*
X28125000Y74453125D01*
X27937500Y75796875D02*
X27890625Y74218750D01*
D31*
X16406250Y66484375D02*
X17109375Y67109375D01*
X16250000Y66328125D02*
X16406250Y66484375D01*
X22343750Y66250000D02*
X21953125Y67265625D01*
X4218750Y67812500D02*
X4218750Y66562500D01*
X1562500Y69062500D02*
X2187500Y69218750D01*
X3750000Y68515625D02*
X4218750Y67812500D01*
X4192500Y66627500D02*
X4218750Y66562500D01*
X4218750Y66562500D02*
X4218750Y65937500D01*
X3359375Y69375000D02*
X3750000Y68515625D01*
X21953125Y67265625D02*
X17890625Y67265625D01*
X2500000Y69531250D02*
X3281250Y69531250D01*
X-207500Y68527500D02*
X715000Y68527500D01*
X4218750Y65937500D02*
X4609375Y65546875D01*
X17109375Y67109375D02*
X17890625Y67265625D01*
X715000Y68527500D02*
X1562500Y69062500D01*
X2187500Y69218750D02*
X2500000Y69531250D01*
X4609375Y65546875D02*
X5312500Y65625000D01*
X22500000Y66430000D02*
X22343750Y66250000D01*
X3281250Y69531250D02*
X3359375Y69375000D01*
D30*
X17598125Y78105000D02*
X17656250Y78046875D01*
X17028750Y78105000D02*
X16872500Y76403750D01*
X17028750Y78105000D02*
X17598125Y78105000D01*
X16872500Y76403750D02*
X17421875Y76250000D01*
D31*
X6092500Y70027500D02*
X6120000Y70000000D01*
X6824375Y70027500D02*
X7187500Y70390625D01*
X6718750Y70000000D02*
X6092500Y70027500D01*
X6718750Y70000000D02*
X6824375Y70027500D01*
X6718750Y70000000D02*
X6120000Y70000000D01*
X16718750Y47031250D02*
X16328125Y46718750D01*
D28*
X12968750Y83046875D02*
X12968750Y82031250D01*
D31*
X16796875Y48503125D02*
X16796875Y47187500D01*
D32*
X10781250Y69140625D02*
X10312500Y69218750D01*
D33*
X21640625Y72968750D02*
X23359375Y72968750D01*
D31*
X8421875Y42484375D02*
X8398437Y44726561D01*
X-207500Y71027500D02*
X691250Y71027500D01*
D30*
X15000000Y72031250D02*
X14843750Y71406250D01*
D34*
X16718750Y47031250D02*
X16328125Y46718750D01*
D31*
X5000000Y69687500D02*
X5156250Y69531250D01*
D33*
X23359375Y72968750D02*
X23423750Y72949375D01*
D30*
X16171875Y61406250D02*
X14843750Y63046875D01*
D31*
X691250Y71027500D02*
X937500Y70937500D01*
D35*
X18593750Y77656250D02*
X18593750Y73828125D01*
D31*
X16718750Y47031250D02*
X16796875Y47187500D01*
X6092500Y69527500D02*
X7581875Y69527500D01*
D30*
X14843750Y63046875D02*
X14843750Y63125000D01*
D35*
X14218750Y79921875D02*
X13046875Y80859375D01*
D30*
X20000000Y77696875D02*
X18593750Y77656250D01*
D28*
X12968750Y82031250D02*
X13046875Y80859375D01*
D35*
X18593750Y73828125D02*
X21640625Y72968750D01*
D30*
X14843750Y63125000D02*
X14765625Y63984375D01*
D31*
X5000000Y70468750D02*
X5000000Y69687500D01*
D33*
X14723125Y74105000D02*
X18750000Y74140625D01*
D30*
X23423750Y72949375D02*
X22441250Y73105625D01*
X14723125Y74105000D02*
X15000000Y72656250D01*
D35*
X18593750Y79843750D02*
X14488750Y79879375D01*
D29*
X14488750Y78105000D02*
X14488750Y79879375D01*
D31*
X6093750Y69531250D02*
X6092500Y69527500D01*
X8828128Y70285937D02*
X9687500Y71484375D01*
D30*
X14488750Y79879375D02*
X15546875Y79687500D01*
D32*
X10312500Y69218750D02*
X8828128Y70285937D01*
D31*
X4687500Y70781250D02*
X5058750Y70527500D01*
X6092500Y70527500D02*
X5058750Y70527500D01*
D32*
X4609375Y70937500D02*
X4687500Y70781250D01*
D30*
X14921875Y71875000D02*
X15000000Y72031250D01*
D32*
X937500Y70937500D02*
X4609375Y70937500D01*
D35*
X18593750Y77656250D02*
X18593750Y79843750D01*
D33*
X21640625Y72968750D02*
X18750000Y74140625D01*
D31*
X5156250Y69531250D02*
X6093750Y69531250D01*
D30*
X15000000Y72031250D02*
X15000000Y72656250D01*
D31*
X8828128Y70285937D02*
X7581875Y69527500D01*
D29*
X14488750Y79879375D02*
X13046875Y80859375D01*
D32*
X11081250Y68112500D02*
X10781250Y69140625D01*
D31*
X5058750Y70527500D02*
X5000000Y70468750D01*
D30*
X14843750Y71406250D02*
X14765625Y63984375D01*
D31*
X2890625Y74453125D02*
X3125000Y74687500D01*
X4692500Y72927500D02*
X4687500Y74687500D01*
X3125000Y74687500D02*
X4687500Y74687500D01*
D32*
X9284375Y65078125D02*
X9296875Y63515625D01*
X9284375Y65078125D02*
X7890625Y65078125D01*
X9284375Y65078125D02*
X9296875Y66328125D01*
D31*
X6868750Y78105000D02*
X5468750Y75781250D01*
X1192500Y72927500D02*
X1114375Y74786250D01*
X14296875Y64140625D02*
X12421875Y62812500D01*
X14296875Y71718750D02*
X14296875Y64140625D01*
X12421875Y60484375D02*
X12421875Y62812500D01*
X1114375Y74786250D02*
X1875000Y75781250D01*
X14140625Y72734374D02*
X14296875Y71718750D01*
X1875000Y75781250D02*
X5468750Y75781250D01*
X16796875Y50403125D02*
X13371875Y50403125D01*
X13371875Y50403125D02*
X11562500Y48593750D01*
X16796875Y50403125D02*
X16718750Y52265625D01*
X16796875Y50403125D02*
X18671875Y50546875D01*
X16796875Y50403125D02*
X15078125Y50312500D01*
X-1468750Y69000000D02*
X-1468750Y67375000D01*
X-1468750Y66750000D02*
X-1312500Y66437500D01*
X-207500Y70027500D02*
X-941250Y70027500D01*
X-941250Y70027500D02*
X-1468750Y69000000D01*
X-1468750Y67375000D02*
X-1468750Y66750000D01*
X-687500Y65887500D02*
X-1312500Y66437500D01*
X2692500Y65276250D02*
X3750000Y64375000D01*
X-207500Y68027500D02*
X1097500Y68027500D01*
D30*
X-640625Y62578125D02*
X-187500Y62937500D01*
D31*
X2687500Y66625000D02*
X2692500Y66627500D01*
X3554688Y64531251D02*
X3750000Y64375000D01*
D30*
X4062500Y64062500D02*
X3750000Y64375000D01*
X4062500Y63125000D02*
X4062500Y64062500D01*
D31*
X1097500Y68027500D02*
X1625000Y67500000D01*
D30*
X-187500Y62937500D02*
X1250000Y63062500D01*
D31*
X2687500Y67187500D02*
X2687500Y66625000D01*
X3554688Y64531251D02*
X3475805Y64570315D01*
X2375000Y67500000D02*
X2687500Y67187500D01*
D30*
X3750000Y63125000D02*
X4062500Y63125000D01*
X1250000Y63062500D02*
X3750000Y63125000D01*
D31*
X2692500Y66627500D02*
X2692500Y65276250D01*
X1625000Y67500000D02*
X2375000Y67500000D01*
X3475805Y64570315D02*
X3750000Y64375000D01*
X7506250Y73746875D02*
X6092500Y72811250D01*
X6092500Y71527500D02*
X6092500Y72811250D01*
X3692500Y72927500D02*
X3671875Y71796875D01*
X1015625Y71562500D02*
X3437500Y71562500D01*
X-1328125Y72812500D02*
X-156250Y73203125D01*
D30*
X8906250Y45937500D02*
X10390625Y44531250D01*
D31*
X-156250Y73203125D02*
X312500Y72578125D01*
D30*
X10421875Y42484375D02*
X10390625Y44531250D01*
D31*
X-1562500Y70937500D02*
X-1328125Y72812500D01*
X3437500Y71562500D02*
X3671875Y71796875D01*
X312500Y72578125D02*
X1015625Y71562500D01*
X-207500Y69527500D02*
X785000Y69527500D01*
X785000Y69527500D02*
X859375Y69453125D01*
D30*
X20000000Y79646875D02*
X22265625Y79609375D01*
X22265625Y79609375D02*
X23359375Y80546875D01*
X23359375Y82734375D02*
X23359375Y80546875D01*
D33*
X6992725Y80351025D02*
X7031250Y80312500D01*
X6992725Y83554150D02*
X6171875Y84062500D01*
X7070850Y82656250D02*
X6992725Y80351025D01*
X7070850Y82656250D02*
X6992725Y82930225D01*
X7070850Y82656250D02*
X6992725Y83554150D01*
X6992725Y82930225D02*
X8125000Y83906250D01*
D30*
X11184375Y65078125D02*
X12343750Y65078125D01*
D28*
X24375000Y68359375D02*
X24609375Y67812500D01*
D30*
X18750000Y65553125D02*
X21015625Y65234375D01*
D28*
X16796875Y68196875D02*
X18593750Y68125000D01*
X24609375Y67812500D02*
X24609375Y65156250D01*
D31*
X16796875Y68196875D02*
X15625000Y67656250D01*
D30*
X21015625Y65234375D02*
X21640625Y65156250D01*
X12343750Y65078125D02*
X12812500Y65546875D01*
X12981250Y68112500D02*
X12812500Y66406250D01*
D28*
X21640625Y68437500D02*
X24375000Y68359375D01*
D30*
X12812500Y65546875D02*
X12812500Y66406250D01*
X21640625Y65156250D02*
X24609375Y65156250D01*
D28*
X21640625Y68437500D02*
X18593750Y68125000D01*
D31*
X13578125Y60484375D02*
X13437500Y60625000D01*
X14421875Y60484375D02*
X15453125Y60484375D01*
X14421875Y60484375D02*
X14453125Y57343750D01*
X14421875Y60484375D02*
X13578125Y60484375D01*
X15453125Y60484375D02*
X15468750Y60468750D01*
D30*
X14973750Y59870000D02*
X15156250Y59687500D01*
D31*
X17493750Y55481250D02*
X17025000Y56100000D01*
X17025000Y56100000D02*
X16796875Y57109375D01*
X1692500Y65755000D02*
X1406250Y65390625D01*
X1692500Y66627500D02*
X1692500Y65755000D01*
X17493750Y53581250D02*
X15078125Y53437500D01*
D35*
X16406250Y71875000D02*
X18828125Y71875000D01*
D30*
X23970625Y70795000D02*
X22031250Y70546875D01*
X22550947Y70988429D02*
X20429698Y70937487D01*
X23423750Y70949375D02*
X21706875Y70949375D01*
X23423750Y70949375D02*
X22550947Y70988429D01*
D35*
X18828125Y71875000D02*
X21706875Y70949375D01*
D30*
X23423750Y70949375D02*
X23970625Y70795000D01*
X21706875Y70949375D02*
X19531250Y71250000D01*
X23423750Y70949375D02*
X24831875Y70168125D01*
X24831875Y70168125D02*
X23125000Y70625000D01*
D31*
X13828125Y71640625D02*
X13828125Y64843750D01*
X2265625Y75234375D02*
X6250000Y75234375D01*
X6250000Y75234375D02*
X7500000Y76328125D01*
X7890625Y76796875D02*
X8125000Y76796875D01*
X10395625Y62573125D02*
X13828125Y64843750D01*
X7500000Y76328125D02*
X7421875Y76328125D01*
X8125000Y76796875D02*
X9408750Y78105000D01*
X12812500Y74296875D02*
X13828125Y71640625D01*
X7421875Y76328125D02*
X7890625Y76796875D01*
X10421875Y60484375D02*
X10395625Y62573125D01*
X1692500Y72927500D02*
X1692500Y74505000D01*
X1692500Y74505000D02*
X2265625Y75234375D01*
D36*
X19453125Y69687500D02*
X18515625Y69687500D01*
X17812500Y70390625D02*
X16328125Y70390625D01*
D31*
X15846875Y70396875D02*
X16328125Y70390625D01*
D36*
X17746875Y70396875D02*
X16328125Y70390625D01*
X18515625Y69687500D02*
X17812500Y70390625D01*
D31*
X-1062500Y68750000D02*
X-1062500Y67187500D01*
X-207500Y69027500D02*
X-722500Y69027500D01*
X-1062500Y67187500D02*
X-781250Y67156250D01*
X-722500Y69027500D02*
X-1062500Y68750000D01*
D30*
X22500000Y51190000D02*
X24002500Y51190000D01*
D31*
X437500Y66562500D02*
X1187500Y66562500D01*
X375000Y65187500D02*
X375000Y66437500D01*
X2265625Y64453125D02*
X1046875Y64453125D01*
X2192500Y66627500D02*
X2265625Y64453125D01*
D30*
X25468750Y52656250D02*
X26093750Y53984375D01*
D31*
X1192500Y66627500D02*
X1187500Y66562500D01*
D30*
X26093750Y53984375D02*
X26015625Y65312500D01*
X26015625Y65312500D02*
X25546875Y68125000D01*
D31*
X1046875Y64453125D02*
X375000Y65187500D01*
D30*
X22500000Y51190000D02*
X21190000Y51190000D01*
D31*
X375000Y66437500D02*
X437500Y66562500D01*
D30*
X24002500Y51190000D02*
X24218750Y51406250D01*
X24002500Y51190000D02*
X25468750Y52656250D01*
D31*
X23423750Y74949375D02*
X25441250Y74011875D01*
X25703125Y73125000D02*
X25441250Y74011875D01*
D30*
X25546875Y68125000D02*
X25703125Y73125000D01*
D31*
X4192500Y72927500D02*
X4192500Y74010625D01*
X4192500Y74010625D02*
X3984375Y73984375D01*
X8828128Y68385937D02*
X7456875Y68949375D01*
D35*
X9921875Y68281250D02*
X9921875Y67265625D01*
D31*
X6092500Y69027500D02*
X5043125Y69027500D01*
X8828128Y68385937D02*
X9035941Y68828125D01*
X6092500Y69027500D02*
X7456875Y68949375D01*
X5043125Y69027500D02*
X5000000Y68984375D01*
D35*
X9921875Y68281250D02*
X8828128Y68385937D01*
D31*
X6875000Y64531250D02*
X7656250Y66445312D01*
X6092500Y68527500D02*
X6953125Y68515625D01*
X6953125Y68515625D02*
X7187500Y67812500D01*
X6317500Y63739375D02*
X6875000Y64531250D01*
D30*
X6421875Y60484375D02*
X6317500Y63739375D01*
D32*
X421875Y61062500D02*
X1375000Y61062500D01*
X421875Y60484375D02*
X390625Y58125000D01*
D30*
X317500Y62260625D02*
X906250Y62375000D01*
D32*
X421875Y61062500D02*
X-1187500Y61062500D01*
X421875Y60484375D02*
X317500Y62260625D01*
X421875Y60484375D02*
X421875Y61062500D01*
D35*
X22500000Y46110000D02*
X24124375Y46110000D01*
X22500000Y46110000D02*
X22500000Y44921875D01*
X22500000Y46110000D02*
X20563125Y46110000D01*
X20563125Y46110000D02*
X20546875Y46093750D01*
X24124375Y46110000D02*
X24140625Y46093750D01*
X22500000Y46110000D02*
X22500000Y46718750D01*
D31*
X22500000Y46110000D02*
X20312500Y46250000D01*
D33*
X884025Y80600350D02*
X937500Y80546875D01*
X962150Y82656250D02*
X884025Y80600350D01*
X962150Y84115975D02*
X859375Y84062500D01*
X962150Y84115975D02*
X884025Y83930900D01*
X962150Y82656250D02*
X962150Y84115975D01*
X962150Y84115975D02*
X884025Y83930900D01*
D30*
X-687500Y63987500D02*
X-1375000Y63300000D01*
X-1375000Y63300000D02*
X-1375000Y60750000D01*
D33*
X-1211475Y80351025D02*
X-1250000Y80312500D01*
X-1133350Y82656250D02*
X-1211475Y83476025D01*
X-1211475Y83476025D02*
X-234375Y84140625D01*
X-1133350Y82656250D02*
X-1211475Y80351025D01*
D32*
X22500000Y48650000D02*
X27656250Y48593750D01*
X26328125Y67890625D02*
X26328125Y73515625D01*
X27343750Y67343750D02*
X26328125Y67890625D01*
X27656250Y48593750D02*
X27343750Y67343750D01*
X25859375Y76875000D02*
X27937500Y77796875D01*
D31*
X27937500Y77796875D02*
X25312500Y79453125D01*
D33*
X25365975Y82734375D02*
X25312500Y79453125D01*
D32*
X26328125Y73515625D02*
X25859375Y76875000D01*
D33*
X25468750Y79453125D02*
X25312500Y79453125D01*
D30*
X12981250Y70012500D02*
X12890625Y71093750D01*
D31*
X4692500Y66627500D02*
X4908750Y66783750D01*
X4908750Y66783750D02*
X6718750Y67109375D01*
X6718750Y67109375D02*
X8593750Y67070314D01*
X3692500Y66627500D02*
X3671875Y65468750D01*
X16562500Y65390625D02*
X17187500Y63906250D01*
X2656250Y68906250D02*
X2656250Y68750000D01*
X22500000Y63890000D02*
X17187500Y63906250D01*
X3692500Y67557500D02*
X2656250Y68750000D01*
X3692500Y66627500D02*
X3692500Y67557500D01*
D30*
X2421875Y42484375D02*
X2343750Y45312500D01*
X2421875Y42484375D02*
X2343750Y42421875D01*
X2421875Y42484375D02*
X2421875Y40546875D01*
X2421875Y42484375D02*
X3046875Y42500000D01*
D31*
X8750000Y75156250D02*
X7812500Y75156250D01*
X2531250Y67906250D02*
X1906250Y68218750D01*
X3192500Y66627500D02*
X3192500Y67432500D01*
X11948750Y78105000D02*
X11948750Y76636250D01*
X2968750Y67656250D02*
X2531250Y67906250D01*
X7031250Y74843750D02*
X6093750Y74531250D01*
X5468750Y73906250D02*
X5468750Y73906250D01*
X7812500Y75156250D02*
X7031250Y74843750D01*
X11948750Y76636250D02*
X11718750Y76406250D01*
X3192500Y67432500D02*
X2968750Y67656250D01*
X10000000Y76406250D02*
X8750000Y75156250D01*
X11718750Y76406250D02*
X10000000Y76406250D01*
X6093750Y74531250D02*
X5468750Y73906250D01*
X-390625Y74453125D02*
X1406250Y76250000D01*
X-390625Y74453125D02*
X-520000Y74401875D01*
X-507811Y72304685D02*
X-507799Y72266550D01*
X8395625Y62458125D02*
X8203125Y62578125D01*
X1406250Y76250000D02*
X3750000Y76250000D01*
X-390625Y74453125D02*
X-937500Y73828125D01*
X4328750Y78105000D02*
X3750000Y76250000D01*
X-507799Y72266550D02*
X-207500Y71527500D01*
D30*
X8421875Y60484375D02*
X8395625Y62458125D01*
D36*
X19062500Y60468750D02*
X16484375Y60234375D01*
X19062500Y60468750D02*
X18671875Y59921875D01*
X18671875Y59921875D02*
X19453125Y59921875D01*
X19062500Y60468750D02*
X19453125Y59921875D01*
X18750000Y58353125D02*
X18671875Y59921875D01*
D31*
X-1468750Y70062500D02*
X-1156250Y70375000D01*
X20937500Y58593750D02*
X20937500Y55000000D01*
X-1812500Y65843750D02*
X-1875000Y66125000D01*
X-207500Y70527500D02*
X-187500Y70500000D01*
X-1812500Y65843750D02*
X-1890625Y60218750D01*
X-1890625Y60218750D02*
X-1640625Y59843750D01*
X-812500Y70500000D02*
X-187500Y70500000D01*
X20937500Y54687500D02*
X20937500Y53125000D01*
X-1875000Y66125000D02*
X-1875000Y66437500D01*
X-1640625Y59843750D02*
X-1171875Y59843750D01*
X-1875000Y69187500D02*
X-1625000Y69750000D01*
X21466250Y58810000D02*
X20937500Y58593750D01*
X18906250Y51875000D02*
X19687500Y51875000D01*
X-1875000Y66437500D02*
X-1875000Y69187500D01*
X22500000Y58810000D02*
X21466250Y58810000D01*
X19687500Y51875000D02*
X20937500Y53125000D01*
X-1156250Y70375000D02*
X-812500Y70500000D01*
X-1625000Y69750000D02*
X-1468750Y70062500D01*
X20937500Y55000000D02*
X20937500Y54687500D01*
D30*
X-1231250Y41575000D02*
X421875Y42484375D01*
D32*
X10234375Y72890625D02*
X9218750Y72812500D01*
X12031250Y68984375D02*
X12031250Y71250000D01*
D31*
X9218750Y72812500D02*
X8515625Y71562500D01*
D32*
X12031250Y68984375D02*
X11953125Y69062500D01*
X12031250Y71250000D02*
X10234375Y72890625D01*
D31*
X8515625Y71562500D02*
X7578125Y71171875D01*
D32*
X12981250Y69062500D02*
X12031250Y68984375D01*
X12031250Y68984375D02*
X12031250Y67265625D01*
D31*
X6652500Y71027500D02*
X7265625Y71640625D01*
X7506250Y72346875D02*
X7265625Y72109375D01*
X6092500Y71027500D02*
X6652500Y71027500D01*
X7265625Y71640625D02*
X7265625Y72109375D01*
D37*
G36*
X4030891Y83519338D02*
X4067744Y83571166D01*
X4096236Y83665094D01*
X4099981Y83674134D01*
X4183138Y83829711D01*
X4188569Y83837838D01*
X4300477Y83974198D01*
X4307401Y83981122D01*
X4443761Y84093030D01*
X4451888Y84098461D01*
X4607465Y84181618D01*
X4616503Y84185362D01*
X4785312Y84236570D01*
X4794907Y84238478D01*
X4970456Y84255768D01*
X4980244Y84255768D01*
X5155792Y84238478D01*
X5165387Y84236570D01*
X5334196Y84185362D01*
X5343234Y84181618D01*
X5498811Y84098461D01*
X5506938Y84093030D01*
X5643298Y83981122D01*
X5650222Y83974198D01*
X5762130Y83837838D01*
X5767563Y83829707D01*
X5778336Y83809552D01*
X5823500Y83766422D01*
X5885445Y83758497D01*
X5957159Y83814429D01*
X5986474Y83877295D01*
X5990822Y83884826D01*
X6110790Y84056158D01*
X6116379Y84062819D01*
X6264282Y84210722D01*
X6270941Y84216309D01*
X6442272Y84336276D01*
X6449804Y84340625D01*
X6639369Y84429021D01*
X6647538Y84431994D01*
X6727452Y84453407D01*
X6779711Y84487598D01*
X6801495Y84546125D01*
X6784308Y84606164D01*
X6734854Y84644298D01*
X6701570Y84650000D01*
X-764070Y84650000D01*
X-823397Y84630500D01*
X-859587Y84579605D01*
X-858525Y84517164D01*
X-820626Y84467529D01*
X-789952Y84453407D01*
X-710038Y84431994D01*
X-701869Y84429021D01*
X-512304Y84340625D01*
X-504772Y84336276D01*
X-333441Y84216309D01*
X-326782Y84210722D01*
X-178879Y84062819D01*
X-173290Y84056158D01*
X-53322Y83884826D01*
X-48973Y83877293D01*
X-19660Y83814430D01*
X23085Y83768902D01*
X84506Y83757611D01*
X159163Y83809552D01*
X169936Y83829707D01*
X175369Y83837838D01*
X287277Y83974198D01*
X294201Y83981122D01*
X430561Y84093030D01*
X438688Y84098461D01*
X594265Y84181618D01*
X603303Y84185362D01*
X772112Y84236570D01*
X781707Y84238478D01*
X957256Y84255768D01*
X967044Y84255768D01*
X1142592Y84238478D01*
X1152187Y84236570D01*
X1320996Y84185362D01*
X1330034Y84181618D01*
X1485611Y84098461D01*
X1493738Y84093030D01*
X1630098Y83981122D01*
X1637022Y83974198D01*
X1748930Y83837838D01*
X1754361Y83829711D01*
X1837518Y83674134D01*
X1841262Y83665096D01*
X1869756Y83571165D01*
X1905639Y83520053D01*
X1964848Y83500196D01*
X2024291Y83519338D01*
X2061144Y83571166D01*
X2089636Y83665094D01*
X2093381Y83674134D01*
X2176538Y83829711D01*
X2181969Y83837838D01*
X2293877Y83974198D01*
X2300801Y83981122D01*
X2437161Y84093030D01*
X2445288Y84098461D01*
X2600865Y84181618D01*
X2609903Y84185362D01*
X2778712Y84236570D01*
X2788307Y84238478D01*
X2963856Y84255768D01*
X2973644Y84255768D01*
X3149192Y84238478D01*
X3158787Y84236570D01*
X3327596Y84185362D01*
X3336634Y84181618D01*
X3492211Y84098461D01*
X3500338Y84093030D01*
X3636698Y83981122D01*
X3643622Y83974198D01*
X3755530Y83837838D01*
X3760961Y83829711D01*
X3844118Y83674134D01*
X3847862Y83665096D01*
X3876356Y83571165D01*
X3912239Y83520053D01*
X3971448Y83500196D01*
X4030891Y83519338D01*
G37*
G36*
X-2017164Y84147606D02*
X-1979289Y84171350D01*
X-1939919Y84210720D01*
X-1933258Y84216309D01*
X-1761926Y84336277D01*
X-1754395Y84340625D01*
X-1564830Y84429021D01*
X-1556661Y84431994D01*
X-1476747Y84453407D01*
X-1424488Y84487598D01*
X-1402704Y84546125D01*
X-1419891Y84606164D01*
X-1469345Y84644298D01*
X-1502629Y84650000D01*
X-2050000Y84650000D01*
X-2109327Y84630500D01*
X-2150000Y84550000D01*
X-2150000Y84242061D01*
X-2130500Y84182734D01*
X-2079605Y84146544D01*
X-2017164Y84147606D01*
G37*
G36*
X24421515Y83597463D02*
X24458368Y83649290D01*
X24486862Y83743221D01*
X24490606Y83752259D01*
X24573763Y83907836D01*
X24579194Y83915963D01*
X24691102Y84052323D01*
X24698026Y84059247D01*
X24834386Y84171155D01*
X24842513Y84176586D01*
X24998090Y84259743D01*
X25007128Y84263487D01*
X25175937Y84314695D01*
X25185532Y84316603D01*
X25361081Y84333893D01*
X25370869Y84333893D01*
X25546417Y84316603D01*
X25556012Y84314695D01*
X25724821Y84263487D01*
X25733859Y84259743D01*
X25889436Y84176586D01*
X25897563Y84171155D01*
X26033923Y84059247D01*
X26040847Y84052323D01*
X26152755Y83915963D01*
X26158188Y83907832D01*
X26168961Y83887677D01*
X26214125Y83844547D01*
X26276070Y83836622D01*
X26347784Y83892554D01*
X26377099Y83955420D01*
X26381447Y83962951D01*
X26501415Y84134283D01*
X26507004Y84140944D01*
X26654907Y84288847D01*
X26661566Y84294434D01*
X26832897Y84414401D01*
X26840429Y84418750D01*
X26927537Y84459369D01*
X26973065Y84502115D01*
X26984355Y84563536D01*
X26957003Y84619678D01*
X26885275Y84650000D01*
X19833475Y84650000D01*
X19774148Y84630500D01*
X19737958Y84579605D01*
X19739020Y84517164D01*
X19791213Y84459369D01*
X19878320Y84418750D01*
X19885851Y84414402D01*
X20057183Y84294434D01*
X20063844Y84288845D01*
X20211745Y84140944D01*
X20217334Y84134283D01*
X20337302Y83962951D01*
X20341650Y83955420D01*
X20370965Y83892554D01*
X20413711Y83847026D01*
X20475132Y83835736D01*
X20549788Y83887677D01*
X20560561Y83907832D01*
X20565994Y83915963D01*
X20677902Y84052323D01*
X20684826Y84059247D01*
X20821186Y84171155D01*
X20829313Y84176586D01*
X20984890Y84259743D01*
X20993928Y84263487D01*
X21162737Y84314695D01*
X21172332Y84316603D01*
X21347881Y84333893D01*
X21357669Y84333893D01*
X21533217Y84316603D01*
X21542812Y84314695D01*
X21711621Y84263487D01*
X21720659Y84259743D01*
X21876236Y84176586D01*
X21884363Y84171155D01*
X22020723Y84059247D01*
X22027647Y84052323D01*
X22139555Y83915963D01*
X22144986Y83907836D01*
X22228143Y83752259D01*
X22231888Y83743219D01*
X22260380Y83649291D01*
X22296262Y83598178D01*
X22355471Y83578321D01*
X22414915Y83597463D01*
X22451768Y83649290D01*
X22480262Y83743221D01*
X22484006Y83752259D01*
X22567163Y83907836D01*
X22572594Y83915963D01*
X22684502Y84052323D01*
X22691426Y84059247D01*
X22827786Y84171155D01*
X22835913Y84176586D01*
X22991490Y84259743D01*
X23000528Y84263487D01*
X23169337Y84314695D01*
X23178932Y84316603D01*
X23354481Y84333893D01*
X23364269Y84333893D01*
X23539817Y84316603D01*
X23549412Y84314695D01*
X23718221Y84263487D01*
X23727259Y84259743D01*
X23882836Y84176586D01*
X23890963Y84171155D01*
X24027323Y84059247D01*
X24034247Y84052323D01*
X24146155Y83915963D01*
X24151586Y83907836D01*
X24234743Y83752259D01*
X24238488Y83743219D01*
X24266980Y83649291D01*
X24302862Y83598178D01*
X24362071Y83578321D01*
X24421515Y83597463D01*
G37*
G36*
X10161522Y70091385D02*
X10201250Y70171180D01*
X10201250Y70671487D01*
X10202816Y70676252D01*
X10225078Y70687500D01*
X11945237Y70687500D01*
X11964766Y70681081D01*
X11984037Y70661809D01*
X12074230Y70661809D01*
X12125078Y70687500D01*
X12154887Y70687500D01*
X12214214Y70707000D01*
X12250404Y70757895D01*
X12249275Y70820528D01*
X12210031Y70932680D01*
X12207546Y70943570D01*
X12191254Y71088167D01*
X12191254Y71099333D01*
X12207546Y71243929D01*
X12210031Y71254819D01*
X12258092Y71392169D01*
X12262933Y71402222D01*
X12340351Y71525432D01*
X12347314Y71534164D01*
X12450210Y71637060D01*
X12458942Y71644023D01*
X12582152Y71721441D01*
X12592205Y71726282D01*
X12729554Y71774342D01*
X12740446Y71776828D01*
X12885043Y71793121D01*
X12896207Y71793121D01*
X13040803Y71776828D01*
X13051695Y71774342D01*
X13129450Y71747135D01*
X13191889Y71745946D01*
X13242857Y71782032D01*
X13262478Y71841320D01*
X13255883Y71877237D01*
X12598188Y73597365D01*
X12537809Y73656040D01*
X12514077Y73664344D01*
X12504026Y73669184D01*
X12380817Y73746601D01*
X12372085Y73753564D01*
X12269189Y73856460D01*
X12262226Y73865192D01*
X12184808Y73988402D01*
X12179967Y73998455D01*
X12131906Y74135805D01*
X12129421Y74146695D01*
X12113129Y74291292D01*
X12113129Y74302458D01*
X12129421Y74447054D01*
X12131906Y74457944D01*
X12179967Y74595294D01*
X12184808Y74605347D01*
X12262226Y74728557D01*
X12269189Y74737289D01*
X12372085Y74840185D01*
X12380817Y74847148D01*
X12504027Y74924566D01*
X12514080Y74929407D01*
X12651429Y74977467D01*
X12662321Y74979953D01*
X12806918Y74996246D01*
X12818082Y74996246D01*
X12962678Y74979953D01*
X12973570Y74977467D01*
X13110919Y74929407D01*
X13120972Y74924566D01*
X13244182Y74847148D01*
X13252914Y74840185D01*
X13355810Y74737289D01*
X13362773Y74728557D01*
X13440191Y74605347D01*
X13445032Y74595294D01*
X13493092Y74457945D01*
X13495578Y74447053D01*
X13511871Y74302457D01*
X13511871Y74291293D01*
X13495578Y74146696D01*
X13493092Y74135804D01*
X13445033Y73998457D01*
X13443299Y73994856D01*
X13443235Y73993318D01*
X13443178Y73993156D01*
X13443227Y73993139D01*
X13439993Y73915758D01*
X13643162Y73384392D01*
X13682564Y73335942D01*
X13743027Y73320315D01*
X13789771Y73335434D01*
X13832156Y73362067D01*
X13842205Y73366906D01*
X13979554Y73414966D01*
X13990446Y73417453D01*
X14112831Y73431242D01*
X14169603Y73457262D01*
X14199866Y73511889D01*
X14191820Y73573818D01*
X14171718Y73601946D01*
X14144914Y73628280D01*
X14137883Y73636938D01*
X14053333Y73768893D01*
X14048402Y73778907D01*
X13995336Y73926360D01*
X13992756Y73937223D01*
X13973833Y74092787D01*
X13973735Y74103952D01*
X13989901Y74259822D01*
X13992290Y74270733D01*
X14042739Y74419106D01*
X14047491Y74429200D01*
X14129691Y74562629D01*
X14136575Y74571418D01*
X14246401Y74683205D01*
X14255064Y74690240D01*
X14387019Y74774790D01*
X14397033Y74779721D01*
X14544484Y74832786D01*
X14555350Y74835368D01*
X14713703Y74854631D01*
X14719297Y74854995D01*
X17844635Y74882644D01*
X17903787Y74902668D01*
X17943750Y74982640D01*
X17943750Y76560000D01*
X17924250Y76619327D01*
X17843750Y76660000D01*
X15901263Y76660000D01*
X15896498Y76661566D01*
X15885250Y76683828D01*
X15885250Y79118095D01*
X15865750Y79177422D01*
X15786118Y79218091D01*
X15735060Y79218534D01*
X15713022Y79216271D01*
X15594446Y79190586D01*
X15581480Y79189515D01*
X15527878Y79192116D01*
X15467675Y79175515D01*
X15429061Y79126434D01*
X15427095Y79064015D01*
X15443230Y79031970D01*
X15458189Y79012161D01*
X15463031Y79004342D01*
X15552973Y78823712D01*
X15556295Y78815138D01*
X15611514Y78621061D01*
X15613206Y78612012D01*
X15632036Y78408805D01*
X15632250Y78404189D01*
X15632250Y77805811D01*
X15632036Y77801195D01*
X15613206Y77597987D01*
X15611514Y77588938D01*
X15556295Y77394861D01*
X15552973Y77386287D01*
X15463031Y77205657D01*
X15458189Y77197837D01*
X15336591Y77036817D01*
X15330393Y77030017D01*
X15181277Y76894081D01*
X15173931Y76888533D01*
X15002379Y76782312D01*
X14994141Y76778210D01*
X14806000Y76705325D01*
X14797132Y76702801D01*
X14598802Y76665726D01*
X14589637Y76664877D01*
X14387862Y76664877D01*
X14378697Y76665726D01*
X14180367Y76702801D01*
X14171499Y76705325D01*
X13983358Y76778210D01*
X13975120Y76782312D01*
X13803568Y76888533D01*
X13796222Y76894081D01*
X13647106Y77030017D01*
X13640908Y77036817D01*
X13519310Y77197837D01*
X13514468Y77205657D01*
X13424526Y77386287D01*
X13421204Y77394861D01*
X13365985Y77588938D01*
X13364293Y77597987D01*
X13345464Y77801195D01*
X13345250Y77805811D01*
X13345250Y78404189D01*
X13345464Y78408805D01*
X13364293Y78612012D01*
X13365985Y78621061D01*
X13421204Y78815138D01*
X13424526Y78823712D01*
X13514468Y79004342D01*
X13519310Y79012162D01*
X13618551Y79143576D01*
X13638750Y79203840D01*
X13638750Y79376405D01*
X13619250Y79435732D01*
X13594962Y79459110D01*
X12571245Y80154902D01*
X12567066Y80158074D01*
X12437352Y80267701D01*
X12430138Y80275225D01*
X12327658Y80407353D01*
X12322163Y80416216D01*
X12249392Y80566770D01*
X12245863Y80576571D01*
X12205983Y80738968D01*
X12204569Y80749296D01*
X12199324Y80916433D01*
X12200088Y80926821D01*
X12229709Y81091400D01*
X12232619Y81101413D01*
X12295804Y81256222D01*
X12302756Y81269187D01*
X12314406Y81323097D01*
X12283150Y81791935D01*
X12250741Y81859184D01*
X12127106Y81971892D01*
X12120908Y81978692D01*
X11999310Y82139712D01*
X11994468Y82147532D01*
X11904526Y82328162D01*
X11901204Y82336736D01*
X11845985Y82530813D01*
X11844293Y82539862D01*
X11825464Y82743070D01*
X11825250Y82747686D01*
X11825250Y83346064D01*
X11825464Y83350680D01*
X11844293Y83553887D01*
X11845985Y83562936D01*
X11901204Y83757013D01*
X11904526Y83765587D01*
X11994468Y83946217D01*
X11999310Y83954037D01*
X12120908Y84115057D01*
X12127106Y84121857D01*
X12276222Y84257793D01*
X12283568Y84263341D01*
X12455120Y84369562D01*
X12463358Y84373664D01*
X12651499Y84446549D01*
X12660366Y84449072D01*
X12674438Y84451703D01*
X12729172Y84481773D01*
X12755393Y84538451D01*
X12742875Y84599634D01*
X12696500Y84641459D01*
X12656062Y84650000D01*
X10741437Y84650000D01*
X10682110Y84630500D01*
X10645920Y84579605D01*
X10646982Y84517164D01*
X10684881Y84467529D01*
X10723061Y84451703D01*
X10737133Y84449072D01*
X10746000Y84446549D01*
X10934141Y84373664D01*
X10942379Y84369562D01*
X11113931Y84263341D01*
X11121277Y84257793D01*
X11270393Y84121857D01*
X11276591Y84115057D01*
X11398189Y83954037D01*
X11403031Y83946217D01*
X11492973Y83765587D01*
X11496295Y83757013D01*
X11551514Y83562936D01*
X11553206Y83553887D01*
X11572036Y83350680D01*
X11572250Y83346064D01*
X11572250Y82747686D01*
X11572036Y82743070D01*
X11553206Y82539862D01*
X11551514Y82530813D01*
X11496295Y82336736D01*
X11492973Y82328162D01*
X11403031Y82147532D01*
X11398189Y82139712D01*
X11276591Y81978692D01*
X11270393Y81971892D01*
X11121277Y81835956D01*
X11113931Y81830408D01*
X10942379Y81724187D01*
X10934141Y81720085D01*
X10746000Y81647200D01*
X10737132Y81644676D01*
X10538802Y81607601D01*
X10529637Y81606752D01*
X10327862Y81606752D01*
X10318697Y81607601D01*
X10120367Y81644676D01*
X10111499Y81647200D01*
X9923358Y81720085D01*
X9915120Y81724187D01*
X9743568Y81830408D01*
X9736222Y81835956D01*
X9587106Y81971892D01*
X9580908Y81978692D01*
X9459310Y82139712D01*
X9454468Y82147532D01*
X9364526Y82328162D01*
X9361204Y82336736D01*
X9305985Y82530813D01*
X9304293Y82539862D01*
X9285464Y82743070D01*
X9285250Y82747686D01*
X9285250Y83346064D01*
X9285464Y83350680D01*
X9304293Y83553887D01*
X9305985Y83562936D01*
X9361204Y83757013D01*
X9364526Y83765587D01*
X9454468Y83946217D01*
X9459310Y83954037D01*
X9580908Y84115057D01*
X9587106Y84121857D01*
X9736222Y84257793D01*
X9743568Y84263341D01*
X9915120Y84369562D01*
X9923358Y84373664D01*
X10111499Y84446549D01*
X10120366Y84449072D01*
X10134438Y84451703D01*
X10189172Y84481773D01*
X10215393Y84538451D01*
X10202875Y84599634D01*
X10156500Y84641459D01*
X10116062Y84650000D01*
X7440129Y84650000D01*
X7380802Y84630500D01*
X7344612Y84579605D01*
X7345674Y84517164D01*
X7383573Y84467529D01*
X7414247Y84453407D01*
X7494161Y84431994D01*
X7502330Y84429021D01*
X7691895Y84340625D01*
X7699426Y84336277D01*
X7870758Y84216309D01*
X7877419Y84210720D01*
X8025320Y84062819D01*
X8030909Y84056158D01*
X8150877Y83884826D01*
X8155225Y83877295D01*
X8243621Y83687730D01*
X8246594Y83679561D01*
X8300729Y83477529D01*
X8302240Y83468954D01*
X8320658Y83258440D01*
X8320850Y83254056D01*
X8320850Y82058444D01*
X8320658Y82054060D01*
X8302240Y81843545D01*
X8300729Y81834970D01*
X8246594Y81632938D01*
X8243621Y81624769D01*
X8155225Y81435204D01*
X8150876Y81427672D01*
X8030909Y81256341D01*
X8025322Y81249682D01*
X7877419Y81101779D01*
X7870758Y81096190D01*
X7699426Y80976222D01*
X7691895Y80971874D01*
X7502330Y80883478D01*
X7494161Y80880505D01*
X7292127Y80826370D01*
X7283555Y80824859D01*
X7075205Y80806631D01*
X7066495Y80806631D01*
X6858144Y80824859D01*
X6849572Y80826370D01*
X6647538Y80880505D01*
X6639369Y80883478D01*
X6449804Y80971874D01*
X6442272Y80976223D01*
X6270941Y81096190D01*
X6264282Y81101777D01*
X6116377Y81249682D01*
X6110790Y81256341D01*
X5990823Y81427672D01*
X5986474Y81435204D01*
X5957159Y81498070D01*
X5914413Y81543598D01*
X5852992Y81554888D01*
X5778336Y81502947D01*
X5767563Y81482792D01*
X5762130Y81474661D01*
X5650222Y81338301D01*
X5643298Y81331377D01*
X5506938Y81219469D01*
X5498811Y81214038D01*
X5343234Y81130881D01*
X5334196Y81127137D01*
X5165383Y81075928D01*
X5155801Y81074022D01*
X4980234Y81056731D01*
X4970466Y81056731D01*
X4794898Y81074022D01*
X4785316Y81075928D01*
X4616503Y81127137D01*
X4607465Y81130881D01*
X4451888Y81214038D01*
X4443761Y81219469D01*
X4307401Y81331377D01*
X4300477Y81338301D01*
X4188569Y81474661D01*
X4183138Y81482788D01*
X4099981Y81638365D01*
X4096236Y81647405D01*
X4067744Y81741333D01*
X4031862Y81792446D01*
X3972653Y81812303D01*
X3913209Y81793161D01*
X3876356Y81741334D01*
X3847862Y81647403D01*
X3844118Y81638365D01*
X3760961Y81482788D01*
X3755530Y81474661D01*
X3643622Y81338301D01*
X3636698Y81331377D01*
X3500338Y81219469D01*
X3492211Y81214038D01*
X3336634Y81130881D01*
X3327596Y81127137D01*
X3158783Y81075928D01*
X3149201Y81074022D01*
X2973634Y81056731D01*
X2963866Y81056731D01*
X2788298Y81074022D01*
X2778716Y81075928D01*
X2609903Y81127137D01*
X2600865Y81130881D01*
X2445288Y81214038D01*
X2437161Y81219469D01*
X2300801Y81331377D01*
X2293877Y81338301D01*
X2181969Y81474661D01*
X2176538Y81482788D01*
X2093381Y81638365D01*
X2089636Y81647405D01*
X2061144Y81741333D01*
X2025262Y81792446D01*
X1966053Y81812303D01*
X1906609Y81793161D01*
X1869756Y81741334D01*
X1841262Y81647403D01*
X1837518Y81638365D01*
X1754361Y81482788D01*
X1748930Y81474661D01*
X1637022Y81338301D01*
X1630098Y81331377D01*
X1493738Y81219469D01*
X1485611Y81214038D01*
X1330034Y81130881D01*
X1320996Y81127137D01*
X1152183Y81075928D01*
X1142601Y81074022D01*
X967034Y81056731D01*
X957266Y81056731D01*
X781698Y81074022D01*
X772116Y81075928D01*
X603303Y81127137D01*
X594265Y81130881D01*
X438688Y81214038D01*
X430561Y81219469D01*
X294201Y81331377D01*
X287277Y81338301D01*
X175369Y81474661D01*
X169941Y81482785D01*
X159163Y81502948D01*
X113998Y81546077D01*
X52053Y81554001D01*
X-19660Y81498069D01*
X-48974Y81435204D01*
X-53323Y81427672D01*
X-173290Y81256341D01*
X-178877Y81249682D01*
X-326780Y81101779D01*
X-333441Y81096190D01*
X-504773Y80976222D01*
X-512304Y80971874D01*
X-701869Y80883478D01*
X-710038Y80880505D01*
X-912072Y80826370D01*
X-920644Y80824859D01*
X-1128995Y80806631D01*
X-1137705Y80806631D01*
X-1346055Y80824859D01*
X-1354627Y80826370D01*
X-1556661Y80880505D01*
X-1564830Y80883478D01*
X-1754395Y80971874D01*
X-1761927Y80976223D01*
X-1933258Y81096190D01*
X-1939917Y81101777D01*
X-1979289Y81141149D01*
X-2035029Y81169311D01*
X-2096607Y81158913D01*
X-2140008Y81114009D01*
X-2150000Y81070438D01*
X-2150000Y71570803D01*
X-2130500Y71511476D01*
X-2079605Y71475286D01*
X-1996798Y71486130D01*
X-1983359Y71494574D01*
X-1937333Y71566844D01*
X-1775092Y72864768D01*
X-1773707Y72871752D01*
X-1759002Y72925480D01*
X-1758550Y72927191D01*
X-1745711Y72977588D01*
X-1745240Y72978725D01*
X-1744533Y72980792D01*
X-1741815Y72987047D01*
X-1741127Y72988669D01*
X-1738559Y72994876D01*
X-1737578Y72996795D01*
X-1737082Y72997938D01*
X-1709742Y73042256D01*
X-1708827Y73043770D01*
X-1682288Y73088544D01*
X-1681513Y73089507D01*
X-1680263Y73091275D01*
X-1675884Y73096522D01*
X-1674770Y73097880D01*
X-1670534Y73103141D01*
X-1669073Y73104684D01*
X-1668271Y73105644D01*
X-1629562Y73140457D01*
X-1628256Y73141653D01*
X-1590171Y73177144D01*
X-1589146Y73177856D01*
X-1587448Y73179201D01*
X-1581807Y73182976D01*
X-1580357Y73183965D01*
X-1574811Y73187818D01*
X-1572939Y73188908D01*
X-1571898Y73189604D01*
X-1524952Y73212099D01*
X-1523361Y73212879D01*
X-1502470Y73223348D01*
X-1458166Y73267361D01*
X-1448614Y73329076D01*
X-1476561Y73383461D01*
X-1480810Y73387710D01*
X-1487773Y73396442D01*
X-1565191Y73519652D01*
X-1570032Y73529705D01*
X-1618092Y73667054D01*
X-1620578Y73677946D01*
X-1636871Y73822543D01*
X-1636871Y73833707D01*
X-1620578Y73978303D01*
X-1618092Y73989195D01*
X-1570032Y74126544D01*
X-1565191Y74136597D01*
X-1487773Y74259807D01*
X-1480810Y74268539D01*
X-1377914Y74371435D01*
X-1369182Y74378398D01*
X-1245972Y74455816D01*
X-1235919Y74460657D01*
X-1098570Y74508717D01*
X-1087678Y74511203D01*
X-1010513Y74519898D01*
X-953742Y74545918D01*
X-932993Y74573124D01*
X-888907Y74657882D01*
X-880649Y74669391D01*
X-852137Y74699076D01*
X-852137Y76664877D01*
X-861302Y76665726D01*
X-1059632Y76702801D01*
X-1068500Y76705325D01*
X-1256641Y76778210D01*
X-1264879Y76782312D01*
X-1436431Y76888533D01*
X-1443777Y76894081D01*
X-1592893Y77030017D01*
X-1599091Y77036817D01*
X-1720689Y77197837D01*
X-1725531Y77205657D01*
X-1815473Y77386287D01*
X-1818795Y77394861D01*
X-1874014Y77588938D01*
X-1875706Y77597987D01*
X-1894536Y77801195D01*
X-1894750Y77805811D01*
X-1894750Y78404189D01*
X-1894536Y78408805D01*
X-1875706Y78612012D01*
X-1874014Y78621061D01*
X-1818795Y78815138D01*
X-1815473Y78823712D01*
X-1725531Y79004342D01*
X-1720689Y79012162D01*
X-1599091Y79173182D01*
X-1592893Y79179982D01*
X-1443777Y79315918D01*
X-1436431Y79321466D01*
X-1264879Y79427687D01*
X-1256641Y79431789D01*
X-1068500Y79504674D01*
X-1059632Y79507198D01*
X-861302Y79544273D01*
X-852137Y79545122D01*
X-650362Y79545122D01*
X-641197Y79544273D01*
X-442867Y79507198D01*
X-433999Y79504674D01*
X-245858Y79431789D01*
X-237620Y79427687D01*
X-66068Y79321466D01*
X-58722Y79315919D01*
X90393Y79179982D01*
X96591Y79173182D01*
X218189Y79012162D01*
X223031Y79004342D01*
X312973Y78823712D01*
X316295Y78815138D01*
X371514Y78621061D01*
X373206Y78612012D01*
X392036Y78408805D01*
X392250Y78404189D01*
X392250Y77805811D01*
X392036Y77801195D01*
X373206Y77597987D01*
X371514Y77588938D01*
X316295Y77394861D01*
X312973Y77386287D01*
X223031Y77205657D01*
X218189Y77197837D01*
X96591Y77036817D01*
X90393Y77030017D01*
X-58722Y76894080D01*
X-66068Y76888533D01*
X-237620Y76782312D01*
X-245858Y76778210D01*
X-433999Y76705325D01*
X-442867Y76702801D01*
X-641197Y76665726D01*
X-650362Y76664877D01*
X-852137Y76664877D01*
X-852137Y74699076D01*
X-801837Y74751447D01*
X-790678Y74760158D01*
X-688834Y74818467D01*
X-682405Y74821561D01*
X-662205Y74829563D01*
X-628323Y74851823D01*
X1085527Y76565673D01*
X1090917Y76570343D01*
X1123720Y76594899D01*
X1129280Y76599378D01*
X1157558Y76623881D01*
X1173879Y76634369D01*
X1180275Y76638165D01*
X1203564Y76650881D01*
X1201786Y76654137D01*
X1238752Y76683012D01*
X1255564Y76743157D01*
X1233415Y76801547D01*
X1208309Y76823679D01*
X1103571Y76888531D01*
X1096222Y76894081D01*
X947106Y77030017D01*
X940908Y77036817D01*
X819310Y77197837D01*
X814468Y77205657D01*
X724526Y77386287D01*
X721204Y77394861D01*
X665985Y77588938D01*
X664293Y77597987D01*
X645464Y77801195D01*
X645250Y77805811D01*
X645250Y78404189D01*
X645464Y78408805D01*
X664293Y78612012D01*
X665985Y78621061D01*
X721204Y78815138D01*
X724526Y78823712D01*
X814468Y79004342D01*
X819310Y79012162D01*
X940908Y79173182D01*
X947106Y79179982D01*
X1096222Y79315918D01*
X1103568Y79321466D01*
X1275120Y79427687D01*
X1283358Y79431789D01*
X1471499Y79504674D01*
X1480367Y79507198D01*
X1678697Y79544273D01*
X1687862Y79545122D01*
X1889637Y79545122D01*
X1898802Y79544273D01*
X2097132Y79507198D01*
X2106000Y79504674D01*
X2294141Y79431789D01*
X2302379Y79427687D01*
X2473931Y79321466D01*
X2481277Y79315918D01*
X2630393Y79179982D01*
X2636591Y79173182D01*
X2758189Y79012162D01*
X2763031Y79004342D01*
X2852973Y78823712D01*
X2856295Y78815138D01*
X2911514Y78621061D01*
X2913206Y78612012D01*
X2932036Y78408805D01*
X2932250Y78404189D01*
X2932250Y77805811D01*
X2932036Y77801195D01*
X2913206Y77597987D01*
X2911514Y77588938D01*
X2856295Y77394861D01*
X2852973Y77386287D01*
X2763031Y77205657D01*
X2758189Y77197837D01*
X2636591Y77036817D01*
X2630393Y77030017D01*
X2481277Y76894081D01*
X2473925Y76888528D01*
X2468259Y76885020D01*
X2428084Y76837208D01*
X2424109Y76774885D01*
X2457884Y76722357D01*
X2520904Y76700000D01*
X3345450Y76700000D01*
X3404777Y76719500D01*
X3440912Y76770217D01*
X3496163Y76947307D01*
X3480503Y77037354D01*
X3359306Y77197845D01*
X3354468Y77205657D01*
X3264526Y77386287D01*
X3261204Y77394861D01*
X3205985Y77588938D01*
X3204293Y77597987D01*
X3185464Y77801195D01*
X3185250Y77805811D01*
X3185250Y78404189D01*
X3185464Y78408805D01*
X3204293Y78612012D01*
X3205985Y78621061D01*
X3261204Y78815138D01*
X3264526Y78823712D01*
X3354468Y79004342D01*
X3359310Y79012162D01*
X3480908Y79173182D01*
X3487106Y79179982D01*
X3636222Y79315918D01*
X3643568Y79321466D01*
X3815120Y79427687D01*
X3823358Y79431789D01*
X4011499Y79504674D01*
X4020367Y79507198D01*
X4218697Y79544273D01*
X4227862Y79545122D01*
X4429637Y79545122D01*
X4438802Y79544273D01*
X4637132Y79507198D01*
X4646000Y79504674D01*
X4834141Y79431789D01*
X4842379Y79427687D01*
X5013931Y79321466D01*
X5021277Y79315918D01*
X5170393Y79179982D01*
X5176591Y79173182D01*
X5298189Y79012162D01*
X5303031Y79004342D01*
X5392973Y78823712D01*
X5396295Y78815138D01*
X5451514Y78621061D01*
X5453206Y78612012D01*
X5472036Y78408805D01*
X5472250Y78404189D01*
X5472250Y77805811D01*
X5472036Y77801195D01*
X5453206Y77597987D01*
X5451514Y77588938D01*
X5396295Y77394861D01*
X5392973Y77386287D01*
X5303031Y77205657D01*
X5298189Y77197837D01*
X5176591Y77036817D01*
X5170393Y77030017D01*
X5021277Y76894081D01*
X5013931Y76888533D01*
X4842379Y76782312D01*
X4834141Y76778210D01*
X4646000Y76705325D01*
X4637132Y76702801D01*
X4438802Y76665726D01*
X4429637Y76664877D01*
X4424387Y76664877D01*
X4365060Y76645377D01*
X4328925Y76594661D01*
X4256034Y76361034D01*
X4256979Y76298591D01*
X4294786Y76248885D01*
X4351496Y76231250D01*
X5158006Y76231250D01*
X5217333Y76250750D01*
X5243662Y76279645D01*
X5824093Y77243059D01*
X5838006Y77303939D01*
X5827954Y77339237D01*
X5804527Y77386286D01*
X5801204Y77394864D01*
X5745985Y77588938D01*
X5744293Y77597987D01*
X5725464Y77801195D01*
X5725250Y77805811D01*
X5725250Y78404189D01*
X5725464Y78408805D01*
X5744293Y78612012D01*
X5745985Y78621061D01*
X5801204Y78815138D01*
X5804526Y78823712D01*
X5894468Y79004342D01*
X5899310Y79012162D01*
X6020908Y79173182D01*
X6027106Y79179982D01*
X6176222Y79315918D01*
X6183568Y79321466D01*
X6355120Y79427687D01*
X6363358Y79431789D01*
X6551499Y79504674D01*
X6560367Y79507198D01*
X6758697Y79544273D01*
X6767862Y79545122D01*
X6969637Y79545122D01*
X6978802Y79544273D01*
X7177132Y79507198D01*
X7186000Y79504674D01*
X7374141Y79431789D01*
X7382379Y79427687D01*
X7553931Y79321466D01*
X7561277Y79315918D01*
X7710393Y79179982D01*
X7716591Y79173182D01*
X7838189Y79012162D01*
X7843031Y79004342D01*
X7932973Y78823712D01*
X7936295Y78815138D01*
X7991514Y78621061D01*
X7993206Y78612012D01*
X8012036Y78408805D01*
X8012250Y78404189D01*
X8012250Y77805811D01*
X8012036Y77801195D01*
X7993206Y77597987D01*
X7991514Y77588937D01*
X7984514Y77564333D01*
X7987034Y77501934D01*
X8026083Y77453198D01*
X8086431Y77437132D01*
X8152070Y77466924D01*
X8251504Y77568246D01*
X8279704Y77647516D01*
X8265464Y77801196D01*
X8265250Y77805811D01*
X8265250Y78404189D01*
X8265464Y78408805D01*
X8284293Y78612012D01*
X8285985Y78621061D01*
X8341204Y78815138D01*
X8344526Y78823712D01*
X8434468Y79004342D01*
X8439310Y79012162D01*
X8560908Y79173182D01*
X8567106Y79179982D01*
X8716222Y79315918D01*
X8723568Y79321466D01*
X8895120Y79427687D01*
X8903358Y79431789D01*
X9091499Y79504674D01*
X9100367Y79507198D01*
X9298697Y79544273D01*
X9307862Y79545122D01*
X9509637Y79545122D01*
X9518802Y79544273D01*
X9717132Y79507198D01*
X9726000Y79504674D01*
X9914141Y79431789D01*
X9922379Y79427687D01*
X10093931Y79321466D01*
X10101277Y79315918D01*
X10250393Y79179982D01*
X10256591Y79173182D01*
X10378189Y79012162D01*
X10383031Y79004342D01*
X10472973Y78823712D01*
X10476295Y78815138D01*
X10531514Y78621061D01*
X10533206Y78612012D01*
X10552036Y78408805D01*
X10552250Y78404189D01*
X10552250Y77805811D01*
X10552036Y77801195D01*
X10533206Y77597987D01*
X10531514Y77588938D01*
X10476295Y77394861D01*
X10472973Y77386287D01*
X10383031Y77205657D01*
X10378189Y77197837D01*
X10256591Y77036817D01*
X10247273Y77026595D01*
X10248105Y77025837D01*
X10219834Y76975776D01*
X10227374Y76913783D01*
X10270223Y76868352D01*
X10317909Y76856250D01*
X11039590Y76856250D01*
X11098917Y76875750D01*
X11135107Y76926645D01*
X11134045Y76989086D01*
X11109650Y77026070D01*
X11110226Y77026595D01*
X11100908Y77036817D01*
X10979310Y77197837D01*
X10974468Y77205657D01*
X10884526Y77386287D01*
X10881204Y77394861D01*
X10825985Y77588938D01*
X10824293Y77597987D01*
X10805464Y77801195D01*
X10805250Y77805811D01*
X10805250Y78404189D01*
X10805464Y78408805D01*
X10824293Y78612012D01*
X10825985Y78621061D01*
X10881204Y78815138D01*
X10884526Y78823712D01*
X10974468Y79004342D01*
X10979310Y79012162D01*
X11100908Y79173182D01*
X11107106Y79179982D01*
X11256222Y79315918D01*
X11263568Y79321466D01*
X11435120Y79427687D01*
X11443358Y79431789D01*
X11631499Y79504674D01*
X11640367Y79507198D01*
X11838697Y79544273D01*
X11847862Y79545122D01*
X12049637Y79545122D01*
X12058802Y79544273D01*
X12257132Y79507198D01*
X12266000Y79504674D01*
X12454141Y79431789D01*
X12462379Y79427687D01*
X12633931Y79321466D01*
X12641277Y79315918D01*
X12790393Y79179982D01*
X12796591Y79173182D01*
X12918189Y79012162D01*
X12923031Y79004342D01*
X13012973Y78823712D01*
X13016295Y78815138D01*
X13071514Y78621061D01*
X13073206Y78612012D01*
X13092036Y78408805D01*
X13092250Y78404189D01*
X13092250Y77805811D01*
X13092036Y77801195D01*
X13073206Y77597987D01*
X13071514Y77588938D01*
X13016295Y77394861D01*
X13012973Y77386287D01*
X12923031Y77205657D01*
X12918189Y77197837D01*
X12796591Y77036817D01*
X12790393Y77030017D01*
X12641277Y76894081D01*
X12633931Y76888533D01*
X12462380Y76782313D01*
X12454180Y76778230D01*
X12409762Y76734331D01*
X12398750Y76688712D01*
X12398750Y76639820D01*
X12398242Y76632716D01*
X12392408Y76592143D01*
X12391645Y76585044D01*
X12388977Y76547733D01*
X12384854Y76528781D01*
X12383015Y76521577D01*
X12377551Y76502965D01*
X12362014Y76468943D01*
X12359284Y76462351D01*
X12346207Y76427292D01*
X12336902Y76410253D01*
X12333131Y76403897D01*
X12322627Y76387552D01*
X12298128Y76359279D01*
X12293649Y76353722D01*
X12269082Y76320905D01*
X12264423Y76315528D01*
X12039471Y76090576D01*
X12034091Y76085914D01*
X12001283Y76061355D01*
X11995723Y76056874D01*
X11967445Y76032370D01*
X11951134Y76021888D01*
X11944740Y76018095D01*
X11927710Y76008795D01*
X11892679Y75995730D01*
X11886082Y75992998D01*
X11852035Y75977449D01*
X11833441Y75971989D01*
X11826236Y75970150D01*
X11807271Y75966025D01*
X11769977Y75963358D01*
X11762878Y75962595D01*
X11722284Y75956758D01*
X11715180Y75956250D01*
X10227818Y75956250D01*
X10157107Y75926961D01*
X9070723Y74840577D01*
X9065333Y74835907D01*
X9032530Y74811351D01*
X9026970Y74806871D01*
X8998696Y74782371D01*
X8982370Y74771880D01*
X8975974Y74768084D01*
X8958962Y74758795D01*
X8923915Y74745724D01*
X8917318Y74742992D01*
X8883282Y74727448D01*
X8864685Y74721987D01*
X8857487Y74720150D01*
X8838518Y74716023D01*
X8801207Y74713355D01*
X8794110Y74712592D01*
X8753535Y74706758D01*
X8746430Y74706250D01*
X8307907Y74706250D01*
X8248580Y74686750D01*
X8212390Y74635855D01*
X8213452Y74573414D01*
X8257907Y74519647D01*
X8330721Y74477608D01*
X8339148Y74471486D01*
X8471184Y74352600D01*
X8478163Y74344849D01*
X8582594Y74201111D01*
X8587801Y74192094D01*
X8660071Y74029772D01*
X8663289Y74019868D01*
X8700230Y73846072D01*
X8701319Y73835712D01*
X8701319Y73658037D01*
X8700230Y73647677D01*
X8663290Y73473886D01*
X8660067Y73463968D01*
X8587804Y73301664D01*
X8582592Y73292635D01*
X8478163Y73148900D01*
X8471184Y73141149D01*
X8449016Y73121189D01*
X8417975Y73067000D01*
X8425136Y73004962D01*
X8449016Y72972559D01*
X8471186Y72952597D01*
X8478163Y72944849D01*
X8582594Y72801111D01*
X8587801Y72792094D01*
X8660071Y72629772D01*
X8663289Y72619868D01*
X8700230Y72446072D01*
X8701319Y72435712D01*
X8701319Y72258037D01*
X8700230Y72247677D01*
X8663290Y72073886D01*
X8660067Y72063968D01*
X8587804Y71901664D01*
X8582592Y71892635D01*
X8478163Y71748900D01*
X8471184Y71741149D01*
X8339148Y71622263D01*
X8330721Y71616141D01*
X8176852Y71527305D01*
X8167327Y71523064D01*
X8037999Y71481043D01*
X7987601Y71444164D01*
X7968910Y71384577D01*
X7989216Y71325520D01*
X8068901Y71285937D01*
X8897959Y71285937D01*
X8957286Y71305437D01*
X8993476Y71356332D01*
X8997330Y71397134D01*
X8988129Y71478794D01*
X8988129Y71489958D01*
X9004421Y71634554D01*
X9006906Y71645444D01*
X9054967Y71782794D01*
X9059808Y71792847D01*
X9137226Y71916057D01*
X9144189Y71924789D01*
X9247085Y72027685D01*
X9255817Y72034648D01*
X9379027Y72112066D01*
X9389080Y72116907D01*
X9526429Y72164967D01*
X9537321Y72167453D01*
X9681918Y72183746D01*
X9693082Y72183746D01*
X9837678Y72167453D01*
X9848570Y72164967D01*
X9985919Y72116907D01*
X9995972Y72112066D01*
X10119182Y72034648D01*
X10127914Y72027685D01*
X10230810Y71924789D01*
X10237773Y71916057D01*
X10315191Y71792847D01*
X10320032Y71782794D01*
X10368092Y71645445D01*
X10370578Y71634553D01*
X10386871Y71489957D01*
X10386871Y71478793D01*
X10370578Y71334196D01*
X10368092Y71323304D01*
X10320032Y71185955D01*
X10315191Y71175902D01*
X10237773Y71052692D01*
X10230810Y71043960D01*
X10127914Y70941064D01*
X10119182Y70934101D01*
X9995980Y70856688D01*
X9984741Y70851276D01*
X9939749Y70807966D01*
X9928128Y70761178D01*
X9928128Y70223751D01*
X9969754Y70142557D01*
X10042876Y70089986D01*
X10102429Y70071187D01*
X10161522Y70091385D01*
G37*
G36*
X29616475Y78150956D02*
X29650000Y78225662D01*
X29650000Y84550000D01*
X29630500Y84609327D01*
X29550000Y84650000D01*
X28037675Y84650000D01*
X27978348Y84630500D01*
X27942158Y84579605D01*
X27943220Y84517164D01*
X27995413Y84459369D01*
X28082520Y84418750D01*
X28090051Y84414402D01*
X28261383Y84294434D01*
X28268044Y84288845D01*
X28415945Y84140944D01*
X28421534Y84134283D01*
X28541502Y83962951D01*
X28545850Y83955420D01*
X28634246Y83765855D01*
X28637219Y83757686D01*
X28691354Y83555654D01*
X28692865Y83547079D01*
X28711283Y83336565D01*
X28711475Y83332181D01*
X28711475Y82136569D01*
X28711283Y82132185D01*
X28692865Y81921670D01*
X28691354Y81913095D01*
X28637219Y81711063D01*
X28634246Y81702894D01*
X28545850Y81513329D01*
X28541501Y81505797D01*
X28421534Y81334466D01*
X28415947Y81327807D01*
X28268044Y81179904D01*
X28261383Y81174315D01*
X28090051Y81054347D01*
X28082520Y81049999D01*
X27892955Y80961603D01*
X27884786Y80958630D01*
X27682752Y80904495D01*
X27674180Y80902984D01*
X27465830Y80884756D01*
X27457120Y80884756D01*
X27248769Y80902984D01*
X27240197Y80904495D01*
X27038163Y80958630D01*
X27029994Y80961603D01*
X26840429Y81049999D01*
X26832897Y81054348D01*
X26661566Y81174315D01*
X26654907Y81179902D01*
X26507002Y81327807D01*
X26501415Y81334466D01*
X26381448Y81505797D01*
X26377099Y81513329D01*
X26347784Y81576195D01*
X26305038Y81621723D01*
X26243617Y81633013D01*
X26168961Y81581072D01*
X26158188Y81560917D01*
X26152759Y81552792D01*
X26117801Y81510196D01*
X26095115Y81448385D01*
X26070321Y79927012D01*
X26085636Y79872180D01*
X26141489Y79783291D01*
X26146330Y79773238D01*
X26198088Y79625321D01*
X26200574Y79614429D01*
X26218188Y79458110D01*
X26264198Y79384734D01*
X27186003Y78803120D01*
X27249166Y78788175D01*
X27335057Y78796634D01*
X27339950Y78796875D01*
X28535050Y78796875D01*
X28539943Y78796634D01*
X28727697Y78778142D01*
X28737292Y78776234D01*
X28915480Y78722181D01*
X28924518Y78718437D01*
X29088736Y78630661D01*
X29096868Y78625227D01*
X29240808Y78507098D01*
X29247723Y78500183D01*
X29365852Y78356243D01*
X29371286Y78348111D01*
X29461379Y78179558D01*
X29463417Y78180647D01*
X29498323Y78140050D01*
X29559191Y78126085D01*
X29616475Y78150956D01*
G37*
G36*
X22113048Y80137133D02*
X22824454Y80746910D01*
X22859375Y80822836D01*
X22859375Y81224374D01*
X22822814Y81301675D01*
X22691426Y81409502D01*
X22684502Y81416426D01*
X22572594Y81552786D01*
X22567163Y81560913D01*
X22484006Y81716490D01*
X22480261Y81725530D01*
X22451769Y81819458D01*
X22415887Y81870571D01*
X22356678Y81890428D01*
X22297234Y81871286D01*
X22260381Y81819459D01*
X22231887Y81725528D01*
X22228143Y81716490D01*
X22144986Y81560913D01*
X22139555Y81552786D01*
X22027647Y81416426D01*
X22020723Y81409502D01*
X21884363Y81297594D01*
X21876236Y81292163D01*
X21720659Y81209006D01*
X21711621Y81205262D01*
X21542808Y81154053D01*
X21533226Y81152147D01*
X21357659Y81134856D01*
X21347891Y81134856D01*
X21172323Y81152147D01*
X21162741Y81154053D01*
X20993928Y81205262D01*
X20984890Y81209006D01*
X20829313Y81292163D01*
X20821186Y81297594D01*
X20684826Y81409502D01*
X20677902Y81416426D01*
X20565994Y81552786D01*
X20560561Y81560917D01*
X20549788Y81581072D01*
X20504624Y81624202D01*
X20442679Y81632127D01*
X20370965Y81576195D01*
X20341650Y81513329D01*
X20337301Y81505797D01*
X20217334Y81334466D01*
X20211747Y81327807D01*
X20063844Y81179904D01*
X20057183Y81174315D01*
X19885851Y81054347D01*
X19878320Y81049999D01*
X19688755Y80961603D01*
X19680586Y80958630D01*
X19478552Y80904495D01*
X19469980Y80902984D01*
X19261630Y80884756D01*
X19252920Y80884756D01*
X19044569Y80902984D01*
X19035997Y80904495D01*
X18833963Y80958630D01*
X18825794Y80961603D01*
X18636229Y81049999D01*
X18628697Y81054348D01*
X18457366Y81174315D01*
X18450707Y81179902D01*
X18302802Y81327807D01*
X18297215Y81334466D01*
X18177248Y81505797D01*
X18172899Y81513329D01*
X18084503Y81702894D01*
X18081530Y81711063D01*
X18027395Y81913097D01*
X18025884Y81921669D01*
X18007467Y82132183D01*
X18007275Y82136570D01*
X18007275Y83332180D01*
X18007467Y83336567D01*
X18025884Y83547080D01*
X18027395Y83555652D01*
X18081530Y83757686D01*
X18084503Y83765855D01*
X18172899Y83955420D01*
X18177247Y83962951D01*
X18297215Y84134283D01*
X18302804Y84140944D01*
X18450707Y84288847D01*
X18457366Y84294434D01*
X18628697Y84414401D01*
X18636229Y84418750D01*
X18723337Y84459369D01*
X18768865Y84502115D01*
X18780155Y84563536D01*
X18752803Y84619678D01*
X18681075Y84650000D01*
X16722882Y84650000D01*
X16663555Y84630500D01*
X16627365Y84579605D01*
X16633628Y84504904D01*
X16652250Y84468047D01*
X16652250Y81617888D01*
X16650684Y81613123D01*
X16628422Y81601875D01*
X14381263Y81601875D01*
X14376498Y81603441D01*
X14365250Y81625703D01*
X14365250Y84475862D01*
X14379355Y84518775D01*
X14379355Y84581225D01*
X14342305Y84631497D01*
X14284355Y84650000D01*
X13281437Y84650000D01*
X13222110Y84630500D01*
X13185920Y84579605D01*
X13186982Y84517164D01*
X13224881Y84467529D01*
X13263061Y84451703D01*
X13277133Y84449072D01*
X13286000Y84446549D01*
X13474141Y84373664D01*
X13482379Y84369562D01*
X13653931Y84263341D01*
X13661277Y84257793D01*
X13810393Y84121857D01*
X13816591Y84115057D01*
X13938189Y83954037D01*
X13943031Y83946217D01*
X14032973Y83765587D01*
X14036295Y83757013D01*
X14091514Y83562936D01*
X14093206Y83553887D01*
X14112036Y83350680D01*
X14112250Y83346064D01*
X14112250Y82747686D01*
X14112036Y82743070D01*
X14093206Y82539862D01*
X14091514Y82530813D01*
X14036295Y82336736D01*
X14032973Y82328162D01*
X13943031Y82147532D01*
X13938189Y82139712D01*
X13816591Y81978692D01*
X13810393Y81971892D01*
X13717675Y81887368D01*
X13685266Y81806815D01*
X13706714Y81485089D01*
X13750281Y81409036D01*
X14964384Y80583845D01*
X14968554Y80580680D01*
X15007261Y80547966D01*
X15070943Y80524346D01*
X18596368Y80493751D01*
X18602389Y80493334D01*
X18629157Y80489848D01*
X18642072Y80489010D01*
X18666048Y80489010D01*
X18677976Y80487562D01*
X18707552Y80480272D01*
X18718567Y80478204D01*
X18748773Y80474270D01*
X18760413Y80471293D01*
X18782748Y80462600D01*
X18795088Y80458696D01*
X18818370Y80452958D01*
X18829600Y80448699D01*
X18856588Y80434535D01*
X18866787Y80429891D01*
X18895167Y80418845D01*
X18905750Y80413173D01*
X18925355Y80399388D01*
X18936402Y80392644D01*
X18962993Y80378688D01*
X18963966Y80380542D01*
X19015243Y80365430D01*
X19040549Y80371875D01*
X20958987Y80371875D01*
X20963752Y80370309D01*
X20975000Y80348047D01*
X20975000Y80229163D01*
X20994500Y80169836D01*
X21073345Y80129177D01*
X22046314Y80113073D01*
X22113048Y80137133D01*
G37*
G36*
X22220177Y73741450D02*
X22264375Y73777723D01*
X22272513Y73783161D01*
X22418482Y73861183D01*
X22461612Y73906347D01*
X22469536Y73968292D01*
X22418481Y74037567D01*
X22272517Y74115586D01*
X22264381Y74121022D01*
X22120441Y74239151D01*
X22113526Y74246066D01*
X21995397Y74390006D01*
X21989963Y74398138D01*
X21902187Y74562356D01*
X21898443Y74571394D01*
X21844389Y74749586D01*
X21842483Y74759168D01*
X21824231Y74944491D01*
X21824231Y74954259D01*
X21842483Y75139581D01*
X21844389Y75149163D01*
X21898443Y75327355D01*
X21902187Y75336393D01*
X21989963Y75500611D01*
X21995397Y75508743D01*
X22113526Y75652683D01*
X22120441Y75659598D01*
X22264381Y75777727D01*
X22272513Y75783161D01*
X22418482Y75861183D01*
X22461612Y75906347D01*
X22469536Y75968292D01*
X22418481Y76037567D01*
X22272517Y76115586D01*
X22264381Y76121022D01*
X22120441Y76239151D01*
X22113526Y76246066D01*
X21995397Y76390006D01*
X21989963Y76398138D01*
X21902187Y76562356D01*
X21898443Y76571394D01*
X21844389Y76749586D01*
X21842483Y76759168D01*
X21824231Y76944491D01*
X21824231Y76954259D01*
X21842483Y77139581D01*
X21844389Y77149163D01*
X21898443Y77327355D01*
X21902187Y77336393D01*
X21989963Y77500611D01*
X21995397Y77508743D01*
X22113526Y77652683D01*
X22120441Y77659598D01*
X22264381Y77777727D01*
X22272513Y77783161D01*
X22436731Y77870937D01*
X22445769Y77874681D01*
X22623957Y77928734D01*
X22633552Y77930642D01*
X22821307Y77949134D01*
X22826200Y77949375D01*
X24021300Y77949375D01*
X24026193Y77949134D01*
X24213947Y77930642D01*
X24223542Y77928734D01*
X24401730Y77874681D01*
X24410768Y77870937D01*
X24574986Y77783161D01*
X24583118Y77777727D01*
X24727058Y77659598D01*
X24733973Y77652683D01*
X24852102Y77508743D01*
X24857536Y77500611D01*
X24945312Y77336393D01*
X24949056Y77327355D01*
X25003109Y77149167D01*
X25005017Y77139572D01*
X25023268Y76954269D01*
X25023268Y76944481D01*
X25005017Y76759177D01*
X25003109Y76749582D01*
X24949056Y76571394D01*
X24945312Y76562356D01*
X24857536Y76398138D01*
X24852102Y76390006D01*
X24733973Y76246066D01*
X24727058Y76239151D01*
X24583118Y76121022D01*
X24574982Y76115586D01*
X24429018Y76037567D01*
X24385888Y75992403D01*
X24377963Y75930458D01*
X24429017Y75861183D01*
X24574986Y75783161D01*
X24583118Y75777727D01*
X24727058Y75659598D01*
X24733973Y75652683D01*
X24852102Y75508743D01*
X24857536Y75500611D01*
X24945312Y75336393D01*
X24949056Y75327355D01*
X25003109Y75149167D01*
X25005017Y75139572D01*
X25023268Y74954269D01*
X25023268Y74944481D01*
X25007414Y74783510D01*
X25021005Y74722556D01*
X25064791Y74683021D01*
X25481137Y74489552D01*
X25543157Y74482235D01*
X25597424Y74513139D01*
X25622318Y74594059D01*
X25315106Y76795744D01*
X25314628Y76802266D01*
X25314140Y76865235D01*
X25314112Y76866943D01*
X25312629Y76926678D01*
X25312990Y76930070D01*
X25313077Y76931847D01*
X25313706Y76936930D01*
X25313899Y76938610D01*
X25314448Y76943759D01*
X25314771Y76945534D01*
X25315189Y76948911D01*
X25330200Y77006720D01*
X25330615Y77008377D01*
X25344635Y77066428D01*
X25345864Y77069617D01*
X25346415Y77071331D01*
X25348341Y77076085D01*
X25348969Y77077673D01*
X25350808Y77082445D01*
X25351576Y77084068D01*
X25352858Y77087233D01*
X25382330Y77139204D01*
X25383160Y77140699D01*
X25411716Y77193124D01*
X25413735Y77195895D01*
X25414692Y77197379D01*
X25417739Y77201414D01*
X25418763Y77202794D01*
X25421832Y77207006D01*
X25423005Y77208389D01*
X25425054Y77211103D01*
X25466912Y77253614D01*
X25468100Y77254842D01*
X25509304Y77298145D01*
X25511973Y77300300D01*
X25513298Y77301500D01*
X25517302Y77304623D01*
X25518630Y77305676D01*
X25522667Y77308936D01*
X25524156Y77309966D01*
X25526845Y77312063D01*
X25578274Y77342288D01*
X25579740Y77343166D01*
X25633551Y77376041D01*
X25639352Y77379083D01*
X26281649Y77664011D01*
X26327973Y77705893D01*
X26340618Y77765220D01*
X26337982Y77791991D01*
X26337981Y77801761D01*
X26356233Y77987081D01*
X26358140Y77996666D01*
X26403393Y78145846D01*
X26401955Y78208279D01*
X26361060Y78259447D01*
X25658898Y78702478D01*
X25594340Y78717276D01*
X25471547Y78703440D01*
X25465936Y78703125D01*
X25315311Y78703125D01*
X25306907Y78703597D01*
X25306903Y78703523D01*
X25302170Y78703826D01*
X25294709Y78703948D01*
X25223991Y78713085D01*
X25222373Y78713280D01*
X25151198Y78721299D01*
X25143849Y78722977D01*
X25142862Y78723153D01*
X25140782Y78723663D01*
X25139205Y78724036D01*
X25136774Y78724591D01*
X25135693Y78724912D01*
X25128443Y78726691D01*
X25061542Y78751331D01*
X25060009Y78751881D01*
X24992395Y78775541D01*
X24985605Y78778811D01*
X24984684Y78779201D01*
X24982767Y78780163D01*
X24981306Y78780881D01*
X24979051Y78781967D01*
X24978080Y78782514D01*
X24971408Y78785861D01*
X24911660Y78824777D01*
X24910285Y78825657D01*
X24849636Y78863764D01*
X24843739Y78868466D01*
X24842923Y78869056D01*
X24841291Y78870401D01*
X24840019Y78871433D01*
X24838075Y78872983D01*
X24837245Y78873737D01*
X24831487Y78878484D01*
X24781921Y78929693D01*
X24780778Y78930855D01*
X24730092Y78981541D01*
X24725390Y78987437D01*
X24724733Y78988184D01*
X24723441Y78989860D01*
X24722433Y78991146D01*
X24720877Y78993097D01*
X24720244Y78994004D01*
X24715679Y78999925D01*
X24678720Y79060930D01*
X24677864Y79062318D01*
X24639758Y79122963D01*
X24636488Y79129751D01*
X24636005Y79130642D01*
X24635103Y79132597D01*
X24634394Y79134101D01*
X24633343Y79136283D01*
X24632928Y79137308D01*
X24629793Y79144099D01*
X24607318Y79211851D01*
X24606792Y79213394D01*
X24583158Y79280936D01*
X24581482Y79288276D01*
X24581203Y79289274D01*
X24580750Y79291421D01*
X24580400Y79293017D01*
X24579867Y79295352D01*
X24579692Y79296435D01*
X24578144Y79303767D01*
X24571305Y79374854D01*
X24571136Y79376474D01*
X24563129Y79447546D01*
X24563128Y79455062D01*
X24562904Y79459752D01*
X24562980Y79459755D01*
X24562646Y79468151D01*
X24595696Y81496105D01*
X24578856Y81553292D01*
X24573763Y81560915D01*
X24490606Y81716490D01*
X24486861Y81725530D01*
X24458369Y81819458D01*
X24422487Y81870571D01*
X24363278Y81890428D01*
X24303834Y81871286D01*
X24266981Y81819459D01*
X24238487Y81725528D01*
X24234743Y81716490D01*
X24151586Y81560913D01*
X24146155Y81552786D01*
X24034247Y81416426D01*
X24027323Y81409502D01*
X23895936Y81301675D01*
X23859375Y81224374D01*
X23859375Y80550145D01*
X23858948Y80543629D01*
X23858070Y80536957D01*
X23857361Y80518501D01*
X23857547Y80515065D01*
X23856551Y80502113D01*
X23849162Y80467047D01*
X23847869Y80459482D01*
X23843193Y80423964D01*
X23839829Y80411410D01*
X23838514Y80408236D01*
X23833049Y80390581D01*
X23832341Y80387220D01*
X23828022Y80374953D01*
X23811811Y80342999D01*
X23808603Y80336024D01*
X23794897Y80302934D01*
X23788396Y80291674D01*
X23786304Y80288947D01*
X23776462Y80273318D01*
X23774902Y80270243D01*
X23767562Y80259524D01*
X23743641Y80232862D01*
X23738739Y80226957D01*
X23716924Y80198527D01*
X23707726Y80189329D01*
X23704995Y80187234D01*
X23691442Y80174684D01*
X23686948Y80169676D01*
X23682287Y80165119D01*
X22593504Y79231875D01*
X22588287Y79227965D01*
X22551366Y79203896D01*
X22546423Y79200457D01*
X22513686Y79176187D01*
X22497826Y79167376D01*
X22491804Y79164265D01*
X22475453Y79156430D01*
X22436701Y79143763D01*
X22431037Y79141721D01*
X22393118Y79126745D01*
X22375527Y79122341D01*
X22368918Y79120897D01*
X22351065Y79117556D01*
X22310379Y79115351D01*
X22304383Y79114845D01*
X22260611Y79109818D01*
X22254066Y79109498D01*
X21076655Y79128986D01*
X21017013Y79110471D01*
X20975000Y79029000D01*
X20975000Y78937888D01*
X20973434Y78933123D01*
X20951172Y78921875D01*
X19343750Y78921875D01*
X19284423Y78902375D01*
X19243750Y78821875D01*
X19243750Y78521875D01*
X19263250Y78462548D01*
X19343750Y78421875D01*
X20958987Y78421875D01*
X20963752Y78420309D01*
X20975000Y78398047D01*
X20975000Y76987888D01*
X20973434Y76983123D01*
X20951172Y76971875D01*
X19343750Y76971875D01*
X19284423Y76952375D01*
X19243750Y76871875D01*
X19243750Y74817109D01*
X19263250Y74757782D01*
X19306179Y74724435D01*
X21768798Y73726076D01*
X21806369Y73718750D01*
X22156737Y73718750D01*
X22220177Y73741450D01*
G37*
G36*
X29616475Y76150956D02*
X29650000Y76225662D01*
X29650000Y77368087D01*
X29630500Y77427414D01*
X29579605Y77463604D01*
X29517164Y77462542D01*
X29464279Y77412641D01*
X29461379Y77414191D01*
X29371286Y77245638D01*
X29365852Y77237506D01*
X29247723Y77093566D01*
X29240808Y77086651D01*
X29096868Y76968522D01*
X29088732Y76963086D01*
X28942768Y76885067D01*
X28899638Y76839903D01*
X28891713Y76777958D01*
X28942767Y76708683D01*
X29088736Y76630661D01*
X29096868Y76625227D01*
X29240808Y76507098D01*
X29247723Y76500183D01*
X29365852Y76356243D01*
X29371286Y76348111D01*
X29461379Y76179558D01*
X29463417Y76180647D01*
X29498323Y76140050D01*
X29559191Y76126085D01*
X29616475Y76150956D01*
G37*
G36*
X7642059Y75572738D02*
X7648848Y75574906D01*
X7656921Y75576862D01*
X7674914Y75583087D01*
X7679206Y75585047D01*
X7692804Y75589040D01*
X7723473Y75593449D01*
X7732790Y75595243D01*
X7762906Y75602540D01*
X7776996Y75603881D01*
X7781723Y75603655D01*
X7800732Y75604558D01*
X7808969Y75605742D01*
X7816072Y75606250D01*
X8522182Y75606250D01*
X8592893Y75635539D01*
X9451520Y76494166D01*
X9479682Y76549906D01*
X9469284Y76611484D01*
X9424380Y76654885D01*
X9380809Y76664877D01*
X9307862Y76664877D01*
X9298697Y76665726D01*
X9100367Y76702801D01*
X9091499Y76705325D01*
X8903360Y76778210D01*
X8895120Y76782313D01*
X8867377Y76799490D01*
X8806670Y76814142D01*
X8743361Y76784511D01*
X8448679Y76484233D01*
X8443335Y76479514D01*
X8408710Y76453083D01*
X8403901Y76449171D01*
X8373688Y76422991D01*
X8356025Y76411640D01*
X8337688Y76401402D01*
X8300372Y76387083D01*
X8294657Y76384684D01*
X8258286Y76368074D01*
X8238133Y76362157D01*
X8217658Y76357501D01*
X8177807Y76354274D01*
X8171646Y76353582D01*
X8128533Y76347383D01*
X8121429Y76346875D01*
X8118442Y76346875D01*
X8047731Y76317586D01*
X7944326Y76214181D01*
X7923876Y76184576D01*
X7921547Y76179411D01*
X7916759Y76166478D01*
X7911348Y76148049D01*
X7905469Y76135175D01*
X7896511Y76121236D01*
X7889477Y76108279D01*
X7882674Y76093190D01*
X7875077Y76081242D01*
X7862573Y76066670D01*
X7854340Y76055616D01*
X7843952Y76039452D01*
X7834681Y76028753D01*
X7822165Y76017908D01*
X7811761Y76007454D01*
X7798644Y75992167D01*
X7793641Y75987116D01*
X7489550Y75721036D01*
X7457742Y75667293D01*
X7464021Y75605159D01*
X7505938Y75558867D01*
X7592539Y75552930D01*
X7642059Y75572738D01*
G37*
G36*
X6255956Y75837533D02*
X6986420Y76476689D01*
X7011533Y76510405D01*
X7017438Y76523335D01*
X7024346Y76585402D01*
X6993084Y76639464D01*
X6926475Y76664877D01*
X6767862Y76664877D01*
X6758697Y76665726D01*
X6618656Y76691905D01*
X6556756Y76683639D01*
X6514625Y76645213D01*
X6104450Y75964396D01*
X6090537Y75903516D01*
X6115456Y75846253D01*
X6169488Y75814940D01*
X6255956Y75837533D01*
G37*
G36*
X20446827Y55400750D02*
X20487500Y55481250D01*
X20487500Y56672072D01*
X20468000Y56731399D01*
X20417105Y56767589D01*
X20342404Y56761326D01*
X20326173Y56753125D01*
X17463862Y56753125D01*
X17404535Y56733625D01*
X17368345Y56682730D01*
X17366322Y56631080D01*
X17416467Y56409205D01*
X17448566Y56355636D01*
X17514007Y56331250D01*
X18527737Y56331250D01*
X18532502Y56329684D01*
X18543750Y56307422D01*
X18543750Y55481250D01*
X18563250Y55421923D01*
X18643750Y55381250D01*
X20387500Y55381250D01*
X20446827Y55400750D01*
G37*
G36*
X29609327Y40369500D02*
X29650000Y40450000D01*
X29650000Y75368087D01*
X29630500Y75427414D01*
X29579605Y75463604D01*
X29517164Y75462542D01*
X29464279Y75412641D01*
X29461379Y75414191D01*
X29371286Y75245638D01*
X29365852Y75237506D01*
X29247723Y75093566D01*
X29240808Y75086651D01*
X29096868Y74968522D01*
X29088736Y74963088D01*
X28924518Y74875312D01*
X28915480Y74871568D01*
X28737288Y74817514D01*
X28727706Y74815608D01*
X28539940Y74797115D01*
X28535043Y74796875D01*
X27339957Y74796875D01*
X27335060Y74797115D01*
X27147293Y74815608D01*
X27137711Y74817514D01*
X26959519Y74871568D01*
X26950481Y74875312D01*
X26846379Y74930956D01*
X26784864Y74941725D01*
X26728956Y74913900D01*
X26700199Y74828944D01*
X26872394Y73594879D01*
X26872872Y73588359D01*
X26873094Y73559637D01*
X26873947Y73547354D01*
X26877697Y73518876D01*
X26878125Y73512346D01*
X26878125Y73294750D01*
X26897625Y73235423D01*
X26978125Y73194750D01*
X29397737Y73194750D01*
X29402502Y73193184D01*
X29413750Y73170922D01*
X29413750Y70923763D01*
X29412184Y70918998D01*
X29389922Y70907750D01*
X26978125Y70907750D01*
X26918798Y70888250D01*
X26878125Y70807750D01*
X26878125Y70542971D01*
X26897625Y70483644D01*
X26948520Y70447454D01*
X27038389Y70463170D01*
X27061588Y70480689D01*
X27069407Y70485531D01*
X27250037Y70575473D01*
X27258611Y70578795D01*
X27452688Y70634014D01*
X27461737Y70635706D01*
X27664945Y70654536D01*
X27669561Y70654750D01*
X28267939Y70654750D01*
X28272555Y70654536D01*
X28475762Y70635706D01*
X28484811Y70634014D01*
X28678888Y70578795D01*
X28687462Y70575473D01*
X28868092Y70485531D01*
X28875912Y70480689D01*
X29036932Y70359091D01*
X29043732Y70352893D01*
X29179668Y70203777D01*
X29185216Y70196431D01*
X29291437Y70024879D01*
X29295539Y70016641D01*
X29368424Y69828500D01*
X29370948Y69819632D01*
X29408023Y69621302D01*
X29408872Y69612137D01*
X29408872Y69410362D01*
X29408023Y69401197D01*
X29370948Y69202867D01*
X29368424Y69193999D01*
X29295539Y69005858D01*
X29291437Y68997620D01*
X29185216Y68826068D01*
X29179668Y68818722D01*
X29043732Y68669606D01*
X29036932Y68663408D01*
X28875912Y68541810D01*
X28868092Y68536968D01*
X28687462Y68447026D01*
X28678888Y68443704D01*
X28484811Y68388485D01*
X28475762Y68386793D01*
X28272555Y68367964D01*
X28267939Y68367750D01*
X27669561Y68367750D01*
X27664945Y68367964D01*
X27461737Y68386793D01*
X27452688Y68388485D01*
X27258611Y68443704D01*
X27250037Y68447026D01*
X27069407Y68536968D01*
X27061588Y68541810D01*
X27038389Y68559329D01*
X26979294Y68579521D01*
X26919742Y68560716D01*
X26878125Y68479528D01*
X26878125Y68278865D01*
X26897625Y68219538D01*
X26930715Y68190818D01*
X27601621Y67829561D01*
X27609930Y67824358D01*
X27609991Y67824455D01*
X27615244Y67821118D01*
X27616036Y67820678D01*
X27665101Y67784312D01*
X27666149Y67783546D01*
X27715639Y67747851D01*
X27716299Y67747229D01*
X27717560Y67746174D01*
X27722509Y67741387D01*
X27723447Y67740492D01*
X27728428Y67735798D01*
X27729540Y67734588D01*
X27730198Y67733952D01*
X27768185Y67686119D01*
X27768998Y67685108D01*
X27807558Y67637827D01*
X27808035Y67637055D01*
X27808988Y67635697D01*
X27812524Y67629802D01*
X27813203Y67628686D01*
X27816791Y67622876D01*
X27817552Y67621420D01*
X27818023Y67620635D01*
X27842364Y67564532D01*
X27842890Y67563342D01*
X27867864Y67507773D01*
X27868121Y67506915D01*
X27868695Y67505345D01*
X27870608Y67498653D01*
X27870975Y67497402D01*
X27872916Y67490933D01*
X27873272Y67489336D01*
X27873526Y67488447D01*
X27882510Y67428010D01*
X27882709Y67426726D01*
X27892458Y67366528D01*
X27892485Y67365630D01*
X27893037Y67359422D01*
X27892924Y67359413D01*
X27893728Y67349639D01*
X28206118Y48606191D01*
X28205640Y48596391D01*
X28205707Y48596388D01*
X28205401Y48591504D01*
X28205289Y48581260D01*
X28197329Y48525505D01*
X28196977Y48522769D01*
X28190554Y48466786D01*
X28188062Y48456823D01*
X28187810Y48455536D01*
X28187520Y48454500D01*
X28186807Y48451807D01*
X28186538Y48450730D01*
X28186112Y48449463D01*
X28183349Y48439584D01*
X28161227Y48387783D01*
X28160179Y48385232D01*
X28139487Y48332824D01*
X28134505Y48323852D01*
X28133923Y48322664D01*
X28133356Y48321706D01*
X28131978Y48319302D01*
X28131451Y48318353D01*
X28130715Y48317245D01*
X28125484Y48308408D01*
X28090700Y48264087D01*
X28089027Y48261894D01*
X28055490Y48216646D01*
X28048360Y48209274D01*
X28047476Y48208260D01*
X28046672Y48207473D01*
X28044722Y48205512D01*
X28043975Y48204739D01*
X28042994Y48203874D01*
X28035651Y48196690D01*
X27990537Y48162849D01*
X27988353Y48161163D01*
X27944281Y48126163D01*
X27935486Y48120887D01*
X27934370Y48120137D01*
X27933388Y48119584D01*
X27931010Y48118202D01*
X27930084Y48117647D01*
X27928899Y48117058D01*
X27919949Y48112020D01*
X27867640Y48091018D01*
X27865096Y48089955D01*
X27813454Y48067549D01*
X27803600Y48064732D01*
X27802316Y48064292D01*
X27801189Y48064003D01*
X27798550Y48063287D01*
X27797534Y48062997D01*
X27796243Y48062736D01*
X27786285Y48060184D01*
X27730300Y48053434D01*
X27727568Y48053066D01*
X27671901Y48044792D01*
X27661659Y48044621D01*
X27656776Y48044287D01*
X27656772Y48044353D01*
X27646981Y48043819D01*
X23847837Y48085264D01*
X23788300Y48066412D01*
X23761724Y48037913D01*
X23716466Y47964817D01*
X23710918Y47957472D01*
X23574982Y47808356D01*
X23568182Y47802158D01*
X23407162Y47680560D01*
X23399342Y47675718D01*
X23218712Y47585776D01*
X23210138Y47582454D01*
X23016061Y47527235D01*
X23007012Y47525543D01*
X22803805Y47506714D01*
X22799189Y47506500D01*
X22200811Y47506500D01*
X22196195Y47506714D01*
X21992987Y47525543D01*
X21983938Y47527235D01*
X21789861Y47582454D01*
X21781287Y47585776D01*
X21600657Y47675718D01*
X21592837Y47680560D01*
X21431817Y47802158D01*
X21425017Y47808356D01*
X21289081Y47957472D01*
X21283533Y47964818D01*
X21177312Y48136370D01*
X21173210Y48144608D01*
X21100325Y48332749D01*
X21097801Y48341617D01*
X21060726Y48539947D01*
X21059877Y48549112D01*
X21059877Y48750887D01*
X21060726Y48760052D01*
X21097801Y48958382D01*
X21100325Y48967250D01*
X21173210Y49155391D01*
X21177312Y49163629D01*
X21283533Y49335181D01*
X21289081Y49342527D01*
X21425017Y49491643D01*
X21431817Y49497841D01*
X21592837Y49619439D01*
X21600657Y49624281D01*
X21781287Y49714223D01*
X21789861Y49717545D01*
X21983938Y49772764D01*
X21992987Y49774456D01*
X22196195Y49793286D01*
X22200811Y49793500D01*
X22799189Y49793500D01*
X22803805Y49793286D01*
X23007012Y49774456D01*
X23016061Y49772764D01*
X23210138Y49717545D01*
X23218712Y49714223D01*
X23399342Y49624281D01*
X23407162Y49619439D01*
X23568182Y49497841D01*
X23574982Y49491643D01*
X23710918Y49342527D01*
X23716466Y49335181D01*
X23780041Y49232504D01*
X23827852Y49192328D01*
X23863972Y49185153D01*
X26994115Y49151005D01*
X27053652Y49169857D01*
X27090395Y49220354D01*
X27095192Y49252665D01*
X26800175Y66953707D01*
X26779689Y67012702D01*
X26747599Y67040088D01*
X26363592Y67246861D01*
X26302111Y67257819D01*
X26246118Y67230165D01*
X26217449Y67174684D01*
X26217543Y67142374D01*
X26508283Y65397928D01*
X26508933Y65391430D01*
X26509999Y65360326D01*
X26510888Y65350016D01*
X26515162Y65319190D01*
X26515635Y65312680D01*
X26593714Y53991087D01*
X26593333Y53984580D01*
X26588499Y53945798D01*
X26587842Y53938143D01*
X26586154Y53902368D01*
X26583853Y53889583D01*
X26582797Y53886274D01*
X26578831Y53868237D01*
X26578403Y53864801D01*
X26575127Y53852232D01*
X26561662Y53819078D01*
X26559046Y53811853D01*
X26547155Y53774596D01*
X26544764Y53768510D01*
X25922551Y52446309D01*
X25919392Y52440599D01*
X25914632Y52433186D01*
X25906392Y52417426D01*
X25904269Y52412300D01*
X25897776Y52401054D01*
X25877219Y52374264D01*
X25872404Y52367413D01*
X25854180Y52339027D01*
X25845794Y52329103D01*
X25841698Y52325376D01*
X25829668Y52312293D01*
X25824301Y52305299D01*
X25819989Y52300382D01*
X24358366Y50838759D01*
X24353455Y50834453D01*
X24257702Y50760979D01*
X24246443Y50754478D01*
X24137967Y50709546D01*
X24125407Y50706181D01*
X24005756Y50690429D01*
X23999219Y50690000D01*
X23886826Y50690000D01*
X23827499Y50670500D01*
X23801804Y50642643D01*
X23716466Y50504818D01*
X23710918Y50497472D01*
X23574982Y50348356D01*
X23568182Y50342158D01*
X23407162Y50220560D01*
X23399342Y50215718D01*
X23218712Y50125776D01*
X23210138Y50122454D01*
X23016061Y50067235D01*
X23007012Y50065543D01*
X22803805Y50046714D01*
X22799189Y50046500D01*
X22200811Y50046500D01*
X22196195Y50046714D01*
X21992987Y50065543D01*
X21983938Y50067235D01*
X21789861Y50122454D01*
X21781287Y50125776D01*
X21600657Y50215718D01*
X21592837Y50220560D01*
X21431817Y50342158D01*
X21425017Y50348356D01*
X21289081Y50497472D01*
X21283533Y50504818D01*
X21191959Y50652715D01*
X21119990Y50699216D01*
X21067091Y50706180D01*
X21054537Y50709544D01*
X20946057Y50754478D01*
X20934800Y50760977D01*
X20841646Y50832456D01*
X20832456Y50841646D01*
X20760977Y50934800D01*
X20754478Y50946057D01*
X20709545Y51054536D01*
X20706182Y51067085D01*
X20690855Y51183504D01*
X20690856Y51196500D01*
X20706181Y51312907D01*
X20709546Y51325467D01*
X20754478Y51433943D01*
X20760979Y51445202D01*
X20832453Y51538349D01*
X20841647Y51547544D01*
X20934800Y51619022D01*
X20946057Y51625521D01*
X21054532Y51670453D01*
X21067092Y51673818D01*
X21119990Y51680783D01*
X21191957Y51727283D01*
X21283531Y51875178D01*
X21289081Y51882527D01*
X21425017Y52031643D01*
X21431817Y52037841D01*
X21592837Y52159439D01*
X21600657Y52164281D01*
X21781287Y52254223D01*
X21789861Y52257545D01*
X21983938Y52312764D01*
X21992987Y52314456D01*
X22196195Y52333286D01*
X22200811Y52333500D01*
X22799189Y52333500D01*
X22803805Y52333286D01*
X23007012Y52314456D01*
X23016061Y52312764D01*
X23210138Y52257545D01*
X23218712Y52254223D01*
X23399342Y52164281D01*
X23407162Y52159439D01*
X23568182Y52037841D01*
X23574982Y52031643D01*
X23710918Y51882527D01*
X23716469Y51875177D01*
X23750999Y51819408D01*
X23798810Y51779231D01*
X23861133Y51775254D01*
X23906732Y51801339D01*
X25041156Y52935763D01*
X25060927Y52963894D01*
X25583306Y54073948D01*
X25592822Y54117218D01*
X25515965Y65261483D01*
X25514606Y65277234D01*
X25508014Y65316784D01*
X25479026Y65372098D01*
X25422873Y65399428D01*
X25361457Y65388115D01*
X25318728Y65342570D01*
X25309375Y65300343D01*
X25309375Y65159064D01*
X25309060Y65153452D01*
X25292453Y65006071D01*
X25289967Y64995179D01*
X25241907Y64857830D01*
X25237066Y64847777D01*
X25159648Y64724567D01*
X25152685Y64715835D01*
X25049789Y64612939D01*
X25041057Y64605976D01*
X24917847Y64528558D01*
X24907794Y64523717D01*
X24770444Y64475656D01*
X24759554Y64473171D01*
X24614958Y64456879D01*
X24603792Y64456879D01*
X24459195Y64473171D01*
X24448305Y64475656D01*
X24310955Y64523717D01*
X24300902Y64528558D01*
X24177692Y64605976D01*
X24168960Y64612939D01*
X24154938Y64626961D01*
X24084227Y64656250D01*
X23845805Y64656250D01*
X23786478Y64636750D01*
X23750288Y64585855D01*
X23760783Y64503607D01*
X23822687Y64403629D01*
X23826789Y64395391D01*
X23899674Y64207250D01*
X23902198Y64198382D01*
X23939273Y64000052D01*
X23940122Y63990887D01*
X23940122Y63789112D01*
X23939273Y63779947D01*
X23902198Y63581617D01*
X23899674Y63572749D01*
X23826789Y63384608D01*
X23822687Y63376370D01*
X23716466Y63204818D01*
X23710918Y63197472D01*
X23574982Y63048356D01*
X23568182Y63042158D01*
X23407162Y62920560D01*
X23399342Y62915718D01*
X23218712Y62825776D01*
X23210138Y62822454D01*
X23016061Y62767235D01*
X23007012Y62765543D01*
X22803805Y62746714D01*
X22799189Y62746500D01*
X22200811Y62746500D01*
X22196195Y62746714D01*
X21992987Y62765543D01*
X21983938Y62767235D01*
X21789861Y62822454D01*
X21781287Y62825776D01*
X21600657Y62915718D01*
X21592837Y62920560D01*
X21431817Y63042158D01*
X21425017Y63048356D01*
X21289081Y63197472D01*
X21283533Y63204818D01*
X21177312Y63376370D01*
X21171150Y63388746D01*
X21168911Y63387631D01*
X21135268Y63428696D01*
X21081876Y63444337D01*
X17189698Y63456242D01*
X17179035Y63457038D01*
X17179030Y63456970D01*
X17173012Y63457500D01*
X17167017Y63457679D01*
X17118157Y63466201D01*
X17115508Y63466626D01*
X17066481Y63473828D01*
X17060735Y63475534D01*
X17058548Y63476048D01*
X17055201Y63477140D01*
X17052647Y63477936D01*
X17049248Y63478945D01*
X17047152Y63479767D01*
X17041463Y63481624D01*
X16997008Y63503553D01*
X16994588Y63504706D01*
X16949552Y63525440D01*
X16944526Y63528692D01*
X16942582Y63529796D01*
X16939656Y63531802D01*
X16937420Y63533291D01*
X16934463Y63535204D01*
X16932687Y63536580D01*
X16927746Y63539968D01*
X16891247Y63573555D01*
X16889251Y63575344D01*
X16851904Y63607907D01*
X16848008Y63612431D01*
X16846432Y63614060D01*
X16844163Y63616842D01*
X16842448Y63618887D01*
X16840175Y63621526D01*
X16838868Y63623334D01*
X16835078Y63627981D01*
X16809521Y63670489D01*
X16808109Y63672768D01*
X16781444Y63714540D01*
X16778976Y63719989D01*
X16776164Y63725349D01*
X16776223Y63725379D01*
X16771379Y63734915D01*
X16371013Y64685785D01*
X16311877Y64741367D01*
X16264080Y64758092D01*
X16254027Y64762933D01*
X16130817Y64840351D01*
X16122085Y64847314D01*
X16019189Y64950210D01*
X16012226Y64958942D01*
X15934808Y65082152D01*
X15929967Y65092205D01*
X15881906Y65229555D01*
X15879421Y65240445D01*
X15863129Y65385042D01*
X15863129Y65396208D01*
X15879421Y65540804D01*
X15881905Y65551689D01*
X15908979Y65629063D01*
X15910167Y65691501D01*
X15867794Y65746762D01*
X15818317Y65777851D01*
X15809584Y65784815D01*
X15706689Y65887710D01*
X15699726Y65896442D01*
X15622308Y66019652D01*
X15617467Y66029705D01*
X15569406Y66167055D01*
X15566921Y66177945D01*
X15550629Y66322542D01*
X15550629Y66333708D01*
X15566921Y66478304D01*
X15569406Y66489194D01*
X15617467Y66626544D01*
X15622308Y66636597D01*
X15699726Y66759807D01*
X15706689Y66768539D01*
X15726529Y66788379D01*
X15754691Y66844119D01*
X15744293Y66905697D01*
X15699389Y66949098D01*
X15644621Y66958461D01*
X15630581Y66956879D01*
X15619417Y66956879D01*
X15474820Y66973171D01*
X15463930Y66975656D01*
X15429305Y66987772D01*
X15366866Y66988961D01*
X15315898Y66952875D01*
X15296283Y66894437D01*
X15265916Y64009499D01*
X15266321Y63999392D01*
X15333195Y63263785D01*
X15355059Y63209919D01*
X16230404Y62128610D01*
X16296932Y62092159D01*
X16322053Y62089328D01*
X16332945Y62086842D01*
X16470294Y62038782D01*
X16480347Y62033941D01*
X16603557Y61956523D01*
X16612289Y61949560D01*
X16715185Y61846664D01*
X16722148Y61837932D01*
X16799566Y61714722D01*
X16804407Y61704669D01*
X16852467Y61567320D01*
X16854953Y61556428D01*
X16871246Y61411832D01*
X16871246Y61400668D01*
X16854953Y61256071D01*
X16852467Y61245179D01*
X16804407Y61107830D01*
X16799566Y61097777D01*
X16722148Y60974567D01*
X16715185Y60965835D01*
X16612289Y60862939D01*
X16603557Y60855976D01*
X16480347Y60778558D01*
X16470294Y60773717D01*
X16332944Y60725656D01*
X16322054Y60723171D01*
X16177458Y60706879D01*
X16166292Y60706879D01*
X16021695Y60723171D01*
X16010805Y60725656D01*
X15873455Y60773717D01*
X15863402Y60778558D01*
X15740192Y60855976D01*
X15731460Y60862939D01*
X15628564Y60965835D01*
X15621601Y60974567D01*
X15544183Y61097777D01*
X15539342Y61107830D01*
X15491281Y61245180D01*
X15488796Y61256070D01*
X15472504Y61400667D01*
X15472504Y61411830D01*
X15474117Y61426146D01*
X15452471Y61500263D01*
X15299600Y61689104D01*
X15247115Y61722946D01*
X15184786Y61719052D01*
X15136922Y61678939D01*
X15121875Y61626184D01*
X15121875Y58650388D01*
X15120309Y58645623D01*
X15098047Y58634375D01*
X13737888Y58634375D01*
X13733123Y58635941D01*
X13721875Y58658203D01*
X13721875Y62318362D01*
X13723441Y62323127D01*
X13745703Y62334375D01*
X14567625Y62334375D01*
X14626952Y62353875D01*
X14663142Y62404770D01*
X14662080Y62467211D01*
X14645350Y62497295D01*
X14457186Y62729732D01*
X14453417Y62735068D01*
X14437370Y62761263D01*
X14431434Y62769902D01*
X14414726Y62791677D01*
X14408230Y62802928D01*
X14403689Y62813891D01*
X14396573Y62827858D01*
X14390370Y62837984D01*
X14385085Y62849860D01*
X14377292Y62876182D01*
X14373795Y62886061D01*
X14363293Y62911417D01*
X14359932Y62923958D01*
X14358383Y62935727D01*
X14355124Y62951064D01*
X14351753Y62962449D01*
X14349722Y62975285D01*
X14349008Y63002728D01*
X14348187Y63013177D01*
X14344178Y63043632D01*
X14343750Y63050156D01*
X14343750Y63097783D01*
X14343339Y63106837D01*
X14315050Y63418011D01*
X14290259Y63475329D01*
X14236297Y63506762D01*
X14157659Y63490559D01*
X12914073Y62609685D01*
X12876932Y62559481D01*
X12871875Y62528083D01*
X12871875Y62434375D01*
X12891375Y62375048D01*
X12971875Y62334375D01*
X13105862Y62334375D01*
X13110627Y62332809D01*
X13121875Y62310547D01*
X13121875Y58650388D01*
X13120309Y58645623D01*
X13098047Y58634375D01*
X11737888Y58634375D01*
X11733123Y58635941D01*
X11721875Y58658203D01*
X11721875Y62318362D01*
X11723441Y62323127D01*
X11745703Y62334375D01*
X11871875Y62334375D01*
X11931202Y62353875D01*
X11971875Y62434375D01*
X11971875Y62808929D01*
X11972383Y62816037D01*
X11973675Y62825021D01*
X11974591Y62843757D01*
X11974343Y62849249D01*
X11975724Y62863343D01*
X11977925Y62872316D01*
X11973116Y62934581D01*
X11932305Y62981851D01*
X11871408Y62995691D01*
X11825631Y62979536D01*
X11107381Y62504408D01*
X11068659Y62455412D01*
X11066555Y62392998D01*
X11101891Y62341506D01*
X11107807Y62338391D01*
X11121875Y62310547D01*
X11121875Y58650388D01*
X11120309Y58645623D01*
X11098047Y58634375D01*
X9737888Y58634375D01*
X9733123Y58635941D01*
X9721875Y58658203D01*
X9721875Y62318362D01*
X9723441Y62323127D01*
X9745703Y62334375D01*
X9847326Y62334375D01*
X9906653Y62353875D01*
X9947318Y62435632D01*
X9945706Y62563897D01*
X9946125Y62571010D01*
X9948889Y62592112D01*
X9949727Y62606424D01*
X9949493Y62624119D01*
X9951322Y62638158D01*
X9956181Y62655556D01*
X9959020Y62669470D01*
X9961365Y62687374D01*
X9965185Y62701016D01*
X9972334Y62717206D01*
X9977169Y62730698D01*
X9981930Y62747743D01*
X9987639Y62760696D01*
X9997203Y62776019D01*
X10003848Y62788571D01*
X10011144Y62805094D01*
X10018647Y62817097D01*
X10030069Y62830618D01*
X10038512Y62842204D01*
X10047887Y62857226D01*
X10057014Y62868044D01*
X10070511Y62880056D01*
X10080424Y62890228D01*
X10092073Y62904018D01*
X10102649Y62913417D01*
X10117418Y62923173D01*
X10128781Y62931911D01*
X10144684Y62946064D01*
X10150332Y62950409D01*
X11426677Y63794722D01*
X11465399Y63843718D01*
X11467503Y63906132D01*
X11432167Y63957624D01*
X11371505Y63978125D01*
X8300388Y63978125D01*
X8295623Y63979691D01*
X8284375Y64001953D01*
X8284375Y65848290D01*
X8264875Y65907617D01*
X8213980Y65943807D01*
X8151539Y65942745D01*
X8113664Y65919001D01*
X8096664Y65902001D01*
X8087932Y65895038D01*
X7964722Y65817620D01*
X7954669Y65812779D01*
X7914888Y65798859D01*
X7855331Y65742261D01*
X7292978Y64364499D01*
X7289823Y64358113D01*
X7267485Y64320015D01*
X7264622Y64314782D01*
X7244574Y64275377D01*
X7240900Y64269277D01*
X6839190Y63698687D01*
X6821009Y63637915D01*
X6859705Y62431170D01*
X6881097Y62372498D01*
X6959654Y62334375D01*
X7105862Y62334375D01*
X7110627Y62332809D01*
X7121875Y62310547D01*
X7121875Y58650388D01*
X7120309Y58645623D01*
X7098047Y58634375D01*
X5737888Y58634375D01*
X5733123Y58635941D01*
X5721875Y58658203D01*
X5721875Y62318362D01*
X5723441Y62323127D01*
X5745703Y62334375D01*
X5759038Y62334375D01*
X5818365Y62353875D01*
X5854555Y62404770D01*
X5858987Y62437580D01*
X5817862Y63720084D01*
X5818080Y63726602D01*
X5829990Y63846712D01*
X5832951Y63859374D01*
X5874383Y63969232D01*
X5880520Y63980694D01*
X5948974Y64076088D01*
X5957866Y64085569D01*
X6048681Y64159997D01*
X6057343Y64165375D01*
X6086362Y64192764D01*
X6471126Y64739282D01*
X6481943Y64759059D01*
X6633926Y65131418D01*
X6638291Y65193716D01*
X6604846Y65246455D01*
X6546634Y65269068D01*
X6508314Y65263597D01*
X6489189Y65256905D01*
X6478304Y65254421D01*
X6333708Y65238129D01*
X6322542Y65238129D01*
X6177945Y65254421D01*
X6167060Y65256905D01*
X6025641Y65306389D01*
X5963203Y65307577D01*
X5907942Y65265203D01*
X5862773Y65193317D01*
X5855810Y65184585D01*
X5752914Y65081689D01*
X5744182Y65074726D01*
X5620972Y64997308D01*
X5610919Y64992467D01*
X5473569Y64944406D01*
X5462679Y64941921D01*
X5318083Y64925629D01*
X5306917Y64925629D01*
X5162320Y64941921D01*
X5151430Y64944406D01*
X5014080Y64992467D01*
X5004027Y64997308D01*
X4880817Y65074726D01*
X4872085Y65081689D01*
X4868624Y65085150D01*
X4786870Y65113827D01*
X4662626Y65100022D01*
X4651933Y65099602D01*
X4651935Y65099556D01*
X4647409Y65099466D01*
X4634344Y65098532D01*
X4588289Y65101826D01*
X4584368Y65102029D01*
X4538200Y65103513D01*
X4525288Y65105795D01*
X4524001Y65105954D01*
X4521080Y65106530D01*
X4519815Y65106874D01*
X4507019Y65109658D01*
X4463754Y65125795D01*
X4460050Y65127094D01*
X4416179Y65141522D01*
X4404437Y65147348D01*
X4403232Y65147870D01*
X4400174Y65149463D01*
X4399293Y65149900D01*
X4398175Y65150061D01*
X4394964Y65151452D01*
X4393737Y65151910D01*
X4393308Y65150761D01*
X4337480Y65158794D01*
X4270184Y65113518D01*
X4222143Y65037061D01*
X4215185Y65028335D01*
X4178647Y64991797D01*
X4150485Y64936057D01*
X4164685Y64867883D01*
X4182379Y64839722D01*
X4187221Y64829668D01*
X4235281Y64692320D01*
X4237766Y64681430D01*
X4244907Y64618054D01*
X4273567Y64558539D01*
X4413741Y64418365D01*
X4418047Y64413454D01*
X4491520Y64317702D01*
X4498021Y64306443D01*
X4542953Y64197967D01*
X4546318Y64185407D01*
X4562071Y64065756D01*
X4562500Y64059219D01*
X4562500Y63128281D01*
X4562071Y63121744D01*
X4546318Y63002092D01*
X4542953Y62989532D01*
X4498021Y62881057D01*
X4491522Y62869800D01*
X4420044Y62776647D01*
X4410849Y62767453D01*
X4317702Y62695979D01*
X4306443Y62689478D01*
X4197967Y62644546D01*
X4185407Y62641181D01*
X4065756Y62625429D01*
X4059219Y62625000D01*
X3757474Y62625000D01*
X3754975Y62624969D01*
X1281022Y62563120D01*
X1274858Y62562775D01*
X943934Y62533999D01*
X886519Y62509433D01*
X854874Y62455594D01*
X861341Y62393480D01*
X903398Y62347315D01*
X952597Y62334375D01*
X1105862Y62334375D01*
X1110627Y62332809D01*
X1121875Y62310547D01*
X1121875Y58650388D01*
X1120309Y58645623D01*
X1098047Y58634375D01*
X-262112Y58634375D01*
X-266877Y58635941D01*
X-278125Y58658203D01*
X-278125Y59782665D01*
X-297625Y59841992D01*
X-302664Y59845575D01*
X-289841Y59857868D01*
X-278125Y59904835D01*
X-278125Y61827078D01*
X-297625Y61886405D01*
X-348520Y61922595D01*
X-411153Y61921466D01*
X-479555Y61897531D01*
X-490445Y61895046D01*
X-635042Y61878754D01*
X-646208Y61878754D01*
X-790804Y61895046D01*
X-801694Y61897531D01*
X-939044Y61945592D01*
X-949097Y61950433D01*
X-1072307Y62027851D01*
X-1081039Y62034814D01*
X-1183935Y62137710D01*
X-1190893Y62146436D01*
X-1229021Y62207117D01*
X-1277096Y62246976D01*
X-1339444Y62250542D01*
X-1391750Y62216422D01*
X-1413684Y62155303D01*
X-1434906Y60627401D01*
X-1416232Y60567808D01*
X-1365845Y60530915D01*
X-1323719Y60526641D01*
X-1177457Y60543121D01*
X-1166293Y60543121D01*
X-1021696Y60526828D01*
X-1010804Y60524342D01*
X-873455Y60476282D01*
X-863402Y60471441D01*
X-740192Y60394023D01*
X-731460Y60387060D01*
X-628564Y60284164D01*
X-621601Y60275432D01*
X-544183Y60152222D01*
X-539342Y60142169D01*
X-491281Y60004819D01*
X-488796Y59993929D01*
X-477496Y59893639D01*
X-454639Y59843769D01*
X-460596Y59839221D01*
X-477496Y59793861D01*
X-488796Y59693570D01*
X-491281Y59682680D01*
X-539342Y59545330D01*
X-544183Y59535277D01*
X-621601Y59412067D01*
X-628564Y59403335D01*
X-731460Y59300439D01*
X-740192Y59293476D01*
X-863402Y59216058D01*
X-873455Y59211217D01*
X-1010805Y59163156D01*
X-1021695Y59160671D01*
X-1166292Y59144379D01*
X-1177458Y59144379D01*
X-1322054Y59160671D01*
X-1332944Y59163156D01*
X-1470294Y59211217D01*
X-1480347Y59216058D01*
X-1603557Y59293476D01*
X-1612289Y59300439D01*
X-1692977Y59381127D01*
X-1749459Y59409398D01*
X-1760325Y59410960D01*
X-1773912Y59414949D01*
X-1785997Y59420468D01*
X-1800981Y59425914D01*
X-1813760Y59429434D01*
X-1826738Y59435099D01*
X-1845841Y59446927D01*
X-1856942Y59452868D01*
X-1877408Y59462214D01*
X-1889319Y59469869D01*
X-1899360Y59478570D01*
X-1912205Y59488018D01*
X-1923470Y59494993D01*
X-1934330Y59504088D01*
X-1949328Y59520819D01*
X-1958303Y59529644D01*
X-1980712Y59549062D01*
X-1981819Y59547785D01*
X-2028009Y59575427D01*
X-2090172Y59569451D01*
X-2136668Y59527761D01*
X-2150000Y59477875D01*
X-2150000Y47401141D01*
X-2130500Y47341814D01*
X-2079605Y47305624D01*
X-1996797Y47316469D01*
X-1949097Y47346441D01*
X-1939044Y47351282D01*
X-1801695Y47399342D01*
X-1790803Y47401828D01*
X-1646207Y47418121D01*
X-1635043Y47418121D01*
X-1490446Y47401828D01*
X-1479554Y47399342D01*
X-1342205Y47351282D01*
X-1332152Y47346441D01*
X-1208942Y47269023D01*
X-1200210Y47262060D01*
X-1097314Y47159164D01*
X-1090351Y47150432D01*
X-1012933Y47027222D01*
X-1008092Y47017169D01*
X-960031Y46879819D01*
X-957546Y46868929D01*
X-941254Y46724333D01*
X-941254Y46713167D01*
X-957546Y46568570D01*
X-960031Y46557680D01*
X-1008092Y46420330D01*
X-1012933Y46410277D01*
X-1090351Y46287067D01*
X-1097314Y46278335D01*
X-1200210Y46175439D01*
X-1208942Y46168476D01*
X-1332152Y46091058D01*
X-1342205Y46086217D01*
X-1479555Y46038156D01*
X-1490445Y46035671D01*
X-1635042Y46019379D01*
X-1646208Y46019379D01*
X-1790804Y46035671D01*
X-1801694Y46038156D01*
X-1939044Y46086217D01*
X-1949097Y46091058D01*
X-1996797Y46121030D01*
X-2057405Y46136083D01*
X-2115126Y46112243D01*
X-2150000Y46036358D01*
X-2150000Y43120000D01*
X-2130500Y43060673D01*
X-2050000Y43020000D01*
X-378125Y43020000D01*
X-318798Y43039500D01*
X-278125Y43120000D01*
X-278125Y44318362D01*
X-276559Y44323127D01*
X-254297Y44334375D01*
X1105862Y44334375D01*
X1110627Y44332809D01*
X1121875Y44310547D01*
X1121875Y40650388D01*
X1120309Y40645623D01*
X1098047Y40634375D01*
X12250Y40634375D01*
X-47077Y40614875D01*
X-87750Y40534375D01*
X-87750Y40450000D01*
X-68250Y40390673D01*
X12250Y40350000D01*
X1737888Y40350000D01*
X1737888Y40634375D01*
X1733123Y40635941D01*
X1721875Y40658203D01*
X1721875Y44318362D01*
X1723441Y44323127D01*
X1737888Y44330426D01*
X1737888Y58634375D01*
X1733123Y58635941D01*
X1721875Y58658203D01*
X1721875Y62318362D01*
X1723441Y62323127D01*
X1745703Y62334375D01*
X3105862Y62334375D01*
X3110627Y62332809D01*
X3121875Y62310547D01*
X3121875Y58650388D01*
X3120309Y58645623D01*
X3098047Y58634375D01*
X1737888Y58634375D01*
X1737888Y44330426D01*
X1745703Y44334375D01*
X3105862Y44334375D01*
X3110627Y44332809D01*
X3121875Y44310547D01*
X3121875Y40650388D01*
X3120309Y40645623D01*
X3098047Y40634375D01*
X1737888Y40634375D01*
X1737888Y40350000D01*
X3737888Y40350000D01*
X3737888Y40634375D01*
X3733123Y40635941D01*
X3721875Y40658203D01*
X3721875Y44318362D01*
X3723441Y44323127D01*
X3737888Y44330426D01*
X3737888Y58634375D01*
X3733123Y58635941D01*
X3721875Y58658203D01*
X3721875Y62318362D01*
X3723441Y62323127D01*
X3745703Y62334375D01*
X5105862Y62334375D01*
X5110627Y62332809D01*
X5121875Y62310547D01*
X5121875Y58650388D01*
X5120309Y58645623D01*
X5098047Y58634375D01*
X3737888Y58634375D01*
X3737888Y44330426D01*
X3745703Y44334375D01*
X5105862Y44334375D01*
X5110627Y44332809D01*
X5121875Y44310547D01*
X5121875Y40650388D01*
X5120309Y40645623D01*
X5098047Y40634375D01*
X3737888Y40634375D01*
X3737888Y40350000D01*
X5737888Y40350000D01*
X5737888Y40634375D01*
X5733123Y40635941D01*
X5721875Y40658203D01*
X5721875Y44318362D01*
X5723441Y44323127D01*
X5745703Y44334375D01*
X7105862Y44334375D01*
X7110627Y44332809D01*
X7121875Y44310547D01*
X7121875Y40650388D01*
X7120309Y40645623D01*
X7098047Y40634375D01*
X5737888Y40634375D01*
X5737888Y40350000D01*
X7737888Y40350000D01*
X7737888Y40634375D01*
X7733123Y40635941D01*
X7721875Y40658203D01*
X7721875Y44318362D01*
X7726091Y44331188D01*
X7756662Y44361760D01*
X7761795Y44439883D01*
X7717843Y44565491D01*
X7715358Y44576381D01*
X7699066Y44720978D01*
X7699066Y44732144D01*
X7715358Y44876740D01*
X7717843Y44887630D01*
X7737888Y44944915D01*
X7737888Y58634375D01*
X7733123Y58635941D01*
X7721875Y58658203D01*
X7721875Y62034227D01*
X7692586Y62104938D01*
X7659814Y62137710D01*
X7652851Y62146442D01*
X7575433Y62269652D01*
X7570592Y62279705D01*
X7522531Y62417055D01*
X7520046Y62427945D01*
X7503754Y62572542D01*
X7503754Y62583708D01*
X7520046Y62728304D01*
X7522531Y62739194D01*
X7570592Y62876544D01*
X7575433Y62886597D01*
X7652851Y63009807D01*
X7659814Y63018539D01*
X7762710Y63121435D01*
X7771442Y63128398D01*
X7894652Y63205816D01*
X7904705Y63210657D01*
X8042054Y63258717D01*
X8052946Y63261203D01*
X8197543Y63277496D01*
X8208707Y63277496D01*
X8353303Y63261203D01*
X8364195Y63258717D01*
X8501544Y63210657D01*
X8511597Y63205816D01*
X8634807Y63128398D01*
X8643539Y63121435D01*
X8746435Y63018539D01*
X8753398Y63009807D01*
X8830816Y62886597D01*
X8835657Y62876544D01*
X8883717Y62739195D01*
X8886203Y62728303D01*
X8902496Y62583707D01*
X8902496Y62572543D01*
X8894080Y62497851D01*
X8894489Y62472281D01*
X8895110Y62468004D01*
X8895624Y62461498D01*
X8896002Y62433045D01*
X8916289Y62373982D01*
X8995993Y62334375D01*
X9105862Y62334375D01*
X9110627Y62332809D01*
X9121875Y62310547D01*
X9121875Y58650388D01*
X9120309Y58645623D01*
X9098047Y58634375D01*
X7737888Y58634375D01*
X7737888Y44944915D01*
X7765904Y45024980D01*
X7770745Y45035033D01*
X7848163Y45158243D01*
X7855126Y45166975D01*
X7958022Y45269871D01*
X7966754Y45276834D01*
X8089964Y45354252D01*
X8100017Y45359093D01*
X8237366Y45407153D01*
X8253728Y45410888D01*
X8253389Y45412375D01*
X8303917Y45435536D01*
X8334179Y45490163D01*
X8320619Y45562088D01*
X8278558Y45629027D01*
X8273717Y45639080D01*
X8225656Y45776430D01*
X8223171Y45787320D01*
X8206879Y45931917D01*
X8206879Y45943083D01*
X8223171Y46087679D01*
X8225656Y46098569D01*
X8273717Y46235919D01*
X8278558Y46245972D01*
X8355976Y46369182D01*
X8362939Y46377914D01*
X8465835Y46480810D01*
X8474567Y46487773D01*
X8597777Y46565191D01*
X8607830Y46570032D01*
X8745179Y46618092D01*
X8756071Y46620578D01*
X8900668Y46636871D01*
X8911832Y46636871D01*
X9056428Y46620578D01*
X9067320Y46618092D01*
X9204669Y46570032D01*
X9214722Y46565191D01*
X9337932Y46487773D01*
X9346664Y46480810D01*
X9449560Y46377914D01*
X9456523Y46369182D01*
X9533941Y46245972D01*
X9538782Y46235919D01*
X9586842Y46098570D01*
X9589328Y46087678D01*
X9598933Y46002437D01*
X9629529Y45941039D01*
X10732120Y44896478D01*
X10738787Y44889276D01*
X10738875Y44889357D01*
X10742577Y44885312D01*
X10777045Y44841784D01*
X10777780Y44840866D01*
X10812822Y44797667D01*
X10813312Y44796966D01*
X10817214Y44790440D01*
X10817823Y44789434D01*
X10821835Y44782899D01*
X10822223Y44782153D01*
X10844300Y44731075D01*
X10844772Y44730000D01*
X10867399Y44679292D01*
X10867667Y44678556D01*
X10869802Y44671051D01*
X10870124Y44669942D01*
X10872290Y44662650D01*
X10872455Y44661901D01*
X10880558Y44606863D01*
X10880736Y44605701D01*
X10889468Y44550866D01*
X10889943Y44545394D01*
X10889825Y44545384D01*
X10890616Y44535607D01*
X10892185Y44432848D01*
X10912588Y44373825D01*
X10992173Y44334375D01*
X11105862Y44334375D01*
X11110627Y44332809D01*
X11121875Y44310547D01*
X11121875Y40650388D01*
X11120309Y40645623D01*
X11098047Y40634375D01*
X9737888Y40634375D01*
X9733123Y40635941D01*
X9721875Y40658203D01*
X9721875Y44318362D01*
X9728917Y44339787D01*
X9744991Y44355860D01*
X9754341Y44417606D01*
X9724512Y44473553D01*
X9254344Y44918976D01*
X9197864Y44945622D01*
X9136589Y44933564D01*
X9094416Y44887505D01*
X9086198Y44835184D01*
X9097808Y44732143D01*
X9097808Y44720979D01*
X9081515Y44576382D01*
X9079029Y44565490D01*
X9042931Y44462327D01*
X9041742Y44399888D01*
X9077828Y44348920D01*
X9106093Y44334299D01*
X9110627Y44332809D01*
X9121875Y44310547D01*
X9121875Y40650388D01*
X9120309Y40645623D01*
X9098047Y40634375D01*
X7737888Y40634375D01*
X7737888Y40350000D01*
X11737888Y40350000D01*
X11737888Y40634375D01*
X11733123Y40635941D01*
X11721875Y40658203D01*
X11721875Y44318362D01*
X11723441Y44323127D01*
X11745703Y44334375D01*
X13105862Y44334375D01*
X13110627Y44332809D01*
X13121875Y44310547D01*
X13121875Y40650388D01*
X13120309Y40645623D01*
X13098047Y40634375D01*
X11737888Y40634375D01*
X11737888Y40350000D01*
X13737888Y40350000D01*
X13737888Y40634375D01*
X13733123Y40635941D01*
X13721875Y40658203D01*
X13721875Y44318362D01*
X13723441Y44323127D01*
X13745703Y44334375D01*
X15105862Y44334375D01*
X15110627Y44332809D01*
X15121875Y44310547D01*
X15121875Y40650388D01*
X15120309Y40645623D01*
X15098047Y40634375D01*
X13737888Y40634375D01*
X13737888Y40350000D01*
X16364660Y40350000D01*
X16364660Y45820025D01*
X16187289Y45830378D01*
X16177004Y45832069D01*
X16005669Y45879070D01*
X15995954Y45882866D01*
X15838128Y45964466D01*
X15829427Y45970190D01*
X15692015Y46082822D01*
X15684690Y46090234D01*
X15573694Y46228979D01*
X15568077Y46237742D01*
X15488354Y46396530D01*
X15484677Y46406282D01*
X15439711Y46578175D01*
X15438143Y46588471D01*
X15429897Y46765951D01*
X15430505Y46776359D01*
X15459341Y46951673D01*
X15462097Y46961722D01*
X15526755Y47127217D01*
X15531540Y47136471D01*
X15629191Y47284906D01*
X15635793Y47292960D01*
X15703572Y47359939D01*
X15732064Y47415510D01*
X15722536Y47476164D01*
X15696875Y47526952D01*
X15696875Y51387112D01*
X15698441Y51391877D01*
X15720703Y51403125D01*
X17880862Y51403125D01*
X17885627Y51401559D01*
X17896875Y51379297D01*
X17896875Y47519138D01*
X17895309Y47514373D01*
X17873047Y47503125D01*
X17645486Y47503125D01*
X17586159Y47483625D01*
X17549969Y47432730D01*
X17556117Y47358256D01*
X17558522Y47353465D01*
X17562197Y47343719D01*
X17607161Y47171837D01*
X17608732Y47161520D01*
X17616977Y46984049D01*
X17616369Y46973641D01*
X17587535Y46798329D01*
X17584777Y46788275D01*
X17520121Y46622785D01*
X17515335Y46613527D01*
X17417687Y46465099D01*
X17411078Y46457035D01*
X17282841Y46330313D01*
X17278928Y46326832D01*
X16892384Y46017596D01*
X16888154Y46014562D01*
X16736361Y45917262D01*
X16727041Y45912583D01*
X16560798Y45849898D01*
X16550718Y45847261D01*
X16375068Y45820509D01*
X16364660Y45820025D01*
X16364660Y40350000D01*
X18900667Y40350000D01*
X18900667Y51175629D01*
X18756070Y51191921D01*
X18745180Y51194406D01*
X18607830Y51242467D01*
X18597777Y51247308D01*
X18474567Y51324726D01*
X18465835Y51331689D01*
X18362939Y51434585D01*
X18355976Y51443317D01*
X18278558Y51566527D01*
X18273717Y51576580D01*
X18225656Y51713930D01*
X18223171Y51724820D01*
X18206879Y51869417D01*
X18206879Y51880583D01*
X18223171Y52025179D01*
X18225656Y52036069D01*
X18273717Y52173419D01*
X18278558Y52183472D01*
X18355976Y52306682D01*
X18362939Y52315414D01*
X18465835Y52418310D01*
X18474567Y52425273D01*
X18597777Y52502691D01*
X18607830Y52507532D01*
X18745179Y52555592D01*
X18756071Y52558078D01*
X18900668Y52574371D01*
X18911832Y52574371D01*
X19056428Y52558078D01*
X19067320Y52555592D01*
X19204669Y52507532D01*
X19214722Y52502691D01*
X19337932Y52425273D01*
X19346664Y52418310D01*
X19399828Y52365146D01*
X19455568Y52336984D01*
X19541250Y52365146D01*
X20458211Y53282107D01*
X20487500Y53352818D01*
X20487500Y53581250D01*
X20468000Y53640577D01*
X20387500Y53681250D01*
X18643750Y53681250D01*
X18584423Y53661750D01*
X18543750Y53581250D01*
X18543750Y52747263D01*
X18542184Y52742498D01*
X18519922Y52731250D01*
X16459763Y52731250D01*
X16454998Y52732816D01*
X16443750Y52755078D01*
X16443750Y54415237D01*
X16445316Y54420002D01*
X16488846Y54441996D01*
X16533005Y54486155D01*
X16542354Y54547901D01*
X16513248Y54603153D01*
X16474975Y54626250D01*
X16454998Y54632816D01*
X16443750Y54655078D01*
X16443750Y56315237D01*
X16447270Y56325946D01*
X16481409Y56360085D01*
X16489694Y56427228D01*
X16484721Y56449229D01*
X16440385Y56511854D01*
X16365192Y56559101D01*
X16356460Y56566064D01*
X16253564Y56668960D01*
X16246601Y56677692D01*
X16169183Y56800902D01*
X16164342Y56810955D01*
X16116281Y56948305D01*
X16113796Y56959195D01*
X16097504Y57103792D01*
X16097504Y57114958D01*
X16113796Y57259554D01*
X16116281Y57270444D01*
X16164342Y57407794D01*
X16169183Y57417847D01*
X16246601Y57541057D01*
X16253564Y57549789D01*
X16356460Y57652685D01*
X16365192Y57659648D01*
X16488402Y57737066D01*
X16498455Y57741907D01*
X16635804Y57789967D01*
X16646696Y57792453D01*
X16791293Y57808746D01*
X16802457Y57808746D01*
X16947053Y57792453D01*
X16957945Y57789967D01*
X17016972Y57769313D01*
X17079411Y57768124D01*
X17130379Y57804210D01*
X17150000Y57863701D01*
X17150000Y59937112D01*
X17151566Y59941877D01*
X17173828Y59953125D01*
X18353792Y59953125D01*
X18353792Y61566254D01*
X18209195Y61582546D01*
X18198305Y61585031D01*
X18060955Y61633092D01*
X18050902Y61637933D01*
X17927692Y61715351D01*
X17918960Y61722314D01*
X17816064Y61825210D01*
X17809101Y61833942D01*
X17731683Y61957152D01*
X17726842Y61967205D01*
X17678781Y62104555D01*
X17676296Y62115445D01*
X17660004Y62260042D01*
X17660004Y62271208D01*
X17676296Y62415804D01*
X17678781Y62426694D01*
X17726842Y62564044D01*
X17731683Y62574097D01*
X17809101Y62697307D01*
X17816064Y62706039D01*
X17918960Y62808935D01*
X17927692Y62815898D01*
X18050902Y62893316D01*
X18060955Y62898157D01*
X18198304Y62946217D01*
X18209196Y62948703D01*
X18353793Y62964996D01*
X18364957Y62964996D01*
X18509553Y62948703D01*
X18520445Y62946217D01*
X18657794Y62898157D01*
X18667847Y62893316D01*
X18791057Y62815898D01*
X18799789Y62808935D01*
X18902685Y62706039D01*
X18909648Y62697307D01*
X18987066Y62574097D01*
X18991907Y62564044D01*
X19039967Y62426695D01*
X19042453Y62415803D01*
X19058746Y62271207D01*
X19058746Y62260043D01*
X19042453Y62115446D01*
X19039967Y62104554D01*
X18991907Y61967205D01*
X18987066Y61957152D01*
X18909648Y61833942D01*
X18902685Y61825210D01*
X18799789Y61722314D01*
X18791057Y61715351D01*
X18667847Y61637933D01*
X18657794Y61633092D01*
X18520444Y61585031D01*
X18509554Y61582546D01*
X18364958Y61566254D01*
X18353792Y61566254D01*
X18353792Y59953125D01*
X18384035Y59953125D01*
X18443362Y59972625D01*
X18479552Y60023520D01*
X18468707Y60106329D01*
X18434806Y60160281D01*
X18429967Y60170330D01*
X18381906Y60307680D01*
X18379421Y60318570D01*
X18363129Y60463167D01*
X18363129Y60474333D01*
X18379421Y60618929D01*
X18381906Y60629819D01*
X18429967Y60767169D01*
X18434808Y60777222D01*
X18512226Y60900432D01*
X18519189Y60909164D01*
X18622085Y61012060D01*
X18630817Y61019023D01*
X18754027Y61096441D01*
X18764080Y61101282D01*
X18901429Y61149342D01*
X18912321Y61151828D01*
X19056918Y61168121D01*
X19068082Y61168121D01*
X19212678Y61151828D01*
X19223570Y61149342D01*
X19360919Y61101282D01*
X19370972Y61096441D01*
X19494182Y61019023D01*
X19502914Y61012060D01*
X19605810Y60909164D01*
X19612773Y60900432D01*
X19690191Y60777222D01*
X19695032Y60767169D01*
X19743092Y60629820D01*
X19745578Y60618928D01*
X19761871Y60474332D01*
X19761871Y60463168D01*
X19745578Y60318571D01*
X19743092Y60307679D01*
X19695032Y60170330D01*
X19690193Y60160281D01*
X19656292Y60106329D01*
X19641239Y60045720D01*
X19665078Y59987999D01*
X19740964Y59953125D01*
X20333987Y59953125D01*
X20338752Y59951559D01*
X20350000Y59929297D01*
X20350000Y58839227D01*
X20369500Y58779900D01*
X20420395Y58743710D01*
X20482836Y58744772D01*
X20540963Y58797685D01*
X20555965Y58830535D01*
X20563360Y58842043D01*
X20563969Y58843107D01*
X20565294Y58845081D01*
X20566076Y58846082D01*
X20573908Y58857255D01*
X20605316Y58890689D01*
X20608005Y58893670D01*
X20638127Y58928432D01*
X20648461Y58937386D01*
X20649353Y58938243D01*
X20651180Y58939762D01*
X20652217Y58940506D01*
X20662881Y58949021D01*
X20702459Y58972266D01*
X20705879Y58974368D01*
X20744542Y58999215D01*
X20756967Y59004888D01*
X20760850Y59006909D01*
X20760871Y59006866D01*
X20770462Y59011614D01*
X21069354Y59133856D01*
X21124746Y59190290D01*
X21173210Y59315390D01*
X21177312Y59323629D01*
X21283533Y59495181D01*
X21289081Y59502527D01*
X21425017Y59651643D01*
X21431817Y59657841D01*
X21592837Y59779439D01*
X21600657Y59784281D01*
X21781287Y59874223D01*
X21789861Y59877545D01*
X21983938Y59932764D01*
X21992987Y59934456D01*
X22196195Y59953286D01*
X22200811Y59953500D01*
X22200811Y59953500D01*
X22200811Y60206500D01*
X22196195Y60206714D01*
X21992987Y60225543D01*
X21983938Y60227235D01*
X21789861Y60282454D01*
X21781287Y60285776D01*
X21600657Y60375718D01*
X21592837Y60380560D01*
X21431817Y60502158D01*
X21425017Y60508356D01*
X21289081Y60657472D01*
X21283533Y60664818D01*
X21177312Y60836370D01*
X21173210Y60844608D01*
X21100325Y61032749D01*
X21097801Y61041617D01*
X21060726Y61239947D01*
X21059877Y61249112D01*
X21059877Y61450887D01*
X21060726Y61460052D01*
X21097801Y61658382D01*
X21100325Y61667250D01*
X21173210Y61855391D01*
X21177312Y61863629D01*
X21283533Y62035181D01*
X21289081Y62042527D01*
X21425017Y62191643D01*
X21431817Y62197841D01*
X21592837Y62319439D01*
X21600657Y62324281D01*
X21781287Y62414223D01*
X21789861Y62417545D01*
X21983938Y62472764D01*
X21992987Y62474456D01*
X22196195Y62493286D01*
X22200811Y62493500D01*
X22799189Y62493500D01*
X22803805Y62493286D01*
X23007012Y62474456D01*
X23016061Y62472764D01*
X23210138Y62417545D01*
X23218712Y62414223D01*
X23399342Y62324281D01*
X23407162Y62319439D01*
X23568182Y62197841D01*
X23574982Y62191643D01*
X23710918Y62042527D01*
X23716466Y62035181D01*
X23822687Y61863629D01*
X23826789Y61855391D01*
X23899674Y61667250D01*
X23902198Y61658382D01*
X23939273Y61460052D01*
X23940122Y61450887D01*
X23940122Y61249112D01*
X23939273Y61239947D01*
X23902198Y61041617D01*
X23899674Y61032749D01*
X23826789Y60844608D01*
X23822687Y60836370D01*
X23716466Y60664818D01*
X23710918Y60657472D01*
X23574982Y60508356D01*
X23568182Y60502158D01*
X23407162Y60380560D01*
X23399342Y60375718D01*
X23218712Y60285776D01*
X23210138Y60282454D01*
X23016061Y60227235D01*
X23007012Y60225543D01*
X22803805Y60206714D01*
X22799189Y60206500D01*
X22200811Y60206500D01*
X22200811Y59953500D01*
X22799189Y59953500D01*
X22803805Y59953286D01*
X23007012Y59934456D01*
X23016061Y59932764D01*
X23210138Y59877545D01*
X23218712Y59874223D01*
X23399342Y59784281D01*
X23407162Y59779439D01*
X23568182Y59657841D01*
X23574982Y59651643D01*
X23710918Y59502527D01*
X23716466Y59495181D01*
X23822687Y59323629D01*
X23826789Y59315391D01*
X23899674Y59127250D01*
X23902198Y59118382D01*
X23939273Y58920052D01*
X23940122Y58910887D01*
X23940122Y58709112D01*
X23939273Y58699947D01*
X23902198Y58501617D01*
X23899674Y58492749D01*
X23826789Y58304608D01*
X23822687Y58296370D01*
X23716466Y58124818D01*
X23710918Y58117472D01*
X23574982Y57968356D01*
X23568182Y57962158D01*
X23407162Y57840560D01*
X23399342Y57835718D01*
X23218712Y57745776D01*
X23210138Y57742454D01*
X23016061Y57687235D01*
X23007012Y57685543D01*
X22803805Y57666714D01*
X22799189Y57666500D01*
X22200811Y57666500D01*
X22196195Y57666714D01*
X21992987Y57685543D01*
X21983938Y57687235D01*
X21789861Y57742454D01*
X21781287Y57745776D01*
X21600657Y57835718D01*
X21592845Y57840556D01*
X21547764Y57874599D01*
X21488668Y57894790D01*
X21429117Y57875984D01*
X21387500Y57794797D01*
X21387500Y57285202D01*
X21407000Y57225875D01*
X21457895Y57189685D01*
X21547764Y57205400D01*
X21592845Y57239443D01*
X21600657Y57244281D01*
X21781287Y57334223D01*
X21789861Y57337545D01*
X21983938Y57392764D01*
X21992987Y57394456D01*
X22196195Y57413286D01*
X22200811Y57413500D01*
X22799189Y57413500D01*
X22803805Y57413286D01*
X23007012Y57394456D01*
X23016061Y57392764D01*
X23210138Y57337545D01*
X23218712Y57334223D01*
X23399342Y57244281D01*
X23407162Y57239439D01*
X23568182Y57117841D01*
X23574982Y57111643D01*
X23710918Y56962527D01*
X23716466Y56955181D01*
X23822687Y56783629D01*
X23826789Y56775391D01*
X23899674Y56587250D01*
X23902198Y56578382D01*
X23939273Y56380052D01*
X23940122Y56370887D01*
X23940122Y56169112D01*
X23939273Y56159947D01*
X23902198Y55961617D01*
X23899674Y55952749D01*
X23826789Y55764608D01*
X23822687Y55756370D01*
X23716466Y55584818D01*
X23710918Y55577472D01*
X23574982Y55428356D01*
X23568182Y55422158D01*
X23407162Y55300560D01*
X23399342Y55295718D01*
X23218712Y55205776D01*
X23210138Y55202454D01*
X23016061Y55147235D01*
X23007012Y55145543D01*
X22803805Y55126714D01*
X22799189Y55126500D01*
X22200811Y55126500D01*
X22196195Y55126714D01*
X21992987Y55145543D01*
X21983938Y55147235D01*
X21789861Y55202454D01*
X21781287Y55205776D01*
X21600657Y55295718D01*
X21592845Y55300556D01*
X21547764Y55334599D01*
X21488668Y55354790D01*
X21429117Y55335984D01*
X21387500Y55254797D01*
X21387500Y54745202D01*
X21407000Y54685875D01*
X21457895Y54649685D01*
X21547764Y54665400D01*
X21592845Y54699443D01*
X21600657Y54704281D01*
X21781287Y54794223D01*
X21789861Y54797545D01*
X21983938Y54852764D01*
X21992987Y54854456D01*
X22196195Y54873286D01*
X22200811Y54873500D01*
X22799189Y54873500D01*
X22803805Y54873286D01*
X23007012Y54854456D01*
X23016061Y54852764D01*
X23210138Y54797545D01*
X23218712Y54794223D01*
X23399342Y54704281D01*
X23407162Y54699439D01*
X23568182Y54577841D01*
X23574982Y54571643D01*
X23710918Y54422527D01*
X23716466Y54415181D01*
X23822687Y54243629D01*
X23826789Y54235391D01*
X23899674Y54047250D01*
X23902198Y54038382D01*
X23939273Y53840052D01*
X23940122Y53830887D01*
X23940122Y53629112D01*
X23939273Y53619947D01*
X23902198Y53421617D01*
X23899674Y53412749D01*
X23826789Y53224608D01*
X23822687Y53216370D01*
X23716466Y53044818D01*
X23710918Y53037472D01*
X23574982Y52888356D01*
X23568182Y52882158D01*
X23407162Y52760560D01*
X23399342Y52755718D01*
X23218712Y52665776D01*
X23210138Y52662454D01*
X23016061Y52607235D01*
X23007012Y52605543D01*
X22803805Y52586714D01*
X22799189Y52586500D01*
X22200811Y52586500D01*
X22196195Y52586714D01*
X21992987Y52605543D01*
X21983938Y52607235D01*
X21789861Y52662454D01*
X21781287Y52665776D01*
X21600657Y52755718D01*
X21592845Y52760556D01*
X21436695Y52878475D01*
X21377599Y52898666D01*
X21300859Y52864162D01*
X21286881Y52848032D01*
X21282399Y52842470D01*
X21257843Y52809667D01*
X21253173Y52804277D01*
X20008223Y51559327D01*
X20002833Y51554657D01*
X19970030Y51530101D01*
X19964470Y51525621D01*
X19936196Y51501121D01*
X19919870Y51490630D01*
X19913474Y51486834D01*
X19896462Y51477545D01*
X19861415Y51464474D01*
X19854818Y51461742D01*
X19820782Y51446198D01*
X19802185Y51440737D01*
X19794987Y51438900D01*
X19776018Y51434773D01*
X19738707Y51432105D01*
X19731610Y51431342D01*
X19691035Y51425508D01*
X19683930Y51425000D01*
X19481397Y51425000D01*
X19410686Y51395711D01*
X19346664Y51331689D01*
X19337932Y51324726D01*
X19214722Y51247308D01*
X19204669Y51242467D01*
X19067319Y51194406D01*
X19056429Y51191921D01*
X18911833Y51175629D01*
X18900667Y51175629D01*
X18900667Y40350000D01*
X21071013Y40350000D01*
X21071013Y42426500D01*
X21066248Y42428066D01*
X21055000Y42450328D01*
X21055000Y44697487D01*
X21056566Y44702252D01*
X21078828Y44713500D01*
X22200811Y44713500D01*
X22200811Y44966500D01*
X22196195Y44966714D01*
X21992987Y44985543D01*
X21983938Y44987235D01*
X21789861Y45042454D01*
X21781287Y45045776D01*
X21600657Y45135718D01*
X21592837Y45140560D01*
X21431817Y45262158D01*
X21425017Y45268356D01*
X21289081Y45417472D01*
X21283533Y45424818D01*
X21177312Y45596370D01*
X21173210Y45604608D01*
X21100325Y45792749D01*
X21097801Y45801617D01*
X21060726Y45999947D01*
X21059877Y46009112D01*
X21059877Y46210887D01*
X21060726Y46220052D01*
X21097801Y46418382D01*
X21100325Y46427250D01*
X21173210Y46615391D01*
X21177312Y46623629D01*
X21283533Y46795181D01*
X21289081Y46802527D01*
X21425017Y46951643D01*
X21431817Y46957841D01*
X21592837Y47079439D01*
X21600657Y47084281D01*
X21781287Y47174223D01*
X21789861Y47177545D01*
X21983938Y47232764D01*
X21992987Y47234456D01*
X22196195Y47253286D01*
X22200811Y47253500D01*
X22799189Y47253500D01*
X22803805Y47253286D01*
X23007012Y47234456D01*
X23016061Y47232764D01*
X23210138Y47177545D01*
X23218712Y47174223D01*
X23399342Y47084281D01*
X23407162Y47079439D01*
X23568182Y46957841D01*
X23574982Y46951643D01*
X23710918Y46802527D01*
X23716466Y46795181D01*
X23822687Y46623629D01*
X23826789Y46615391D01*
X23899674Y46427250D01*
X23902198Y46418382D01*
X23939273Y46220052D01*
X23940122Y46210887D01*
X23940122Y46009112D01*
X23939273Y45999947D01*
X23902198Y45801617D01*
X23899674Y45792749D01*
X23826789Y45604608D01*
X23822687Y45596370D01*
X23716466Y45424818D01*
X23710918Y45417472D01*
X23574982Y45268356D01*
X23568182Y45262158D01*
X23407162Y45140560D01*
X23399342Y45135718D01*
X23218712Y45045776D01*
X23210138Y45042454D01*
X23016061Y44987235D01*
X23007012Y44985543D01*
X22803805Y44966714D01*
X22799189Y44966500D01*
X22200811Y44966500D01*
X22200811Y44713500D01*
X23928987Y44713500D01*
X23933752Y44711934D01*
X23945000Y44689672D01*
X23945000Y42442513D01*
X23943434Y42437748D01*
X23921172Y42426500D01*
X21071013Y42426500D01*
X21071013Y40350000D01*
X29550000Y40350000D01*
X29609327Y40369500D01*
G37*
G36*
X5270584Y74573862D02*
X5307685Y74586844D01*
X5307852Y74586882D01*
X5307932Y74586930D01*
X5312984Y74588698D01*
X5312616Y74589750D01*
X5361353Y74619095D01*
X5385310Y74676767D01*
X5370380Y74737406D01*
X5322386Y74777363D01*
X5285600Y74784375D01*
X5237511Y74784375D01*
X5178184Y74764875D01*
X5137511Y74684090D01*
X5137557Y74667966D01*
X5157227Y74608694D01*
X5208225Y74572650D01*
X5270584Y74573862D01*
G37*
G36*
X669945Y72968858D02*
X719260Y73007173D01*
X736230Y73067234D01*
X670111Y74640330D01*
X648137Y74698787D01*
X595767Y74732807D01*
X533425Y74729124D01*
X499488Y74706842D01*
X-59480Y74147874D01*
X-64027Y74143013D01*
X-220089Y73964656D01*
X-244202Y73887610D01*
X-238129Y73833708D01*
X-238129Y73822542D01*
X-244957Y73761942D01*
X-232222Y73700805D01*
X-185699Y73659144D01*
X-138364Y73651007D01*
X-131689Y73651490D01*
X-117561Y73650493D01*
X-90400Y73644610D01*
X-79877Y73642912D01*
X-52270Y73639956D01*
X-38550Y73636461D01*
X-31206Y73633423D01*
X-14146Y73628094D01*
X-6363Y73626408D01*
X6906Y73621473D01*
X31304Y73608179D01*
X40924Y73603584D01*
X66587Y73592968D01*
X78769Y73585747D01*
X84958Y73580764D01*
X99825Y73570845D01*
X106817Y73567035D01*
X118156Y73558563D01*
X137828Y73538926D01*
X145764Y73531807D01*
X167397Y73514391D01*
X177041Y73504041D01*
X181578Y73497512D01*
X193053Y73483801D01*
X201215Y73475654D01*
X205897Y73470261D01*
X556318Y73003035D01*
X607515Y72967273D01*
X669945Y72968858D01*
G37*
G36*
X2400429Y73797000D02*
X2436619Y73847895D01*
X2435557Y73910336D01*
X2411813Y73948211D01*
X2347314Y74012710D01*
X2340354Y74021438D01*
X2327172Y74042417D01*
X2279097Y74082276D01*
X2216748Y74085840D01*
X2164443Y74051720D01*
X2142500Y73989213D01*
X2142500Y73877500D01*
X2162000Y73818173D01*
X2242500Y73777500D01*
X2341102Y73777500D01*
X2400429Y73797000D01*
G37*
G36*
X25146201Y73061517D02*
X25191874Y73104108D01*
X25203165Y73140648D01*
X25203369Y73140615D01*
X25203610Y73142088D01*
X25203782Y73142645D01*
X25203900Y73143859D01*
X25208927Y73174592D01*
X25206145Y73219055D01*
X25080038Y73646128D01*
X25026273Y73708496D01*
X24877279Y73777732D01*
X24815259Y73785049D01*
X24760992Y73754145D01*
X24735642Y73697072D01*
X24757837Y73623606D01*
X24852099Y73508748D01*
X24857536Y73500611D01*
X24945312Y73336393D01*
X24949056Y73327355D01*
X25003109Y73149167D01*
X25005974Y73134760D01*
X25007962Y73135155D01*
X25029964Y73085345D01*
X25084167Y73054328D01*
X25146201Y73061517D01*
G37*
G36*
X6220015Y73435262D02*
X6283691Y73477403D01*
X6322403Y73526407D01*
X6326317Y73581586D01*
X6312058Y73648670D01*
X6280649Y73702647D01*
X6223342Y73727464D01*
X6162486Y73713443D01*
X6119855Y73660907D01*
X6101282Y73607830D01*
X6096443Y73597781D01*
X6080154Y73571858D01*
X6065101Y73511249D01*
X6088940Y73453528D01*
X6142375Y73421207D01*
X6220015Y73435262D01*
G37*
G36*
X25014476Y68797873D02*
X25059142Y68841519D01*
X25070366Y68884520D01*
X25120468Y70487797D01*
X25102831Y70547704D01*
X25053091Y70585466D01*
X24990647Y70586355D01*
X24932325Y70538059D01*
X24857538Y70398142D01*
X24852102Y70390006D01*
X24733973Y70246066D01*
X24727058Y70239151D01*
X24583118Y70121022D01*
X24574986Y70115588D01*
X24410768Y70027812D01*
X24401730Y70024068D01*
X24223538Y69970014D01*
X24213956Y69968108D01*
X24026190Y69949615D01*
X24021293Y69949375D01*
X22826207Y69949375D01*
X22821310Y69949615D01*
X22633543Y69968108D01*
X22623961Y69970014D01*
X22445769Y70024068D01*
X22436731Y70027812D01*
X22272513Y70115588D01*
X22264381Y70121022D01*
X22120441Y70239151D01*
X22113526Y70246066D01*
X21995397Y70390006D01*
X21989963Y70398138D01*
X21902187Y70562356D01*
X21898443Y70571394D01*
X21844389Y70749586D01*
X21842483Y70759168D01*
X21824231Y70944491D01*
X21824231Y70954259D01*
X21842483Y71139581D01*
X21844389Y71149163D01*
X21898443Y71327355D01*
X21902187Y71336393D01*
X21989963Y71500611D01*
X21995397Y71508743D01*
X22113526Y71652683D01*
X22120441Y71659598D01*
X22264381Y71777727D01*
X22272517Y71783163D01*
X22418481Y71861182D01*
X22461611Y71906346D01*
X22469536Y71968291D01*
X22418482Y72037566D01*
X22272513Y72115588D01*
X22264382Y72121022D01*
X22172959Y72196051D01*
X22109519Y72218750D01*
X21643439Y72218750D01*
X21637829Y72219065D01*
X21583919Y72225140D01*
X21577573Y72225651D01*
X21526183Y72228147D01*
X21515160Y72229935D01*
X21505270Y72232703D01*
X21489513Y72235776D01*
X21479317Y72236925D01*
X21468429Y72239410D01*
X21419876Y72256400D01*
X21413806Y72258310D01*
X21361549Y72272939D01*
X21356247Y72274750D01*
X20560014Y72597547D01*
X20549589Y72601118D01*
X18420216Y73201710D01*
X18414497Y73203703D01*
X18398091Y73210557D01*
X18383474Y73215380D01*
X18369134Y73218914D01*
X18357898Y73223176D01*
X18322794Y73241600D01*
X18314869Y73245327D01*
X18278290Y73260609D01*
X18267852Y73266538D01*
X18255984Y73275326D01*
X18242942Y73283510D01*
X18229865Y73290373D01*
X18219981Y73297196D01*
X18190307Y73323485D01*
X18183505Y73328999D01*
X18151644Y73352592D01*
X18146724Y73357252D01*
X18077076Y73384642D01*
X15494246Y73361792D01*
X15435094Y73341768D01*
X15399356Y73290555D01*
X15396909Y73243025D01*
X15490494Y72753336D01*
X15491301Y72746833D01*
X15493631Y72706665D01*
X15494318Y72699404D01*
X15499572Y72659493D01*
X15500000Y72652969D01*
X15500000Y72291166D01*
X15515328Y72237963D01*
X15549563Y72183478D01*
X15554408Y72173417D01*
X15569674Y72129789D01*
X15607674Y72080231D01*
X15667666Y72062882D01*
X15726252Y72084507D01*
X15758450Y72129789D01*
X15773717Y72173419D01*
X15778558Y72183472D01*
X15855976Y72306682D01*
X15862939Y72315414D01*
X15965835Y72418310D01*
X15974567Y72425273D01*
X16097777Y72502691D01*
X16107830Y72507532D01*
X16245179Y72555592D01*
X16256071Y72558078D01*
X16400668Y72574371D01*
X16411832Y72574371D01*
X16556428Y72558078D01*
X16567320Y72555592D01*
X16704669Y72507532D01*
X16714722Y72502691D01*
X16837932Y72425273D01*
X16846664Y72418310D01*
X16949560Y72315414D01*
X16956523Y72306682D01*
X17033941Y72183472D01*
X17038782Y72173419D01*
X17086842Y72036070D01*
X17089328Y72025178D01*
X17105621Y71880582D01*
X17105621Y71869418D01*
X17089328Y71724821D01*
X17086842Y71713929D01*
X17039945Y71579903D01*
X17038756Y71517464D01*
X17074842Y71466496D01*
X17134333Y71446875D01*
X18580862Y71446875D01*
X18585627Y71445309D01*
X18596875Y71423047D01*
X18596875Y70496198D01*
X18626164Y70425487D01*
X18734862Y70316789D01*
X18805573Y70287500D01*
X19071772Y70287500D01*
X19124975Y70302828D01*
X19144646Y70315188D01*
X19154707Y70320033D01*
X19292054Y70368092D01*
X19302946Y70370578D01*
X19447543Y70386871D01*
X19458707Y70386871D01*
X19603303Y70370578D01*
X19614195Y70368092D01*
X19751544Y70320032D01*
X19761597Y70315191D01*
X19884807Y70237773D01*
X19893539Y70230810D01*
X19996435Y70127914D01*
X20003398Y70119182D01*
X20080816Y69995972D01*
X20085657Y69985919D01*
X20133717Y69848570D01*
X20136203Y69837678D01*
X20152496Y69693082D01*
X20152496Y69681918D01*
X20136203Y69537321D01*
X20133717Y69526429D01*
X20085657Y69389080D01*
X20080816Y69379027D01*
X20003398Y69255817D01*
X19996435Y69247085D01*
X19889567Y69140217D01*
X19891607Y69138177D01*
X19863499Y69095342D01*
X19866896Y69032984D01*
X19906625Y68984802D01*
X19970260Y68969852D01*
X21566404Y69133559D01*
X21572015Y69133818D01*
X21598902Y69133549D01*
X21611099Y69134173D01*
X21635043Y69136871D01*
X21651826Y69136871D01*
X21651826Y69137300D01*
X21655003Y69137254D01*
X21655013Y69136901D01*
X21663425Y69137133D01*
X24392177Y69059168D01*
X24400568Y69058457D01*
X24400574Y69058531D01*
X24405437Y69058081D01*
X24411278Y69057824D01*
X24477089Y69047467D01*
X24478604Y69047240D01*
X24544625Y69037884D01*
X24550285Y69036421D01*
X24551500Y69036169D01*
X24554544Y69035332D01*
X24556034Y69034935D01*
X24558985Y69034172D01*
X24560132Y69033796D01*
X24565782Y69032243D01*
X24627735Y69007462D01*
X24629163Y69006904D01*
X24691353Y68983127D01*
X24696549Y68980440D01*
X24697685Y68979920D01*
X24700454Y68978434D01*
X24701806Y68977721D01*
X24704525Y68976314D01*
X24705563Y68975691D01*
X24710728Y68972918D01*
X24765611Y68934974D01*
X24766879Y68934112D01*
X24822223Y68897091D01*
X24826682Y68893322D01*
X24827666Y68892569D01*
X24830061Y68890480D01*
X24831236Y68889472D01*
X24833544Y68887521D01*
X24834414Y68886685D01*
X24838837Y68882828D01*
X24883886Y68833639D01*
X24884931Y68832516D01*
X24897714Y68818981D01*
X24952626Y68789238D01*
X25014476Y68797873D01*
G37*
G36*
X5177163Y71208927D02*
X5226053Y71247783D01*
X5242500Y71302727D01*
X5242500Y71977500D01*
X5542500Y71977500D01*
X5601827Y71997000D01*
X5642500Y72077500D01*
X5642500Y72807680D01*
X5643008Y72814782D01*
X5645539Y72832383D01*
X5646548Y72847961D01*
X5646357Y72862155D01*
X5648183Y72876187D01*
X5653978Y72896951D01*
X5656641Y72909603D01*
X5659710Y72930949D01*
X5663698Y72944530D01*
X5669599Y72957451D01*
X5674956Y72972114D01*
X5678771Y72985784D01*
X5684480Y72998744D01*
X5695887Y73017028D01*
X5702008Y73028419D01*
X5710965Y73048034D01*
X5718619Y73059944D01*
X5719348Y73060785D01*
X5719700Y73061625D01*
X5722486Y73065961D01*
X5721720Y73066453D01*
X5743460Y73118392D01*
X5728694Y73179071D01*
X5680808Y73219158D01*
X5624545Y73223526D01*
X5624514Y73223800D01*
X5623086Y73223639D01*
X5621517Y73223761D01*
X5618933Y73223171D01*
X5474333Y73206879D01*
X5463167Y73206879D01*
X5318570Y73223171D01*
X5307680Y73225656D01*
X5275528Y73236907D01*
X5213090Y73238096D01*
X5162121Y73202010D01*
X5142500Y73142519D01*
X5142500Y72077500D01*
X4225260Y72077500D01*
X4165933Y72058000D01*
X4125277Y71979324D01*
X4121864Y71792249D01*
X4121225Y71785134D01*
X4115453Y71749602D01*
X4114414Y71740702D01*
X4112101Y71708358D01*
X4109090Y71694520D01*
X4107944Y71691447D01*
X4102933Y71672534D01*
X4102408Y71669302D01*
X4098171Y71655791D01*
X4086152Y71630694D01*
X4078113Y71568764D01*
X4108383Y71514140D01*
X4176342Y71487500D01*
X4606095Y71487500D01*
X4612628Y71487072D01*
X4615769Y71486658D01*
X4635374Y71486070D01*
X4648762Y71485267D01*
X4693775Y71476570D01*
X4699692Y71475610D01*
X4745219Y71469616D01*
X4758139Y71466154D01*
X4776460Y71460651D01*
X4789190Y71456408D01*
X4830429Y71436352D01*
X4835897Y71433893D01*
X4878320Y71416321D01*
X4889881Y71409646D01*
X4906201Y71399559D01*
X4917366Y71392188D01*
X4952022Y71362130D01*
X4956668Y71358339D01*
X4993079Y71330401D01*
X5002520Y71320959D01*
X5015681Y71306986D01*
X5024552Y71296981D01*
X5050255Y71258969D01*
X5053762Y71254104D01*
X5063167Y71241848D01*
X5114754Y71206653D01*
X5177163Y71208927D01*
G37*
G36*
X25106140Y71267119D02*
X25147251Y71344852D01*
X25189156Y72685789D01*
X25171519Y72745697D01*
X25121779Y72783459D01*
X25059335Y72784348D01*
X25008541Y72748017D01*
X24993511Y72717942D01*
X24949056Y72571394D01*
X24945312Y72562356D01*
X24857536Y72398138D01*
X24852102Y72390006D01*
X24733973Y72246066D01*
X24727058Y72239151D01*
X24583118Y72121022D01*
X24574986Y72115588D01*
X24429017Y72037566D01*
X24385887Y71992402D01*
X24377963Y71930457D01*
X24429018Y71861182D01*
X24574982Y71783163D01*
X24583118Y71777727D01*
X24727058Y71659598D01*
X24733973Y71652683D01*
X24852102Y71508743D01*
X24857536Y71500611D01*
X24945312Y71336393D01*
X24949058Y71327350D01*
X24951606Y71318949D01*
X24987487Y71267836D01*
X25046696Y71247978D01*
X25106140Y71267119D01*
G37*
G36*
X15737493Y71466375D02*
X15773683Y71517270D01*
X15772554Y71579903D01*
X15758450Y71620210D01*
X15720450Y71669768D01*
X15660458Y71687117D01*
X15601872Y71665492D01*
X15569674Y71620210D01*
X15555570Y71579903D01*
X15554381Y71517464D01*
X15590467Y71466496D01*
X15649958Y71446875D01*
X15678166Y71446875D01*
X15737493Y71466375D01*
G37*
G36*
X7693258Y71104711D02*
X7728128Y71180593D01*
X7728128Y71225311D01*
X7708628Y71284638D01*
X7657733Y71320828D01*
X7595292Y71319766D01*
X7557417Y71296022D01*
X7527409Y71266014D01*
X7499247Y71210274D01*
X7509645Y71148696D01*
X7559821Y71105462D01*
X7558982Y71103720D01*
X7574096Y71096441D01*
X7574929Y71095918D01*
X7575453Y71095788D01*
X7579157Y71094004D01*
X7579529Y71094776D01*
X7635539Y71080868D01*
X7693258Y71104711D01*
G37*
G36*
X5676424Y67379080D02*
X5731361Y67408776D01*
X5757968Y67465275D01*
X5745867Y67526541D01*
X5699778Y67568682D01*
X5658718Y67577500D01*
X5242500Y67577500D01*
X5242500Y68982234D01*
X5223000Y69041561D01*
X5155857Y69078515D01*
X5156250Y69081250D01*
X5112125Y69087594D01*
X5105028Y69088357D01*
X5067732Y69091024D01*
X5048724Y69095160D01*
X5041585Y69096982D01*
X5022967Y69102449D01*
X4988927Y69117994D01*
X4982333Y69120725D01*
X4947286Y69133797D01*
X4930256Y69143096D01*
X4923851Y69146896D01*
X4907554Y69157369D01*
X4879259Y69181887D01*
X4873701Y69186366D01*
X4840912Y69210912D01*
X4835528Y69215577D01*
X4684327Y69366778D01*
X4679662Y69372162D01*
X4655110Y69404959D01*
X4650631Y69410517D01*
X4626117Y69438808D01*
X4615650Y69455095D01*
X4611839Y69461517D01*
X4602546Y69478537D01*
X4589474Y69513585D01*
X4586742Y69520181D01*
X4571198Y69554217D01*
X4565737Y69572815D01*
X4563897Y69580024D01*
X4559774Y69598980D01*
X4557106Y69636287D01*
X4556343Y69643386D01*
X4550508Y69683966D01*
X4550000Y69691070D01*
X4550000Y70179193D01*
X4530500Y70238520D01*
X4493735Y70269122D01*
X4390352Y70319400D01*
X4379498Y70326566D01*
X4337438Y70363045D01*
X4271918Y70387500D01*
X940770Y70387500D01*
X934261Y70387926D01*
X801641Y70405385D01*
X789096Y70408747D01*
X780766Y70412197D01*
X718492Y70416883D01*
X665581Y70383711D01*
X642500Y70319808D01*
X642500Y69195280D01*
X662000Y69135953D01*
X712895Y69099763D01*
X795881Y69110719D01*
X1319266Y69441116D01*
X1328696Y69446166D01*
X1328671Y69446213D01*
X1333521Y69448710D01*
X1341406Y69453336D01*
X1385873Y69471499D01*
X1388862Y69472777D01*
X1432693Y69492366D01*
X1441488Y69494871D01*
X1446640Y69496651D01*
X1446656Y69496601D01*
X1456826Y69499930D01*
X1930566Y69618365D01*
X1977023Y69644668D01*
X2179278Y69846923D01*
X2184661Y69851588D01*
X2217465Y69876144D01*
X2223023Y69880623D01*
X2251303Y69905128D01*
X2267622Y69915615D01*
X2273986Y69919391D01*
X2291044Y69928705D01*
X2326085Y69941775D01*
X2332681Y69944507D01*
X2366717Y69960051D01*
X2385326Y69965515D01*
X2392511Y69967349D01*
X2411478Y69971475D01*
X2448781Y69974143D01*
X2455879Y69974906D01*
X2496466Y69980742D01*
X2503570Y69981250D01*
X2987970Y69981250D01*
X3041172Y69996577D01*
X3050904Y70002692D01*
X3060955Y70007532D01*
X3198304Y70055592D01*
X3209196Y70058078D01*
X3353793Y70074371D01*
X3364957Y70074371D01*
X3509553Y70058078D01*
X3520445Y70055592D01*
X3657794Y70007532D01*
X3667847Y70002691D01*
X3791057Y69925273D01*
X3799789Y69918310D01*
X3902685Y69815414D01*
X3909648Y69806682D01*
X3987066Y69683472D01*
X3991907Y69673419D01*
X4039967Y69536070D01*
X4042453Y69525178D01*
X4058746Y69380582D01*
X4058746Y69369418D01*
X4042453Y69224821D01*
X4039967Y69213929D01*
X4004038Y69111248D01*
X4007389Y69036840D01*
X4141262Y68742321D01*
X4149094Y68728231D01*
X4591188Y68065092D01*
X4596473Y68055789D01*
X4596572Y68055845D01*
X4599852Y68049956D01*
X4600282Y68049287D01*
X4622005Y68001719D01*
X4622716Y68000197D01*
X4645247Y67952976D01*
X4645483Y67952220D01*
X4646248Y67950222D01*
X4648259Y67943370D01*
X4648749Y67941751D01*
X4650846Y67935031D01*
X4651311Y67932975D01*
X4651539Y67932199D01*
X4658991Y67880373D01*
X4659244Y67878714D01*
X4667548Y67827128D01*
X4667561Y67826339D01*
X4668100Y67819606D01*
X4667986Y67819598D01*
X4668750Y67808924D01*
X4668750Y67577500D01*
X4688250Y67518173D01*
X4768750Y67477500D01*
X5142500Y67477500D01*
X5142500Y67402621D01*
X5162000Y67343294D01*
X5212895Y67307104D01*
X5260206Y67304201D01*
X5676424Y67379080D01*
G37*
G36*
X-2017164Y70035380D02*
X-1960557Y70085114D01*
X-1894218Y70217793D01*
X-1885128Y70279578D01*
X-1930458Y70347187D01*
X-1996797Y70388870D01*
X-2057406Y70403922D01*
X-2115126Y70380082D01*
X-2150000Y70304197D01*
X-2150000Y70129835D01*
X-2130500Y70070508D01*
X-2079605Y70034318D01*
X-2017164Y70035380D01*
G37*
G36*
X18578999Y68827159D02*
X19094666Y68880048D01*
X19151694Y68905499D01*
X19182502Y68959821D01*
X19175075Y69021828D01*
X19137665Y69064199D01*
X19124974Y69072173D01*
X19071772Y69087500D01*
X18518654Y69087500D01*
X18512625Y69087865D01*
X18506578Y69088599D01*
X18488483Y69089145D01*
X18485434Y69088960D01*
X18473451Y69089686D01*
X18428964Y69097838D01*
X18422992Y69098747D01*
X18378041Y69104205D01*
X18366380Y69107079D01*
X18363512Y69108167D01*
X18346066Y69113030D01*
X18343068Y69113579D01*
X18331607Y69117150D01*
X18290362Y69135713D01*
X18284782Y69138024D01*
X18242450Y69154079D01*
X18231812Y69159662D01*
X18229286Y69161406D01*
X18213521Y69170298D01*
X18210741Y69171549D01*
X18200457Y69177766D01*
X18164861Y69205654D01*
X18159994Y69209235D01*
X18122730Y69234956D01*
X18113741Y69242919D01*
X18111707Y69245215D01*
X18098523Y69257626D01*
X18093734Y69261378D01*
X18089227Y69265370D01*
X18037011Y69317586D01*
X17966300Y69346875D01*
X17746875Y69346875D01*
X17687548Y69327375D01*
X17646875Y69246875D01*
X17646875Y68959514D01*
X17666375Y68900187D01*
X17742878Y68859594D01*
X18564799Y68826717D01*
X18578999Y68827159D01*
G37*
G36*
X15927255Y68362021D02*
X15946875Y68421511D01*
X15946875Y69246875D01*
X15927375Y69306202D01*
X15846875Y69346875D01*
X15421051Y69346875D01*
X15361724Y69327375D01*
X15321057Y69247927D01*
X15312404Y68425808D01*
X15331278Y68366279D01*
X15381789Y68329556D01*
X15445425Y68330368D01*
X15463926Y68336842D01*
X15474821Y68339328D01*
X15619418Y68355621D01*
X15630582Y68355621D01*
X15775178Y68339328D01*
X15786065Y68336843D01*
X15813848Y68327122D01*
X15876286Y68325934D01*
X15927255Y68362021D01*
G37*
G36*
X7693254Y68399367D02*
X7728128Y68475253D01*
X7728128Y68983122D01*
X7708628Y69042449D01*
X7657733Y69078639D01*
X7613897Y69082104D01*
X7585409Y69078008D01*
X7578304Y69077500D01*
X7249954Y69077500D01*
X7190627Y69058000D01*
X7154437Y69007105D01*
X7155499Y68944664D01*
X7194736Y68894127D01*
X7206953Y68886036D01*
X7210057Y68883270D01*
X7225592Y68871909D01*
X7229177Y68869784D01*
X7240203Y68860907D01*
X7261723Y68837815D01*
X7268357Y68831328D01*
X7291899Y68810352D01*
X7301030Y68799516D01*
X7303222Y68795999D01*
X7314929Y68780719D01*
X7317768Y68777672D01*
X7325852Y68766041D01*
X7339992Y68737825D01*
X7344531Y68729730D01*
X7361212Y68702969D01*
X7366917Y68690005D01*
X7368032Y68686006D01*
X7374959Y68668049D01*
X7378433Y68661116D01*
X7381162Y68654536D01*
X7430943Y68505191D01*
X7482419Y68446718D01*
X7495970Y68440192D01*
X7574924Y68390581D01*
X7635533Y68375528D01*
X7693254Y68399367D01*
G37*
G36*
X23887017Y67092064D02*
X23909375Y67155086D01*
X23909375Y67575210D01*
X23889875Y67634537D01*
X23812231Y67675169D01*
X23247704Y67691299D01*
X23187844Y67673502D01*
X23150215Y67623661D01*
X23149493Y67561215D01*
X23208720Y67498094D01*
X23218715Y67494221D01*
X23399342Y67404281D01*
X23407162Y67399439D01*
X23568182Y67277841D01*
X23574982Y67271643D01*
X23710918Y67122527D01*
X23716466Y67115181D01*
X23724353Y67102443D01*
X23772164Y67062267D01*
X23834488Y67058291D01*
X23887017Y67092064D01*
G37*
G36*
X8578137Y66197625D02*
X8593520Y66219258D01*
X8621722Y66189841D01*
X8668689Y66178125D01*
X12026303Y66178125D01*
X12085630Y66197625D01*
X12121820Y66248520D01*
X12125674Y66289321D01*
X12113129Y66400667D01*
X12113129Y66411833D01*
X12129421Y66556429D01*
X12131906Y66567319D01*
X12179967Y66704669D01*
X12184808Y66714722D01*
X12262226Y66837932D01*
X12269189Y66846664D01*
X12337601Y66915076D01*
X12366404Y66975945D01*
X12401189Y67327658D01*
X12387623Y67388617D01*
X12340537Y67429640D01*
X12301675Y67437500D01*
X12117263Y67437500D01*
X12097734Y67443919D01*
X12078463Y67463191D01*
X11988270Y67463191D01*
X11937422Y67437500D01*
X10217263Y67437500D01*
X10212498Y67439066D01*
X10201250Y67461328D01*
X10201250Y67502263D01*
X10181750Y67561590D01*
X10130855Y67597780D01*
X10078995Y67599755D01*
X10072055Y67598171D01*
X10016932Y67591960D01*
X9960160Y67565940D01*
X9928128Y67492589D01*
X9928128Y67401950D01*
X9926562Y67397185D01*
X9904300Y67385937D01*
X9361198Y67385937D01*
X9301871Y67366437D01*
X9265681Y67315542D01*
X9266810Y67252908D01*
X9274343Y67231381D01*
X9276828Y67220492D01*
X9293121Y67075896D01*
X9293121Y67064732D01*
X9276828Y66920135D01*
X9274342Y66909243D01*
X9226282Y66771894D01*
X9221441Y66761841D01*
X9144023Y66638631D01*
X9137060Y66629899D01*
X9034164Y66527003D01*
X9025432Y66520040D01*
X8902222Y66442622D01*
X8892169Y66437781D01*
X8754819Y66389720D01*
X8743929Y66387235D01*
X8657493Y66377496D01*
X8600722Y66351476D01*
X8592988Y66337517D01*
X8575366Y66360596D01*
X8530006Y66377496D01*
X8450253Y66386482D01*
X8389116Y66373747D01*
X8341023Y66300347D01*
X8340544Y66300456D01*
X8340493Y66300231D01*
X8340550Y66299625D01*
X8339686Y66298306D01*
X8338699Y66289545D01*
X8341538Y66289225D01*
X8346396Y66238061D01*
X8388031Y66191515D01*
X8438019Y66178125D01*
X8518810Y66178125D01*
X8578137Y66197625D01*
G37*
G36*
X160583Y66911925D02*
X188804Y66936378D01*
X197819Y66942172D01*
X199192Y66943162D01*
X199895Y66943580D01*
X202914Y66945446D01*
X203599Y66945886D01*
X205094Y66946669D01*
X214308Y66952141D01*
X257995Y66970260D01*
X261226Y66971668D01*
X304213Y66991300D01*
X314488Y66994316D01*
X316080Y66994878D01*
X316892Y66995086D01*
X320293Y66996020D01*
X321095Y66996255D01*
X322748Y66996585D01*
X333125Y66999239D01*
X380116Y67004312D01*
X383614Y67004752D01*
X433966Y67011992D01*
X441069Y67012500D01*
X642500Y67012500D01*
X701827Y67032000D01*
X742500Y67112500D01*
X742500Y67477500D01*
X723000Y67536827D01*
X642500Y67577500D01*
X-50761Y67577500D01*
X-110088Y67558000D01*
X-146278Y67507105D01*
X-145149Y67444472D01*
X-100656Y67317319D01*
X-98171Y67306429D01*
X-81879Y67161833D01*
X-81879Y67150667D01*
X-98800Y67000485D01*
X-96443Y67000219D01*
X-91513Y66947557D01*
X-49939Y66900957D01*
X163Y66887500D01*
X95097Y66887500D01*
X160583Y66911925D01*
G37*
G36*
X21164171Y65739348D02*
X21206394Y65785361D01*
X21213086Y65847451D01*
X21200309Y65879229D01*
X21177312Y65916370D01*
X21173210Y65924608D01*
X21100325Y66112749D01*
X21097801Y66121617D01*
X21060726Y66319947D01*
X21059877Y66329112D01*
X21059877Y66530887D01*
X21060726Y66540052D01*
X21090112Y66697250D01*
X21081846Y66759150D01*
X21038467Y66804076D01*
X20991815Y66815625D01*
X20450000Y66815625D01*
X20390673Y66796125D01*
X20350000Y66715625D01*
X20350000Y65919861D01*
X20369500Y65860534D01*
X20436068Y65820836D01*
X21080677Y65730146D01*
X21082204Y65729943D01*
X21102882Y65727358D01*
X21164171Y65739348D01*
G37*
G36*
X6911322Y66437581D02*
X6954723Y66482485D01*
X6964086Y66514860D01*
X6967476Y66544949D01*
X6954741Y66606087D01*
X6908218Y66647747D01*
X6870189Y66656123D01*
X6835642Y66656843D01*
X6775921Y66638584D01*
X6738678Y66588454D01*
X6738439Y66526004D01*
X6765993Y66486208D01*
X6764567Y66484782D01*
X6794004Y66455345D01*
X6849744Y66427183D01*
X6911322Y66437581D01*
G37*
G36*
X5732683Y66297297D02*
X5737937Y66305659D01*
X5752989Y66366268D01*
X5729148Y66423988D01*
X5675713Y66456309D01*
X5635557Y66457281D01*
X5616303Y66453817D01*
X5561366Y66424120D01*
X5534760Y66367621D01*
X5546861Y66306355D01*
X5600987Y66261007D01*
X5614987Y66256109D01*
X5677426Y66254923D01*
X5732683Y66297297D01*
G37*
G36*
X17115126Y65948042D02*
X17150000Y66023928D01*
X17150000Y66320722D01*
X17130500Y66380049D01*
X17079605Y66416239D01*
X17017164Y66415177D01*
X16983571Y66395469D01*
X16982942Y66394910D01*
X16952805Y66327809D01*
X16950000Y66328125D01*
X16933078Y66177946D01*
X16930593Y66167059D01*
X16903520Y66089686D01*
X16902332Y66027248D01*
X16944706Y65971987D01*
X16996797Y65939256D01*
X17057405Y65924203D01*
X17115126Y65948042D01*
G37*
G36*
X13260613Y65007885D02*
X13333297Y65055966D01*
X13372019Y65104962D01*
X13378125Y65139369D01*
X13378125Y65175108D01*
X13358625Y65234435D01*
X13307730Y65270625D01*
X13245289Y65269563D01*
X13198789Y65235984D01*
X13170208Y65198735D01*
X13165782Y65194358D01*
X13164410Y65191679D01*
X13134730Y65161999D01*
X13106568Y65106259D01*
X13116966Y65044681D01*
X13161870Y65001280D01*
X13223766Y64992981D01*
X13260613Y65007885D01*
G37*
G36*
X21144947Y64363646D02*
X21175382Y64399753D01*
X21177312Y64403628D01*
X21271476Y64555709D01*
X21286128Y64616415D01*
X21261908Y64673977D01*
X21198857Y64707580D01*
X20956872Y64737828D01*
X20955541Y64738084D01*
X20944056Y64739609D01*
X20942723Y64739708D01*
X20463932Y64807069D01*
X20402466Y64796024D01*
X20359539Y64750668D01*
X20350000Y64708044D01*
X20350000Y64446273D01*
X20369500Y64386946D01*
X20449694Y64346273D01*
X21085560Y64344327D01*
X21144947Y64363646D01*
G37*
G36*
X1203426Y63560337D02*
X1209951Y63560475D01*
X1212155Y63560378D01*
X1232102Y63561493D01*
X1234278Y63561835D01*
X1240778Y63562425D01*
X2060471Y63582917D01*
X2119293Y63603894D01*
X2154199Y63655677D01*
X2151577Y63718072D01*
X2091000Y63777274D01*
X1967205Y63820592D01*
X1957152Y63825433D01*
X1833942Y63902851D01*
X1825210Y63909814D01*
X1761188Y63973836D01*
X1690477Y64003125D01*
X1050445Y64003125D01*
X1043338Y64003633D01*
X990779Y64011190D01*
X988103Y64011538D01*
X938894Y64017263D01*
X933011Y64018819D01*
X930818Y64019265D01*
X927522Y64020233D01*
X924908Y64020962D01*
X921544Y64021852D01*
X919423Y64022610D01*
X913597Y64024321D01*
X868564Y64044887D01*
X866093Y64045975D01*
X820473Y64065338D01*
X815276Y64068484D01*
X813294Y64069532D01*
X810364Y64071415D01*
X808069Y64072847D01*
X805095Y64074646D01*
X803297Y64075955D01*
X798184Y64079241D01*
X760765Y64111665D01*
X758702Y64113404D01*
X717627Y64147099D01*
X712451Y64152003D01*
X586281Y64289910D01*
X531847Y64320520D01*
X469867Y64312866D01*
X424515Y64269934D01*
X412500Y64222409D01*
X412500Y63600633D01*
X432000Y63541306D01*
X482895Y63505116D01*
X521163Y63501009D01*
X1203426Y63560337D01*
G37*
G36*
X3464999Y63618030D02*
X3523821Y63639007D01*
X3562500Y63717999D01*
X3562500Y63741005D01*
X3543000Y63800332D01*
X3473697Y63840376D01*
X3404507Y63848172D01*
X3393618Y63850657D01*
X3256268Y63898718D01*
X3246215Y63903559D01*
X3123005Y63980977D01*
X3114273Y63987940D01*
X3007405Y64094808D01*
X3005517Y64092920D01*
X2962082Y64121388D01*
X2899726Y64117959D01*
X2851447Y64078020D01*
X2815893Y64021436D01*
X2808935Y64012710D01*
X2706039Y63909814D01*
X2697307Y63902851D01*
X2574097Y63825433D01*
X2564044Y63820592D01*
X2472204Y63788456D01*
X2422647Y63750456D01*
X2405297Y63690465D01*
X2426922Y63631878D01*
X2507731Y63594099D01*
X3464999Y63618030D01*
G37*
G36*
X20217169Y60019500D02*
X20253359Y60070395D01*
X20249034Y60141036D01*
X18937872Y63054729D01*
X18895744Y63100829D01*
X18830240Y63112332D01*
X17581296Y62904174D01*
X17525982Y62875186D01*
X17497773Y62808237D01*
X17424651Y60102702D01*
X17442541Y60042869D01*
X17492439Y60005317D01*
X17524614Y60000000D01*
X20157842Y60000000D01*
X20217169Y60019500D01*
G37*
G36*
X7694568Y70123574D02*
X7749882Y70152562D01*
X7778128Y70222213D01*
X7778128Y71219924D01*
X7783383Y71235911D01*
X7808626Y71261155D01*
X7817975Y71322902D01*
X7788868Y71378154D01*
X7719371Y71406250D01*
X7634633Y71406250D01*
X7553730Y71365027D01*
X7550773Y71360956D01*
X7545691Y71355006D01*
X6982414Y70791729D01*
X6953125Y70721018D01*
X6953125Y70118046D01*
X6972625Y70058719D01*
X7023520Y70022529D01*
X7069565Y70019407D01*
X7694568Y70123574D01*
G37*
G36*
X16847316Y70942917D02*
X16906557Y70962678D01*
X16946875Y71042916D01*
X16946875Y71380862D01*
X16948441Y71385627D01*
X16970703Y71396875D01*
X17689208Y71396875D01*
X17748535Y71416375D01*
X17788045Y71481669D01*
X17954210Y72561739D01*
X17943958Y72623342D01*
X17874985Y72675003D01*
X16438421Y72962316D01*
X16376520Y72954876D01*
X15507711Y72549432D01*
X15462196Y72506673D01*
X15450000Y72458814D01*
X15450000Y72276932D01*
X15467702Y72220125D01*
X15493986Y72182046D01*
X15499564Y72171419D01*
X15550845Y72036203D01*
X15553715Y72024557D01*
X15571146Y71881004D01*
X15571146Y71868996D01*
X15553715Y71725442D01*
X15550845Y71713796D01*
X15499564Y71578580D01*
X15493987Y71567954D01*
X15484135Y71553681D01*
X15466482Y71493778D01*
X15487810Y71435083D01*
X15566434Y71396875D01*
X16630862Y71396875D01*
X16635627Y71395309D01*
X16646875Y71373047D01*
X16646875Y71042475D01*
X16666375Y70983148D01*
X16747316Y70942476D01*
X16847316Y70942917D01*
G37*
G36*
X6559082Y64950745D02*
X6615532Y64977453D01*
X6639263Y65012183D01*
X6908255Y65671214D01*
X6915532Y65714260D01*
X6879664Y66395755D01*
X6857073Y66453975D01*
X6786454Y66490278D01*
X5886781Y66550257D01*
X5862422Y66548898D01*
X5785418Y66535044D01*
X5730481Y66505347D01*
X5703125Y66436624D01*
X5703125Y66186002D01*
X5736812Y66111151D01*
X5794506Y66060037D01*
X5802466Y66051053D01*
X5884611Y65932046D01*
X5890189Y65921419D01*
X5941470Y65786203D01*
X5944340Y65774557D01*
X5961771Y65631004D01*
X5961771Y65618996D01*
X5944340Y65475442D01*
X5941470Y65463796D01*
X5890189Y65328580D01*
X5884611Y65317953D01*
X5802466Y65198946D01*
X5794506Y65189962D01*
X5736812Y65138848D01*
X5703125Y65063997D01*
X5703125Y64957028D01*
X5722625Y64897701D01*
X5773520Y64861511D01*
X5815529Y64857800D01*
X6559082Y64950745D01*
G37*
G04 --- BOARD END --- *
%TF.MD5,83e7f4e3e3f42eca73fde1a6653db4ee*%
M02*
